<svg width="27" height="28" viewBox="0 0 27 28" fill="none" xmlns="http://www.w3.org/2000/svg">
<path d="M3.75 28C2.85625 28 2.09088 27.6864 1.45388 27.0592C0.816877 26.432 0.498919 25.6789 0.500003 24.8V10.4C0.500003 9.89333 0.615377 9.41333 0.846127 8.96C1.07688 8.50667 1.39484 8.13333 1.8 7.84L11.55 0.64C11.8479 0.426667 12.1594 0.266666 12.4844 0.16C12.8094 0.0533332 13.1479 0 13.5 0C13.8521 0 14.1906 0.0533332 14.5156 0.16C14.8406 0.266666 15.1521 0.426667 15.45 0.64L25.2 7.84C25.6062 8.13333 25.9247 8.50667 26.1555 8.96C26.3862 9.41333 26.5011 9.89333 26.5 10.4V24.8C26.5 25.68 26.1815 26.4336 25.5445 27.0608C24.9075 27.688 24.1427 28.0011 23.25 28H16.75V16.8H10.25V28H3.75Z" fill="#CE3762"/>
</svg>
