<svg width="25" height="24" viewBox="0 0 25 24" fill="none" xmlns="http://www.w3.org/2000/svg">
<path d="M7.7 12V14.4C7.7 15.72 8.17 16.85 9.11 17.79C10.05 18.73 11.18 19.2 12.5 19.2C13.82 19.2 14.95 18.73 15.89 17.79C16.83 16.85 17.3 15.72 17.3 14.4V13.2C17.3 12.86 17.1848 12.5748 16.9544 12.3444C16.724 12.114 16.4392 11.9992 16.1 12H7.7ZM12.5 17.4C11.66 17.4 10.95 17.11 10.37 16.53C9.79 15.95 9.5 15.24 9.5 14.4V13.8H15.5V14.4C15.5 15.24 15.21 15.95 14.63 16.53C14.05 17.11 13.34 17.4 12.5 17.4ZM8.3 6C7.62 6 7.02 6.22 6.5 6.66C5.98 7.1 5.58 7.64 5.3 8.28C5.2 8.5 5.2152 8.71 5.3456 8.91C5.476 9.11 5.6608 9.24 5.9 9.3C6.12 9.36 6.34 9.3348 6.56 9.2244C6.78 9.114 6.94 8.9492 7.04 8.73C7.18 8.47 7.3552 8.25 7.5656 8.07C7.776 7.89 8.0208 7.8 8.3 7.8C8.58 7.8 8.8252 7.8952 9.0356 8.0856C9.246 8.276 9.4208 8.5008 9.56 8.76C9.66 8.98 9.82 9.14 10.04 9.24C10.26 9.34 10.48 9.36 10.7 9.3C10.94 9.24 11.1252 9.11 11.2556 8.91C11.386 8.71 11.4008 8.5 11.3 8.28C11.02 7.64 10.62 7.1 10.1 6.66C9.58 6.22 8.98 6 8.3 6ZM16.7 6C16.02 6 15.42 6.22 14.9 6.66C14.38 7.1 13.98 7.64 13.7 8.28C13.6 8.5 13.6152 8.71 13.7456 8.91C13.876 9.11 14.0608 9.24 14.3 9.3C14.52 9.36 14.74 9.3348 14.96 9.2244C15.18 9.114 15.34 8.9492 15.44 8.73C15.58 8.47 15.7552 8.25 15.9656 8.07C16.176 7.89 16.4208 7.8 16.7 7.8C16.98 7.8 17.2252 7.8952 17.4356 8.0856C17.646 8.276 17.8208 8.5008 17.96 8.76C18.06 8.98 18.22 9.14 18.44 9.24C18.66 9.34 18.88 9.36 19.1 9.3C19.34 9.24 19.5252 9.11 19.6556 8.91C19.786 8.71 19.8008 8.5 19.7 8.28C19.42 7.64 19.02 7.1 18.5 6.66C17.98 6.22 17.38 6 16.7 6ZM12.5 24C10.84 24 9.28 23.6848 7.82 23.0544C6.36 22.424 5.09 21.5692 4.01 20.49C2.93 19.41 2.0752 18.14 1.4456 16.68C0.816 15.22 0.5008 13.66 0.5 12C0.5 10.34 0.8152 8.78 1.4456 7.32C2.076 5.86 2.9308 4.59 4.01 3.51C5.09 2.43 6.36 1.5752 7.82 0.9456C9.28 0.316 10.84 0.0008 12.5 0C14.16 0 15.72 0.3152 17.18 0.9456C18.64 1.576 19.91 2.4308 20.99 3.51C22.07 4.59 22.9252 5.86 23.5556 7.32C24.186 8.78 24.5008 10.34 24.5 12C24.5 13.66 24.1848 15.22 23.5544 16.68C22.924 18.14 22.0692 19.41 20.99 20.49C19.91 21.57 18.64 22.4252 17.18 23.0556C15.72 23.686 14.16 24.0008 12.5 24ZM12.5 21.6C15.18 21.6 17.45 20.67 19.31 18.81C21.17 16.95 22.1 14.68 22.1 12C22.1 9.32 21.17 7.05 19.31 5.19C17.45 3.33 15.18 2.4 12.5 2.4C9.82 2.4 7.55 3.33 5.69 5.19C3.83 7.05 2.9 9.32 2.9 12C2.9 14.68 3.83 16.95 5.69 18.81C7.55 20.67 9.82 21.6 12.5 21.6Z" fill="#667085"/>
</svg>
