<svg width="43" height="44" viewBox="0 0 43 44" fill="none" xmlns="http://www.w3.org/2000/svg">
<g opacity="0.3">
<path d="M42.4209 41.5683C42.4209 42.7646 33.113 43.7342 21.6306 43.7342C10.1482 43.7342 0.840332 42.7646 0.840332 41.5683C0.840332 40.3703 10.1482 39.4006 21.6306 39.4006C33.113 39.4006 42.4209 40.3703 42.4209 41.5683Z" fill="#6B184E"/>
</g>
<g opacity="0.3">
<path d="M23.8107 41.4702C23.5096 41.4725 23.2091 41.4747 22.9092 41.477C22.9092 41.4719 22.9092 41.4668 22.9092 41.4617C23.2091 41.4651 23.5107 41.4668 23.8107 41.4702Z" fill="#6B184E"/>
</g>
<g opacity="0.3">
<path d="M24.6925 41.4774C24.3983 41.4751 24.1035 41.4728 23.8081 41.4706C24.1029 41.4671 24.3977 41.4637 24.6925 41.462C24.6925 41.4671 24.6925 41.4723 24.6925 41.4774Z" fill="#6B184E"/>
</g>
<path fill-rule="evenodd" clip-rule="evenodd" d="M37.5109 31.1234C37.5098 31.1427 37.5087 31.162 37.5075 31.1813C37.3917 32.4645 35.5291 33.4291 34.4333 31.3841C34.3879 31.3 34.3475 31.2165 34.3123 31.1336C34.2799 31.1711 34.2493 31.2086 34.2203 31.2444C34.084 31.4182 33.9749 31.5971 33.9084 31.7607L33.1348 30.7774C33.1348 30.7774 33.5097 30.2458 34.084 29.7737C34.3617 29.5471 34.6855 29.3341 35.0366 29.2028C35.2973 29.1057 35.5734 29.0529 35.8562 29.0716C36.9026 29.1415 37.6013 29.876 37.5109 31.1234ZM35.1064 30.4554C35.2564 31.0058 35.5495 31.3347 36.025 31.2802C36.6827 31.2052 36.5583 30.2662 35.8562 30.227C35.6262 30.2151 35.3638 30.3037 35.1064 30.4554Z" fill="#FCCACA"/>
<path fill-rule="evenodd" clip-rule="evenodd" d="M35.9306 31.4765C35.6443 31.4765 35.2438 31.3538 35.0036 30.7523C34.9149 30.8153 34.828 30.8869 34.7428 30.9636C34.6423 31.0556 34.5452 31.1544 34.4565 31.2584C34.3884 31.3385 34.2674 31.3487 34.1873 31.2788C34.1055 31.2107 34.097 31.0897 34.1651 31.0096C34.264 30.8937 34.373 30.7829 34.4855 30.6807C34.6559 30.5256 34.8314 30.3944 35.0087 30.2904L35.0274 30.2802C35.0354 30.2723 35.0445 30.2655 35.0547 30.2598C35.1058 30.228 35.1552 30.2001 35.2029 30.1763L35.2251 30.1643V30.166C35.4722 30.0451 35.6596 30.0246 35.8658 30.0365C36.36 30.0638 36.6361 30.4489 36.6463 30.7983C36.6549 31.0982 36.4725 31.422 36.0465 31.4697C36.0107 31.4748 35.9715 31.4765 35.9306 31.4765ZM35.3325 30.541C35.5421 31.1425 35.8846 31.1033 36.0039 31.0897C36.2442 31.0624 36.2663 30.8852 36.2629 30.8102C36.2578 30.6262 36.1129 30.4336 35.8454 30.4183C35.6733 30.4097 35.5404 30.4268 35.3325 30.541Z" fill="#6B184E"/>
<path fill-rule="evenodd" clip-rule="evenodd" d="M36.0291 32.7581C35.569 32.7581 34.8516 32.557 34.2756 31.4936C34.1938 31.6129 34.129 31.7288 34.0864 31.8345L33.962 32.1378L32.897 30.7847L32.9788 30.6671C32.9941 30.645 33.3758 30.1082 33.9638 29.6259C34.3012 29.3499 34.6403 29.1471 34.9709 29.0244C35.2776 28.9102 35.5793 28.8608 35.869 28.8812C36.445 28.9204 36.9221 29.1419 37.2493 29.5254C37.6038 29.9395 37.7588 30.5189 37.6992 31.1988C37.6327 31.9367 37.0584 32.5809 36.3359 32.7274C36.2558 32.7445 36.1518 32.7581 36.0291 32.7581ZM34.3659 30.7779L34.4886 31.0574C34.5227 31.1358 34.5619 31.2159 34.6045 31.2943C35.0322 32.0952 35.6355 32.4803 36.2592 32.3525C36.8113 32.24 37.2663 31.7288 37.3175 31.1647C37.3686 30.5887 37.2442 30.1082 36.9579 29.7742C36.7006 29.4708 36.3137 29.2953 35.8434 29.2629C35.6082 29.2476 35.3594 29.2868 35.1055 29.3822C34.8124 29.4913 34.5108 29.6736 34.2057 29.9224C33.8138 30.2445 33.5156 30.599 33.3775 30.7745L33.8751 31.4084C33.9552 31.2772 34.0541 31.1426 34.1665 31.0097L34.3659 30.7779Z" fill="#6B184E"/>
<g opacity="0.3">
<path d="M36.3296 31.2154C36.3296 31.2154 36.8118 31.0859 36.6108 30.3787C36.4608 29.8487 35.8865 29.6817 35.3276 29.8453C34.7703 30.0072 33.6354 31.0961 33.6115 31.5221C33.5859 31.9482 34.3102 31.1387 34.5573 30.8763C34.8061 30.6138 35.6292 30.0464 36.1183 30.2917C36.6056 30.5371 36.5767 31.1455 36.3296 31.2154Z" fill="#6B184E"/>
</g>
<g opacity="0.3">
<path d="M37.5094 31.1239C37.5083 31.1432 37.5072 31.1625 37.506 31.1818C37.3901 32.465 35.5275 33.4296 34.4318 31.3846C34.3863 31.3006 34.346 31.2171 34.3108 31.1341C34.4028 31.0268 34.5051 30.9211 34.6141 30.8223C34.8067 31.2585 35.1646 31.7953 35.7797 31.918C36.6744 32.0952 37.3203 31.371 37.5094 31.1239Z" fill="#6B184E"/>
</g>
<path d="M34.1936 28.9699C34.3333 27.7276 35.2485 26.8687 35.896 26.6438C35.9983 26.608 36.0869 26.7256 36.0255 26.8142C35.8262 27.109 35.5075 27.6475 35.378 28.2593L34.1936 28.9699Z" fill="#FCCACA"/>
<path d="M34.1916 29.1607C34.1848 29.1607 34.1774 29.1601 34.1694 29.159C34.0655 29.1471 33.9888 29.0533 34.0007 28.9477C34.1422 27.6986 35.0488 26.734 35.831 26.4631C35.9554 26.4205 36.0917 26.4614 36.1718 26.5653C36.2519 26.6693 36.257 26.8124 36.182 26.9215C36.0048 27.1839 35.6878 27.7088 35.5634 28.2984C35.543 28.4024 35.4407 28.4688 35.3368 28.4467C35.2345 28.4245 35.1681 28.3223 35.1902 28.22C35.2976 27.7088 35.531 27.2453 35.7219 26.9317C35.1698 27.2384 34.4966 27.9797 34.3825 28.9903C34.3705 29.0891 34.287 29.1607 34.1916 29.1607Z" fill="#6B184E"/>
<path d="M32.8064 22.2753C32.6564 22.3929 31.818 23.0438 30.5962 23.7527C30.3167 23.3046 30.0202 22.899 29.71 22.5547C29.6214 22.4542 32.5031 22.3622 32.8064 22.2753Z" fill="#FCCACA"/>
<path d="M32.8062 22.2764C32.8208 22.264 32.8287 22.2578 32.8298 22.2578C32.8354 22.2634 32.8275 22.2696 32.8062 22.2764Z" fill="#FCCACA"/>
<path d="M39.4608 36.9129C39.1865 39.2424 37.525 40.4319 36.0952 41.0403C34.9892 41.5106 34.0213 41.6333 33.9395 41.664C33.4231 41.664 32.4927 41.6589 31.2998 41.6503C25.499 41.6077 16.963 41.485 16.963 41.485C12.2733 42.0099 9.32002 41.6963 7.46253 41.1221C4.56722 40.2274 4.33206 38.692 4.33206 38.692C3.24823 35.6995 3.64359 33.854 4.7632 33.2763C5.80442 32.7395 7.49661 33.7722 7.49661 33.7722C7.50002 33.7347 7.51365 33.6938 7.5341 33.6495C7.76416 33.1638 8.90422 32.3066 8.90422 32.3066C9.00987 32.201 9.09508 32.0732 9.17006 31.9198C9.19051 31.8738 9.21266 31.8261 9.23311 31.7766C9.42397 31.3097 9.7648 30.882 10.1704 30.1765C10.1704 30.1765 10.1704 30.1765 10.1721 30.1765L10.1789 30.1628C10.4192 29.7402 10.6816 29.2205 10.9492 28.5337L10.1789 30.1628C10.1755 30.1674 10.1727 30.1719 10.1704 30.1765C7.9073 29.5494 5.27614 26.7768 4.05258 24.2751C3.03692 22.1927 4.90464 19.8427 7.55455 22.0717C8.7338 23.0652 9.71027 23.6906 10.4839 24.0808C10.8248 24.2546 11.1281 24.3808 11.3922 24.4745C11.8779 24.6483 12.2324 24.7062 12.4573 24.7233C12.6635 24.2921 12.868 23.9326 13.0657 23.6974C13.3418 23.3685 13.519 23.1776 13.519 23.1776C13.8314 23.373 14.1387 23.5577 14.4409 23.7315C17.6259 25.5549 20.119 25.6265 23.9908 25.7884C26.3715 25.8855 28.8663 24.7608 30.5943 23.7536C30.7783 24.0467 30.9556 24.3586 31.126 24.6807C31.3117 24.6466 31.5401 24.5887 31.811 24.4949C32.3581 24.3075 33.0806 23.9718 33.9804 23.3753C34.4967 23.0345 35.071 22.6068 35.7084 22.0717C38.3566 19.8427 40.2243 22.1927 39.2086 24.2751C38.0123 26.7222 35.4664 29.4301 33.2374 30.1322C33.4623 30.8973 33.6004 31.4563 33.643 31.6471C33.81 32.3918 35.071 32.1567 35.071 32.1567C35.2261 32.5179 35.7135 33.5404 35.9538 33.5523C36.39 33.5694 36.8399 33.2115 36.8399 33.2115C39.5051 32.8537 39.6244 35.5104 39.4608 36.9129Z" fill="#FCCACA"/>
<path d="M10.1796 30.1626L10.1724 30.1769C10.1707 30.1769 10.1707 30.1769 10.1707 30.1769C10.173 30.1721 10.176 30.1674 10.1796 30.1626Z" fill="#FCCACA"/>
<g opacity="0.5">
<path d="M3.97216 35.7265C3.97216 35.7265 4.54133 34.0395 5.6831 33.8503C6.82486 33.6611 8.06717 34.8438 8.82209 35.9021C8.82209 35.9021 7.84563 33.1942 6.55731 33.034C5.269 32.8738 3.68587 34.244 3.97216 35.7265Z" fill="white"/>
</g>
<g opacity="0.5">
<path d="M39.5506 35.7265C39.5506 35.7265 38.8639 34.0395 37.7221 33.8503C36.5803 33.6611 35.4556 34.8438 34.7007 35.9021C34.7007 35.9021 35.6771 33.1942 36.9655 33.034C38.2538 32.8738 39.8369 34.244 39.5506 35.7265Z" fill="white"/>
</g>
<g opacity="0.5">
<path d="M13.6476 34.1956C8.83176 30.9407 8.66646 34.7869 8.66646 34.7869C8.30519 33.9707 8.01549 33.9195 7.62524 33.5276C7.8536 33.0419 8.99366 32.1848 8.99366 32.1848C9.09931 32.0808 9.18452 31.9513 9.2595 31.7962C9.28165 31.7519 10.9858 32.1456 11.0079 32.0944L13.6476 34.1956Z" fill="white"/>
</g>
<g opacity="0.5">
<path d="M29.7158 34.1956C34.5317 30.9407 34.8248 34.9574 34.8248 34.9574C35.1861 34.1411 35.3479 33.9195 35.7382 33.5276C35.5098 33.0419 34.3698 32.1848 34.3698 32.1848C34.2641 32.0808 34.1789 31.9513 34.1039 31.7962C34.0818 31.7519 32.376 32.1456 32.3555 32.0944L29.7158 34.1956Z" fill="white"/>
</g>
<path d="M25.6874 41.7984H9.37894C7.66629 41.7984 6.04908 41.0895 4.93799 39.8523C4.01095 38.8179 3.5355 37.5756 3.52868 36.1594C3.51505 33.7089 4.67556 33.0375 5.36914 32.8534C6.49386 32.5569 7.88783 33.1738 8.47746 34.227C8.91712 35.0108 9.45903 36.3128 9.48289 36.369C9.53572 36.4985 9.47437 36.6485 9.34485 36.7013C9.21364 36.7559 9.06538 36.6945 9.01085 36.565C9.00403 36.5514 8.45701 35.2341 8.03268 34.4775C7.55723 33.6288 6.39672 33.1108 5.49865 33.3476C4.54945 33.5981 4.0314 34.5967 4.03992 36.156C4.04674 37.4443 4.47617 38.5725 5.31801 39.5114C6.33196 40.6396 7.81114 41.2871 9.37894 41.2871H25.6874C25.8288 41.2871 25.943 41.4013 25.943 41.5427C25.943 41.6842 25.8288 41.7984 25.6874 41.7984Z" fill="#6B184E"/>
<path d="M13.8143 34.3121C13.7444 34.3121 13.6728 34.2814 13.6217 34.2235C13.603 34.2013 11.6398 31.986 9.80277 32.1479C9.05125 32.2126 8.40709 32.6813 7.88904 33.5367C7.81576 33.6577 7.65898 33.6969 7.53799 33.6236C7.4187 33.5504 7.37951 33.3936 7.45278 33.2726C8.05945 32.2689 8.83653 31.7184 9.75846 31.6383C11.8562 31.456 13.9199 33.7889 14.0068 33.8878C14.0989 33.9934 14.0886 34.1553 13.983 34.2473C13.9336 34.2899 13.8739 34.3121 13.8143 34.3121Z" fill="#6B184E"/>
<path d="M29.6757 34.3127C29.616 34.3127 29.5564 34.2906 29.5087 34.248C29.403 34.1559 29.3911 33.994 29.4848 33.8884C29.5717 33.7895 31.6354 31.4566 33.7332 31.6389C34.6551 31.719 35.4305 32.2695 36.0389 33.2732C36.1122 33.3942 36.073 33.551 35.952 33.6242C35.8327 33.6975 35.6742 33.6583 35.6026 33.5373C35.0829 32.6819 34.4404 32.2132 33.6889 32.1485C31.8519 31.9866 29.8887 34.2019 29.8683 34.2241C29.8188 34.282 29.7473 34.3127 29.6757 34.3127Z" fill="#6B184E"/>
<path d="M34.1151 41.798H21.2131C21.0717 41.798 20.9575 41.6838 20.9575 41.5424C20.9575 41.4009 21.0717 41.2868 21.2131 41.2868H34.1151C35.6811 41.2868 37.162 40.6392 38.176 39.5111C39.0161 38.5721 39.4473 37.444 39.4541 36.1557C39.4626 34.5964 38.9445 33.5978 37.9936 33.3473C37.0973 33.1104 35.9368 33.6284 35.4613 34.4771C35.037 35.2337 34.4883 36.551 34.4831 36.5646C34.4286 36.6942 34.2786 36.7555 34.1491 36.701C34.0196 36.6481 33.9566 36.4982 34.0111 36.3687C34.035 36.3124 34.5769 35.0105 35.0148 34.2266C35.6062 33.1734 37.0001 32.5565 38.1249 32.8531C38.8167 33.0371 39.9772 33.7085 39.9653 36.1591C39.9568 37.5752 39.483 38.8175 38.556 39.8519C37.4449 41.0891 35.826 41.798 34.1151 41.798Z" fill="#6B184E"/>
<path fill-rule="evenodd" clip-rule="evenodd" d="M5.55097 26.0881C5.24594 26.0881 4.96305 26.0302 4.7347 25.9126C4.17916 25.6263 3.78891 24.6873 3.80936 23.6802C3.83492 22.3254 4.54725 21.2246 5.76058 20.6571L5.85942 20.6111L5.96167 20.652C6.06051 20.6895 8.38834 21.6284 8.31506 23.6223C8.28439 24.4794 7.83279 25.2054 7.04208 25.6689C6.57345 25.9433 6.03495 26.0881 5.55097 26.0881ZM5.87476 21.17C4.50464 21.867 4.33082 23.157 4.3206 23.6887C4.30185 24.5664 4.64268 25.2906 4.96816 25.4576C5.39931 25.6791 6.1798 25.5803 6.78476 25.2276C7.15115 25.0128 7.77145 24.5169 7.80553 23.6052C7.85665 22.1806 6.28886 21.3626 5.87476 21.17Z" fill="#6B184E"/>
<g opacity="0.3">
<path d="M32.8064 22.2753C32.6564 22.3929 31.818 23.0438 30.5962 23.7527C30.3167 23.3046 30.0202 22.899 29.71 22.5547C29.6214 22.4542 32.5031 22.3622 32.8064 22.2753Z" fill="#6B184E"/>
</g>
<g opacity="0.3">
<path d="M32.8062 22.2764C32.8208 22.264 32.8287 22.2578 32.8298 22.2578C32.8354 22.2634 32.8275 22.2696 32.8062 22.2764Z" fill="#6B184E"/>
</g>
<g opacity="0.3">
<path d="M33.9803 23.3752C32.8283 25.5513 30.3863 27.7752 22.0003 27.8025C14.5227 27.7786 11.854 26.0063 10.4839 24.0807C10.8247 24.2545 11.128 24.3806 11.3922 24.4743C11.8779 24.6481 12.2323 24.7061 12.4573 24.7231C12.6635 24.292 12.868 23.9324 13.0656 23.6972C13.3417 23.3684 13.5189 23.1775 13.5189 23.1775C13.8314 23.3729 14.1387 23.5575 14.4409 23.7313C17.6259 25.5547 20.119 25.6263 23.9908 25.7882C26.3714 25.8853 28.8663 24.7606 30.5942 23.7535C30.7783 24.0466 30.9555 24.3584 31.1259 24.6805C31.3117 24.6464 31.54 24.5885 31.811 24.4948C32.358 24.3073 33.0805 23.9716 33.9803 23.3752Z" fill="#6B184E"/>
</g>
<path d="M21.8968 25.6297C31.5848 25.5991 34.0523 23.1434 35.2452 20.8684C36.692 18.1026 36.8812 9.97566 33.3997 5.86872C29.9181 1.76179 21.8968 1.65784 21.8968 1.65784C21.8968 1.65784 13.8772 1.76179 10.3957 5.86872C6.91417 9.97566 6.98404 18.1674 8.55013 20.8684C9.87083 23.1434 12.2106 25.5991 21.8968 25.6297Z" fill="#FCCACA"/>
<g opacity="0.5">
<path d="M35.5417 9.87162C35.1123 8.8287 34.5653 7.86928 33.8785 7.05982C31.8779 4.70132 28.4372 3.61238 25.7567 3.10966C25.9049 3.23747 25.9884 3.38062 25.9884 3.53399C25.9884 4.05545 25.0273 4.47637 23.8429 4.47637C22.6586 4.47637 21.6974 4.05545 21.6974 3.53399C21.6974 3.18805 22.1252 2.88472 22.7608 2.72112C22.2257 2.68363 21.9104 2.68023 21.9104 2.68023C21.9104 2.68023 13.5654 2.78759 9.94239 7.05982C9.23859 7.88973 8.67623 8.87812 8.23486 9.95513C8.69838 8.32598 9.4056 6.80761 10.4076 5.62495C13.8891 1.51801 21.9087 1.41406 21.9087 1.41406C21.9087 1.41406 29.9283 1.51801 33.4116 5.62495C34.3983 6.78886 35.0901 8.27656 35.5417 9.87162Z" fill="white"/>
</g>
<path d="M35.4844 19.9589C35.4844 22.055 33.7837 23.754 31.6877 23.754C29.5916 23.754 27.8926 22.055 27.8926 19.9589C27.8926 17.8628 29.5916 16.1638 31.6877 16.1638C33.7837 16.1638 35.4844 17.8628 35.4844 19.9589Z" fill="#FF6982"/>
<path d="M16.2137 19.9579C16.2137 22.054 14.5147 23.753 12.4186 23.753C10.3225 23.753 8.62354 22.054 8.62354 19.9579C8.62354 17.8619 10.3225 16.1628 12.4186 16.1628C14.5147 16.1628 16.2137 17.8619 16.2137 19.9579Z" fill="#FF6982"/>
<g opacity="0.3">
<path d="M35.3253 20.88C34.1324 23.155 31.6632 25.6107 21.9769 25.6414C12.2907 25.6107 9.95094 23.155 8.63024 20.88C7.88895 19.6037 7.48337 17.1003 7.62822 14.3822C7.73047 16.2193 8.09174 17.7973 8.63024 18.726C9.95094 21.001 12.2907 23.4567 21.9769 23.4873C31.6632 23.4567 34.1324 21.001 35.3253 18.726C35.8263 17.7666 36.1774 16.1613 36.2762 14.3038C36.4177 17.0355 36.0138 19.5645 35.3253 20.88Z" fill="#6B184E"/>
</g>
<path d="M10.1794 30.1625L10.1722 30.1768C10.1704 30.1768 10.1704 30.1768 10.1704 30.1768C10.1728 30.172 10.1758 30.1672 10.1794 30.1625Z" fill="#FCCACA"/>
<g opacity="0.3">
<path d="M7.00213 22.758C5.9149 21.8361 4.86857 21.7287 4.86857 21.7287L4.8396 21.6214C5.49739 21.3419 6.40739 21.4748 7.44009 22.3371C10.1701 24.6172 11.5879 24.5678 12.1656 24.365C12.1418 24.4519 12.06 24.6292 12.06 24.6292C12.06 24.6292 8.93631 24.3957 7.00213 22.758Z" fill="white"/>
</g>
<g opacity="0.3">
<path d="M10.3291 30.217C8.07451 29.5677 5.32235 26.8718 4.11242 24.394C3.62334 23.3937 3.41373 23.3119 4.04256 22.7069C4.08857 23.3323 5.04799 24.832 6.61237 26.1612C9.01518 28.2027 10.5574 28.4856 10.5267 29.5984C10.5182 29.9511 10.3308 30.1931 10.3291 30.217Z" fill="#6B184E"/>
</g>
<path d="M10.1723 30.4315C10.1434 30.4315 10.1144 30.4264 10.0854 30.4162C8.7136 29.9237 7.4338 29.0733 6.28011 27.8906C5.30535 26.8937 4.4567 25.6804 3.82447 24.3853C3.76142 24.2592 3.81425 24.1058 3.94206 24.0444C4.06816 23.9814 4.22153 24.0342 4.28288 24.162C4.89125 25.4077 5.70923 26.5751 6.64479 27.5345C7.74566 28.6609 8.9607 29.4687 10.2592 29.9356C10.3905 29.9833 10.4603 30.1299 10.4126 30.2628C10.3751 30.3667 10.2763 30.4315 10.1723 30.4315Z" fill="#6B184E"/>
<path d="M12.487 24.7674C11.9468 24.7674 10.8033 24.5902 9.0259 23.4552C8.50274 23.1212 7.95401 22.7225 7.39335 22.2709C7.28429 22.1823 7.26725 22.0221 7.35586 21.9113C7.44448 21.8022 7.60466 21.7852 7.71543 21.8738C8.26075 22.3135 8.79414 22.7003 9.30027 23.0258C11.6008 24.493 12.7017 24.2425 12.7136 24.2391C12.8482 24.2016 12.9897 24.28 13.0272 24.4164C13.0664 24.5527 12.9863 24.6941 12.8517 24.7316C12.8363 24.735 12.7153 24.7674 12.487 24.7674Z" fill="#6B184E"/>
<g opacity="0.3">
<path d="M36.2592 22.7579C37.3464 21.836 38.3928 21.7286 38.3928 21.7286L38.4217 21.6213C37.7639 21.3418 36.8539 21.4747 35.8212 22.337C33.0912 24.6171 31.6734 24.5677 31.0957 24.3649C31.1213 24.4518 31.2014 24.629 31.2014 24.629C31.2014 24.629 34.325 24.3956 36.2592 22.7579Z" fill="white"/>
</g>
<g opacity="0.3">
<path d="M32.932 30.2177C35.1866 29.5684 37.9387 26.8725 39.1487 24.3947C39.6377 23.3944 39.8473 23.3126 39.2185 22.7076C39.1725 23.3331 38.2131 24.8327 36.6487 26.1619C34.2459 28.2034 32.7037 28.4863 32.7343 29.5991C32.7429 29.9519 32.9303 30.1939 32.932 30.2177Z" fill="#6B184E"/>
</g>
<path d="M33.09 30.4319C32.9861 30.4319 32.8872 30.3671 32.8497 30.2632C32.802 30.1302 32.8719 29.9837 33.0031 29.936C34.3017 29.469 35.5167 28.6613 36.6176 27.5348C37.5531 26.5754 38.3711 25.4081 38.9795 24.1624C39.0408 24.0346 39.1942 23.9818 39.3203 24.0448C39.4481 24.1062 39.5009 24.2595 39.4379 24.3856C38.8057 25.6808 37.957 26.8941 36.9822 27.891C35.8286 29.0737 34.5488 29.9223 33.1769 30.4165C33.148 30.4267 33.119 30.4319 33.09 30.4319Z" fill="#6B184E"/>
<path d="M30.7291 24.8592C30.6081 24.8592 30.5365 24.8473 30.5109 24.8421C30.3729 24.8149 30.2826 24.6803 30.3116 24.5422C30.3388 24.4042 30.4718 24.3156 30.6081 24.3411C30.6353 24.3462 31.6732 24.486 33.9601 23.0256C34.4662 22.7018 34.9996 22.3132 35.5449 21.8736C35.6557 21.7849 35.8159 21.802 35.9045 21.9111C35.9931 22.0218 35.9761 22.182 35.867 22.2706C35.3063 22.7222 34.7576 23.121 34.2345 23.455C32.2866 24.699 31.1739 24.8592 30.7291 24.8592Z" fill="#6B184E"/>
<path d="M9.4926 32.1652C9.46023 32.1652 9.42785 32.1601 9.39717 32.1482C9.26596 32.0953 9.2029 31.9471 9.25573 31.8159C10.4776 28.7536 11.7318 26.7018 11.7438 26.6813C11.817 26.5604 11.9755 26.5229 12.0948 26.5978C12.2158 26.6711 12.2533 26.8279 12.1783 26.9489C12.1664 26.9693 10.9343 28.987 9.72948 32.005C9.68858 32.1056 9.59315 32.1652 9.4926 32.1652Z" fill="#6B184E"/>
<path d="M33.7989 32.165C33.6966 32.165 33.6012 32.1053 33.5603 32.0048C32.3555 28.9868 31.1234 26.9691 31.1115 26.9486C31.0382 26.8277 31.0757 26.6709 31.195 26.5976C31.3159 26.5226 31.4727 26.5601 31.546 26.6811C31.5596 26.7016 32.8122 28.7533 34.0357 31.8156C34.0869 31.9468 34.0238 32.0951 33.8926 32.1479C33.8619 32.1599 33.8295 32.165 33.7989 32.165Z" fill="#6B184E"/>
<path d="M23.5252 19.8673C23.5252 20.1212 23.4741 20.457 23.3821 20.8148C23.1281 21.8015 22.5641 22.9501 21.908 22.9501C21.2536 22.9501 20.6895 21.8032 20.4356 20.8165C20.3436 20.457 20.2908 20.1212 20.2908 19.8673C20.2908 19.7088 20.3112 19.593 20.3504 19.5095C20.4305 19.3339 20.5924 19.3084 20.8105 19.339C21.0985 19.3765 21.4854 19.5095 21.908 19.5095C22.3323 19.5095 22.7157 19.3765 23.0054 19.339C23.2236 19.3084 23.3872 19.3322 23.4673 19.5112C23.5065 19.5947 23.5252 19.7105 23.5252 19.8673Z" fill="#6B184E"/>
<path d="M23.0115 20.1625C23.0115 20.304 22.9894 20.4829 22.9451 20.6772C22.9263 20.7607 22.8667 20.8305 22.7849 20.8595C22.5429 20.943 22.2396 20.9924 21.9107 20.9924C21.5818 20.9924 21.2784 20.943 21.0382 20.8595C20.9564 20.8322 20.895 20.7607 20.8763 20.6772C20.8337 20.4829 20.8098 20.304 20.8098 20.1625C20.8098 20.0552 20.8234 19.9768 20.8507 19.9205C20.941 19.8745 21.0484 19.8353 21.1643 19.803C21.3824 19.7433 21.6363 19.7092 21.9107 19.7092C22.185 19.7092 22.439 19.7433 22.6571 19.803C22.7747 19.8353 22.8803 19.8745 22.9723 19.9205C22.9979 19.9768 23.0115 20.0552 23.0115 20.1625Z" fill="white"/>
<path d="M25.265 18.1793C25.265 19.379 23.762 20.3521 21.9079 20.3521C20.0538 20.3521 18.5525 19.379 18.5525 18.1793C18.5525 16.9796 20.0538 15.5294 21.9079 15.5294C23.762 15.5294 25.265 16.9796 25.265 18.1793Z" fill="#FF6982"/>
<g opacity="0.5">
<path d="M18.6377 18.6054C18.6377 17.4057 20.139 15.9554 21.9931 15.9554C23.5831 15.9554 24.914 17.0222 25.2616 18.0822C25.1832 16.9029 23.7126 15.5294 21.9079 15.5294C20.0538 15.5294 18.5525 16.9796 18.5525 18.1793C18.5525 18.348 18.5832 18.5133 18.6394 18.6718C18.6377 18.6497 18.6377 18.6275 18.6377 18.6054Z" fill="white"/>
</g>
<g opacity="0.3">
<path d="M25.265 18.1794C25.265 19.3791 23.762 20.3521 21.9079 20.3521C20.0538 20.3521 18.5525 19.3791 18.5525 18.1794C18.5525 17.9357 18.6138 17.6818 18.728 17.4313C19.1779 18.2884 20.4321 18.907 21.9079 18.907C23.3837 18.907 24.6379 18.2884 25.0878 17.4313C25.2037 17.6818 25.265 17.9357 25.265 18.1794Z" fill="#6B184E"/>
</g>
<path fill-rule="evenodd" clip-rule="evenodd" d="M21.9084 20.6082C19.9163 20.6082 18.2974 19.5176 18.2974 18.1798C18.2974 16.3973 19.7817 15.1516 21.9084 15.1516C24.0351 15.1516 25.5211 16.3973 25.5211 18.1798C25.5211 19.5176 23.9005 20.6082 21.9084 20.6082ZM21.9084 15.6628C20.0833 15.6628 18.8069 16.6973 18.8069 18.1798C18.8069 19.2364 20.1992 20.097 21.9084 20.097C23.6193 20.097 25.0099 19.2364 25.0099 18.1798C25.0099 16.6973 23.7352 15.6628 21.9084 15.6628Z" fill="#6B184E"/>
<path d="M21.0087 18.0393C21.0087 18.5181 20.8502 18.9067 20.6543 18.9067C20.4566 18.9067 20.2981 18.5181 20.2981 18.0393C20.2981 17.5621 20.4566 17.1736 20.6543 17.1736C20.8502 17.1736 21.0087 17.5621 21.0087 18.0393Z" fill="#6B184E"/>
<path d="M23.5199 18.0393C23.5199 18.5181 23.3615 18.9067 23.1655 18.9067C22.9678 18.9067 22.8093 18.5181 22.8093 18.0393C22.8093 17.5621 22.9678 17.1736 23.1655 17.1736C23.3615 17.1736 23.5199 17.5621 23.5199 18.0393Z" fill="#6B184E"/>
<path d="M29.3536 13.5049C29.3536 15.2312 28.4385 16.6285 27.3086 16.6285C26.1805 16.6285 25.2654 15.2312 25.2654 13.5049C25.2654 11.7786 26.1805 10.3812 27.3086 10.3812C28.4385 10.3812 29.3536 11.7786 29.3536 13.5049Z" fill="#6B184E"/>
<path d="M18.554 13.5049C18.554 15.2312 17.6372 16.6285 16.5091 16.6285C15.3792 16.6285 14.4641 15.2312 14.4641 13.5049C14.4641 11.7786 15.3792 10.3812 16.5091 10.3812C17.6372 10.3812 18.554 11.7786 18.554 13.5049Z" fill="#6B184E"/>
<path fill-rule="evenodd" clip-rule="evenodd" d="M27.5062 15.3265V15.7508C27.5062 15.8446 27.4312 15.9195 27.3375 15.9195C27.2454 15.9195 27.1705 15.8446 27.1705 15.7508V15.3265C26.741 15.3044 26.3303 15.1765 26.0492 14.9891C25.9571 14.9277 25.9282 14.8085 25.9742 14.7079C26.0321 14.5869 26.1821 14.546 26.298 14.6159C26.5365 14.7607 26.8484 14.8613 27.1705 14.8817V13.6667C26.5945 13.5252 25.9861 13.3412 25.9861 12.6289C25.9861 12.1108 26.3593 11.6592 27.1705 11.5911V11.1616C27.1705 11.0696 27.2454 10.9946 27.3375 10.9946C27.4312 10.9946 27.5062 11.0696 27.5062 11.1616V11.586C27.818 11.5996 28.1316 11.6746 28.3872 11.8007C28.4929 11.8535 28.5389 11.9813 28.4929 12.0904C28.4434 12.2114 28.3037 12.2659 28.1861 12.2097C27.9629 12.104 27.7277 12.0444 27.5062 12.0324V13.2526C28.0924 13.3991 28.7212 13.5713 28.7212 14.2904C28.7212 14.8085 28.3327 15.2583 27.5062 15.3265ZM27.1705 13.1691V12.0376C26.7035 12.0938 26.499 12.3307 26.499 12.6084C26.499 12.9322 26.7939 13.0685 27.1705 13.1691ZM28.2083 14.3211C28.2083 13.9854 27.893 13.8541 27.5062 13.7502V14.8766C27.9936 14.8289 28.2083 14.604 28.2083 14.3211Z" fill="white"/>
<path fill-rule="evenodd" clip-rule="evenodd" d="M16.7043 15.3265V15.7508C16.7043 15.8446 16.6293 15.9195 16.5373 15.9195C16.4435 15.9195 16.3685 15.8446 16.3685 15.7508V15.3265C15.9408 15.3044 15.5301 15.1765 15.2472 14.9891C15.1569 14.9277 15.1262 14.8085 15.174 14.7079C15.2319 14.5869 15.3802 14.546 15.496 14.6159C15.7363 14.7607 16.0482 14.8613 16.3685 14.8817V13.6667C15.7926 13.5252 15.1859 13.3412 15.1859 12.6289C15.1859 12.1108 15.5574 11.6592 16.3685 11.5911V11.1616C16.3685 11.0696 16.4435 10.9946 16.5373 10.9946C16.6293 10.9946 16.7043 11.0696 16.7043 11.1616V11.586C17.0178 11.5996 17.3314 11.6746 17.5853 11.8007C17.6909 11.8535 17.737 11.9813 17.6926 12.0904C17.6415 12.2114 17.5018 12.2659 17.3842 12.2097C17.161 12.104 16.9275 12.0444 16.7043 12.0324V13.2526C17.2905 13.3991 17.9193 13.5713 17.9193 14.2904C17.9193 14.8085 17.5325 15.2583 16.7043 15.3265ZM16.3685 13.1691V12.0376C15.9033 12.0938 15.6988 12.3307 15.6988 12.6084C15.6988 12.9322 15.9919 13.0685 16.3685 13.1691ZM17.4064 14.3211C17.4064 13.9854 17.0928 13.8541 16.7043 13.7502V14.8766C17.1916 14.8289 17.4064 14.604 17.4064 14.3211Z" fill="white"/>
<path fill-rule="evenodd" clip-rule="evenodd" d="M21.9102 25.897H21.9085C17.4897 25.8833 14.2468 25.3721 11.9905 24.3343C9.9234 23.3834 8.98614 22.1189 8.34027 21.0078C7.50866 19.5747 7.11501 16.7799 7.33654 13.888C7.48651 11.9249 8.05909 8.25418 10.2114 5.71504C11.3787 4.33811 13.1561 3.22872 15.4925 2.41415C19.6301 0.972464 24.1886 0.972464 28.3262 2.41415C30.6626 3.22872 32.4383 4.33811 33.6056 5.71504C35.7409 8.23544 36.2964 11.9027 36.4361 13.8642C36.6406 16.7015 36.2657 19.5014 35.4818 20.9976C34.2225 23.4038 31.6254 25.8663 21.9102 25.897ZM21.9085 1.84327C19.792 1.84327 17.6755 2.19432 15.6595 2.89642C13.41 3.68031 11.7093 4.74028 10.6016 6.04564C8.54307 8.47401 7.99093 12.0254 7.84608 13.9272C7.63477 16.6794 8.01138 19.423 8.78335 20.7505C9.3866 21.7934 10.2659 22.9795 12.2052 23.8708C14.3916 24.8762 17.5664 25.3721 21.9085 25.3857C31.3527 25.3568 33.8408 23.0306 35.0302 20.7607C36.4225 18.0989 36.6151 10.0554 33.2153 6.04564C32.1094 4.74028 30.407 3.68031 28.1575 2.89642C26.1432 2.19432 24.025 1.84327 21.9085 1.84327Z" fill="#6B184E"/>
<path fill-rule="evenodd" clip-rule="evenodd" d="M37.6274 24.0287C37.9818 25.4772 38.9924 26.7553 39.5513 28.1288C37.8779 28.5208 36.2061 28.9127 34.5327 29.303C34.64 27.7778 35.6046 26.164 35.3489 24.6269C35.0848 23.0505 33.7028 21.7077 32.6343 20.6443C34.473 20.1706 36.2964 19.6338 38.1352 19.16C37.6444 20.7006 37.2303 22.4081 37.6274 24.0287ZM39.0571 27.8596C38.4999 26.6258 37.6768 25.4091 37.3649 24.0884C37.019 22.6228 37.3053 21.0959 37.6359 19.6593C36.1925 20.0496 34.7576 20.4739 33.3142 20.8659C34.2259 21.9071 35.3472 23.1443 35.5977 24.5655C35.8431 25.9476 35.1121 27.4676 34.8888 28.8377C36.2794 28.5123 37.6683 28.1851 39.0571 27.8596ZM34.652 20.8352C35.3728 20.6273 35.7341 20.5148 36.4549 20.3086C36.443 20.8267 36.7276 21.1777 37.0974 21.0755C36.9338 23.3488 37.3019 24.7785 38.2647 26.8013C37.8455 26.9002 37.67 27.3535 37.8097 27.8255C37.0923 27.9959 36.7583 28.0743 36.0408 28.2447C36.0476 27.7403 35.8125 27.3926 35.395 27.4915C36.0204 25.0631 35.8483 23.9588 34.4628 21.8525C34.8326 21.7503 34.9093 21.2885 34.652 20.8352Z" fill="#378700"/>
<path d="M37.8098 27.8261C37.0924 27.9965 36.7583 28.0749 36.0409 28.2453C36.0477 27.7409 35.8126 27.3932 35.395 27.4921C36.0205 25.0637 35.8483 23.9594 34.4629 21.8531C34.8327 21.7509 34.9094 21.2891 34.652 20.8358C35.3729 20.6279 35.7342 20.5154 36.455 20.3092C36.4431 20.8273 36.7277 21.1783 37.0975 21.0761C36.9339 23.3494 37.302 24.7791 38.2648 26.8019C37.8456 26.9007 37.67 27.354 37.8098 27.8261Z" fill="#D1DAC5"/>
<path d="M37.8098 27.8261C37.0924 27.9965 36.7583 28.0749 36.0409 28.2453C36.0477 27.7409 35.8126 27.3932 35.395 27.4921C36.0205 25.0637 35.8483 23.9594 34.4629 21.8531C34.8327 21.7509 34.9094 21.2891 34.652 20.8358C35.3729 20.6279 35.7342 20.5154 36.455 20.3092C36.4431 20.8273 36.7277 21.1783 37.0975 21.0761C36.9339 23.3494 37.302 24.7791 38.2648 26.8019C37.8456 26.9007 37.67 27.354 37.8098 27.8261Z" fill="#378700"/>
<path fill-rule="evenodd" clip-rule="evenodd" d="M37.805 23.9866C38.185 25.5084 39.2535 26.8001 39.7903 28.2708C37.9862 28.6923 36.1821 29.1143 34.378 29.5369C34.3848 27.8976 35.4329 26.2957 35.1721 24.67C34.9029 22.9914 33.4339 21.6264 32.2717 20.5324C34.3303 20.0416 36.3497 19.4025 38.4083 18.9117C37.8272 20.5221 37.3739 22.2723 37.805 23.9866ZM39.3029 27.9913C38.744 26.7013 37.7999 25.4453 37.4693 24.0667C37.1012 22.5381 37.4659 20.8868 37.8749 19.4145C36.2372 19.8337 34.6251 20.3415 32.9875 20.7573C33.9827 21.8207 35.2045 23.092 35.4636 24.5984C35.7106 26.0452 34.8995 27.6215 34.7086 29.0666C36.2406 28.7087 37.7709 28.3492 39.3029 27.9913Z" fill="#6B184E"/>
<path fill-rule="evenodd" clip-rule="evenodd" d="M37.3659 24.0897C37.6777 25.4104 38.5008 26.6271 39.0581 27.8609C37.6692 28.1864 36.2804 28.5136 34.8898 28.839C35.113 27.4689 35.8441 25.9489 35.5987 24.5668C35.3482 23.1456 34.2269 21.9084 33.3152 20.8672C34.7586 20.4752 36.1934 20.0509 37.6368 19.6606C37.3062 21.0972 37.0199 22.6241 37.3659 24.0897ZM36.0418 28.246C36.7592 28.0756 37.0932 27.9972 37.8107 27.8268C37.6709 27.3548 37.8464 26.9015 38.2657 26.8026C37.3028 24.7798 36.9347 23.3501 37.0983 21.0768C36.7285 21.179 36.444 20.828 36.4559 20.3099C35.735 20.5161 35.3738 20.6286 34.6529 20.8365C34.9102 21.2898 34.8336 21.7516 34.4638 21.8538C35.8492 23.9601 36.0213 25.0644 35.3959 27.4928C35.8134 27.394 36.0486 27.7416 36.0418 28.246Z" fill="#D1DAC5"/>
<path fill-rule="evenodd" clip-rule="evenodd" d="M36.2117 24.6038C36.1606 24.6175 36.1316 24.6243 36.0686 24.6413C36.0532 24.5135 36.0413 24.4522 36.0004 24.3295C36.0634 24.3124 36.0907 24.3056 36.1401 24.292C36.0498 23.9869 35.9765 23.6836 35.9663 23.4978C36.0498 23.549 36.0873 23.5762 36.1572 23.6291C36.1691 23.7978 36.2134 24.0295 36.2731 24.2545C36.3344 24.2357 36.36 24.2289 36.4094 24.2119C36.3429 23.8591 36.2748 23.4518 36.423 23.4058C36.5338 23.3734 36.6735 23.6035 36.7724 24.1045C36.8235 24.0892 36.8507 24.0824 36.9138 24.0653C36.9325 24.1948 36.9496 24.2562 36.9888 24.3772C36.9257 24.3942 36.8985 24.401 36.849 24.4147C36.9104 24.6481 36.9547 24.8765 36.9615 25.0571C36.8831 25.0128 36.8473 24.989 36.7843 24.9412C36.7758 24.7742 36.7485 24.6089 36.7127 24.4539C36.6514 24.4726 36.6241 24.4794 36.573 24.4965C36.6309 24.8475 36.6531 25.2429 36.498 25.2855C36.3838 25.3178 36.2952 25.0963 36.2117 24.6038ZM36.5201 24.1778C36.5645 24.1642 36.5866 24.1573 36.6377 24.142C36.5968 23.9767 36.5576 23.9171 36.5287 23.9256C36.498 23.9341 36.5014 24.0363 36.5201 24.1778ZM36.4401 24.7742C36.4707 24.7657 36.4741 24.6686 36.4605 24.5305C36.4179 24.5442 36.3957 24.551 36.3463 24.5646C36.3804 24.7197 36.4111 24.7828 36.4401 24.7742Z" fill="#D1DAC5"/>
<path fill-rule="evenodd" clip-rule="evenodd" d="M39.2488 27.7819C37.7168 28.5607 36.1848 29.3378 34.6511 30.1166C34.5284 28.5419 35.5219 26.4544 34.8794 24.9565C34.2404 23.4671 32.0949 22.6167 30.7827 21.9214C32.4238 20.6519 34.4364 19.8884 36.2853 18.9835C36.0348 22.5877 37.5447 24.7809 39.2488 27.7819ZM38.7239 27.6217C37.2158 24.9258 35.9547 22.7513 35.8985 19.5868C34.4108 20.3042 32.8413 20.9552 31.4899 21.918C32.6862 22.6235 34.4943 23.479 35.0924 24.8423C35.6821 26.1885 34.9595 28.1176 34.9084 29.5627C36.1797 28.9168 37.4509 28.2693 38.7239 27.6217ZM32.8583 21.4664C33.586 21.054 33.9967 20.8615 34.7652 20.4917C34.8948 20.9995 35.3276 21.2739 35.6991 21.0898C36.0808 23.1995 36.909 24.7673 37.8616 26.6606C37.4782 26.8566 37.3402 27.3951 37.5344 27.8637C36.8784 28.1994 36.5716 28.3545 35.9155 28.6902C35.8559 28.1568 35.6207 27.8177 35.2373 28.0137C35.6752 25.1456 35.3464 24.2595 32.993 22.54C33.3287 22.3168 33.2673 21.8447 32.8583 21.4664Z" fill="#378700"/>
<path d="M37.5335 27.864C36.8774 28.1997 36.5707 28.3548 35.9146 28.6905C35.855 28.1571 35.6198 27.818 35.2364 28.0139C35.6743 25.1459 35.3454 24.2598 32.992 22.5403C33.3278 22.3171 33.2664 21.845 32.8574 21.4667C33.5851 21.0543 33.9958 20.8617 34.7643 20.4919C34.8938 20.9998 35.3267 21.2741 35.6982 21.0901C36.0799 23.1998 36.9081 24.7676 37.8607 26.6609C37.4773 26.8568 37.3393 27.3953 37.5335 27.864Z" fill="#D1DAC5"/>
<path d="M37.5335 27.864C36.8774 28.1997 36.5707 28.3548 35.9146 28.6905C35.855 28.1571 35.6198 27.818 35.2364 28.0139C35.6743 25.1459 35.3454 24.2598 32.992 22.5403C33.3278 22.3171 33.2664 21.845 32.8574 21.4667C33.5851 21.0543 33.9958 20.8617 34.7643 20.4919C34.8938 20.9998 35.3267 21.2741 35.6982 21.0901C36.0799 23.1998 36.9081 24.7676 37.8607 26.6609C37.4773 26.8568 37.3393 27.3953 37.5335 27.864Z" fill="#378700"/>
<path fill-rule="evenodd" clip-rule="evenodd" d="M39.5119 27.8642C37.8601 28.7026 36.2082 29.541 34.5563 30.3795C34.2837 28.6907 35.3931 26.6338 34.7199 25.0387C34.057 23.4692 31.8127 22.6359 30.4307 21.9304C32.1876 20.487 34.4694 19.6588 36.4956 18.6755C36.0645 22.5064 37.7652 24.6775 39.5119 27.8642ZM38.9837 27.7006C37.3647 24.8598 35.9861 22.6785 36.0849 19.2907C34.4234 20.09 32.6341 20.804 31.1447 21.9151C32.3853 22.6052 34.4132 23.4675 35.0267 24.882C35.6436 26.2998 34.7506 28.3601 34.7762 29.8375C36.1787 29.1252 37.5812 28.4112 38.9837 27.7006Z" fill="#6B184E"/>
<path fill-rule="evenodd" clip-rule="evenodd" d="M38.7257 27.6221C37.4527 28.2697 36.1814 28.9172 34.9102 29.5631C34.9613 28.118 35.6838 26.1889 35.0942 24.8427C34.4961 23.4794 32.688 22.6239 31.4917 21.9184C32.8431 20.9556 34.4126 20.3046 35.9003 19.5872C35.9565 22.7517 37.2176 24.9262 38.7257 27.6221ZM35.9173 28.6906C36.5734 28.3549 36.8801 28.1998 37.5362 27.8641C37.342 27.3954 37.48 26.8569 37.8634 26.661C36.9108 24.7677 36.0826 23.1999 35.7009 21.0902C35.3294 21.2742 34.8965 20.9999 34.767 20.492C33.9985 20.8618 33.5878 21.0544 32.8601 21.4668C33.2691 21.8451 33.3304 22.3172 32.9947 22.5404C35.3481 24.2599 35.677 25.146 35.2391 28.014C35.6225 27.8181 35.8577 28.1572 35.9173 28.6906Z" fill="#D1DAC5"/>
<path fill-rule="evenodd" clip-rule="evenodd" d="M35.7108 24.7299C35.6648 24.7555 35.6392 24.7691 35.5813 24.8015C35.5404 24.6771 35.5131 24.6208 35.4381 24.5084C35.4944 24.4777 35.5182 24.4641 35.5642 24.4385C35.387 24.1573 35.2149 23.8795 35.1433 23.7006C35.2456 23.7296 35.2933 23.7466 35.3836 23.7824C35.4466 23.9443 35.5642 24.1607 35.6852 24.3703C35.7398 24.3379 35.7636 24.3243 35.8096 24.297C35.646 23.963 35.4552 23.5796 35.6 23.5029C35.7091 23.445 35.9187 23.6376 36.1385 24.1079C36.1845 24.0823 36.2101 24.0687 36.268 24.038C36.3175 24.159 36.3498 24.2135 36.4129 24.326C36.3549 24.3567 36.3311 24.3703 36.2851 24.3959C36.3941 24.6123 36.4725 24.839 36.5032 25.0281C36.4231 24.9974 36.3856 24.9804 36.3174 24.9446C36.2851 24.7742 36.2305 24.6123 36.1624 24.4658C36.1061 24.4981 36.084 24.5118 36.0363 24.539C36.1675 24.8747 36.2357 25.2888 36.0959 25.3672C35.9937 25.4252 35.8965 25.1985 35.7108 24.7299ZM35.9102 24.2374C35.9494 24.2152 35.9698 24.2033 36.0158 24.1761C35.934 24.0227 35.8778 23.9716 35.8505 23.9869C35.8233 24.0039 35.8539 24.1011 35.9102 24.2374ZM35.963 24.8509C35.992 24.8338 35.9783 24.735 35.9357 24.6004C35.8982 24.6225 35.8778 24.6345 35.8318 24.66C35.8982 24.8066 35.9374 24.8645 35.963 24.8509Z" fill="#D1DAC5"/>
<path fill-rule="evenodd" clip-rule="evenodd" d="M37.2239 23.6754C37.7249 25.0796 38.8615 26.2486 39.5585 27.5574C37.9345 28.118 36.3104 28.6787 34.6847 29.2393C34.637 27.709 35.4311 26.0049 35.0187 24.5036C34.5961 22.9613 33.0845 21.7668 31.9121 20.8193C33.6929 20.1598 35.4516 19.4389 37.2324 18.7811C36.9018 20.3643 36.6632 22.1042 37.2239 23.6754ZM39.0387 27.3392C38.3588 26.1702 37.4147 25.0421 36.9699 23.7606C36.4775 22.3393 36.6053 20.7903 36.7876 19.3282C35.3902 19.865 34.0082 20.4324 32.6108 20.9692C33.6248 21.9116 34.8654 23.0295 35.2607 24.4167C35.6458 25.768 35.075 27.3529 34.9932 28.7383C36.3411 28.2731 37.6891 27.8062 39.0387 27.3392ZM33.9383 20.8022C34.6336 20.5227 34.9829 20.3745 35.6782 20.095C35.7191 20.6114 36.0395 20.9317 36.3957 20.792C36.4655 23.0704 36.9768 24.4542 38.1424 26.3679C37.7351 26.5093 37.6073 26.978 37.7947 27.4347C37.0978 27.6766 36.774 27.7891 36.0787 28.0311C36.0327 27.5284 35.7634 27.208 35.3578 27.3495C35.7328 24.8683 35.4482 23.7878 33.8548 21.8349C34.211 21.6952 34.2416 21.2265 33.9383 20.8022Z" fill="#378700"/>
<path d="M37.7934 27.4349C37.0965 27.6769 36.7727 27.7893 36.0774 28.0313C36.0314 27.5286 35.7621 27.2082 35.3566 27.3497C35.7315 24.8685 35.4469 23.788 33.8535 21.8351C34.2097 21.6954 34.2403 21.2268 33.937 20.8024C34.6323 20.5229 34.9816 20.3747 35.6769 20.0952C35.7178 20.6116 36.0382 20.9319 36.3944 20.7922C36.4642 23.0706 36.9755 24.4544 38.1411 26.3681C37.7338 26.5095 37.606 26.9782 37.7934 27.4349Z" fill="#D1DAC5"/>
<path d="M37.7934 27.4349C37.0965 27.6769 36.7727 27.7893 36.0774 28.0313C36.0314 27.5286 35.7621 27.2082 35.3566 27.3497C35.7315 24.8685 35.4469 23.788 33.8535 21.8351C34.2097 21.6954 34.2403 21.2268 33.937 20.8024C34.6323 20.5229 34.9816 20.3747 35.6769 20.0952C35.7178 20.6116 36.0382 20.9319 36.3944 20.7922C36.4642 23.0706 36.9755 24.4544 38.1411 26.3681C37.7338 26.5095 37.606 26.9782 37.7934 27.4349Z" fill="#378700"/>
<path fill-rule="evenodd" clip-rule="evenodd" d="M37.3981 23.6154C37.9332 25.0912 39.1278 26.2653 39.8111 27.6729C38.0593 28.2773 36.308 28.8817 34.5573 29.4861C34.3971 27.8553 35.2748 26.1546 34.8487 24.5629C34.4108 22.9218 32.8106 21.7136 31.5427 20.744C33.54 20.0453 35.4827 19.2035 37.4799 18.5048C37.0675 20.1663 36.7948 21.9522 37.3981 23.6154ZM39.2982 27.4446C38.6097 26.2193 37.5429 25.0656 37.0726 23.7279C36.5511 22.2453 36.7454 20.565 37.001 19.0586C35.4162 19.6431 33.8637 20.3128 32.2772 20.8939C33.3764 21.85 34.7209 22.9917 35.1316 24.4624C35.5253 25.8768 34.8794 27.5281 34.8385 28.9851C36.3245 28.4722 37.8105 27.9575 39.2982 27.4446Z" fill="#6B184E"/>
<path fill-rule="evenodd" clip-rule="evenodd" d="M36.9707 23.761C37.4155 25.0425 38.3596 26.1707 39.0395 27.3397C37.6899 27.8066 36.3419 28.2736 34.9939 28.7388C35.0757 27.3533 35.6466 25.7685 35.2615 24.4171C34.8661 23.03 33.6255 21.9121 32.6116 20.9697C34.009 20.4329 35.391 19.8654 36.7884 19.3286C36.606 20.7908 36.4782 22.3398 36.9707 23.761ZM36.0795 28.0316C36.7747 27.7896 37.0985 27.6771 37.7955 27.4351C37.6081 26.9784 37.7359 26.5098 38.1432 26.3683C36.9775 24.4546 36.4663 23.0709 36.3964 20.7925C36.0403 20.9322 35.7199 20.6118 35.679 20.0955C34.9837 20.3749 34.6344 20.5232 33.9391 20.8027C34.2424 21.227 34.2117 21.6956 33.8556 21.8354C35.4489 23.7883 35.7335 24.8687 35.3586 27.3499C35.7642 27.2085 36.0335 27.5289 36.0795 28.0316Z" fill="#D1DAC5"/>
<path fill-rule="evenodd" clip-rule="evenodd" d="M35.873 24.3916C35.8236 24.4103 35.7963 24.4206 35.735 24.4444C35.7077 24.3183 35.689 24.257 35.6361 24.1411C35.6958 24.1172 35.7213 24.107 35.7708 24.0883C35.6498 23.7951 35.5458 23.5003 35.5168 23.3163C35.6038 23.3589 35.6447 23.381 35.7196 23.4288C35.7486 23.5958 35.8168 23.8207 35.8986 24.0371C35.9582 24.0133 35.9821 24.003 36.0315 23.9826C35.9275 23.6384 35.8185 23.2396 35.9616 23.1782C36.0673 23.1339 36.2309 23.3504 36.3808 23.8377C36.4286 23.8173 36.4558 23.8071 36.5172 23.7849C36.5478 23.911 36.5717 23.9707 36.6228 24.0883C36.5632 24.1104 36.5359 24.1206 36.4882 24.1394C36.5734 24.3643 36.6416 24.5876 36.6654 24.7665C36.5836 24.7307 36.5461 24.7103 36.478 24.6694C36.4524 24.5041 36.4081 24.3422 36.357 24.1905C36.2973 24.2161 36.2718 24.2263 36.2224 24.2484C36.3161 24.591 36.3774 24.9829 36.2275 25.0409C36.1184 25.0835 36.0076 24.8738 35.873 24.3916ZM36.1371 23.9366C36.1798 23.9178 36.2002 23.9093 36.2496 23.8889C36.1917 23.7287 36.1474 23.6724 36.1201 23.6844C36.0894 23.698 36.1048 23.7968 36.1371 23.9366ZM36.1167 24.5381C36.1474 24.5262 36.1423 24.4291 36.1133 24.2927C36.0724 24.3115 36.0519 24.32 36.0025 24.3388C36.0536 24.4904 36.0894 24.5501 36.1167 24.5381Z" fill="#D1DAC5"/>
<path d="M38.4116 25.6842C37.4709 26.1682 35.2692 25.4507 35.2011 23.6137C35.1891 23.2729 35.2573 22.9644 35.3766 22.6883C35.8963 21.4784 37.3943 20.8888 37.3943 20.8888C38.064 21.2006 38.5156 21.6574 38.7985 22.1635C39.5738 23.5506 39.1001 25.3314 38.4116 25.6842Z" fill="#FCCACA"/>
<g opacity="0.5">
<path d="M38.7979 22.1635C37.1823 21.6983 35.969 22.2828 35.376 22.6883C35.8957 21.4784 37.3937 20.8888 37.3937 20.8888C38.0634 21.2006 38.515 21.6574 38.7979 22.1635Z" fill="white"/>
</g>
<g opacity="0.3">
<path d="M39.1115 24.3344C38.9803 24.8968 38.7162 25.3364 38.4111 25.4949C37.5386 25.9431 35.5772 25.3569 35.2466 23.801C36.3543 24.4946 38.0839 24.6957 39.0042 24.377C39.0405 24.3657 39.0763 24.3515 39.1115 24.3344Z" fill="#6B184E"/>
</g>
<path fill-rule="evenodd" clip-rule="evenodd" d="M37.7111 26.0874C37.2272 26.0874 36.6887 25.9425 36.22 25.6682C35.4293 25.2046 34.9777 24.4787 34.947 23.6215C34.8925 22.1526 36.1382 21.2545 36.8829 20.8506C37.1999 20.6785 37.585 20.6649 37.9122 20.8114C38.9824 21.292 39.5908 22.1986 39.6215 23.3625C39.6504 24.4242 39.1494 25.5915 38.5274 25.9119C38.2991 26.0294 38.0162 26.0874 37.7111 26.0874ZM37.4385 21.2204C37.3311 21.2204 37.2238 21.2477 37.1266 21.2988C36.4842 21.6481 35.414 22.4099 35.4566 23.6045C35.4907 24.5162 36.111 25.0121 36.4773 25.2268C37.0806 25.5796 37.8628 25.6784 38.2939 25.4569C38.6535 25.2711 39.1392 24.3901 39.1119 23.3761C39.0932 22.6979 38.8342 21.7845 37.7026 21.2766C37.6191 21.2392 37.5288 21.2204 37.4385 21.2204Z" fill="#6B184E"/>
<path fill-rule="evenodd" clip-rule="evenodd" d="M5.12682 19.1605C6.96557 19.6343 8.78727 20.1711 10.6277 20.6448C9.55924 21.7082 8.1772 23.051 7.91306 24.6273C7.65744 26.1645 8.62197 27.7783 8.72933 29.3035C7.05589 28.9132 5.38414 28.5213 3.71069 28.1293C4.26965 26.7558 5.28019 25.4777 5.63465 24.0292C6.03171 22.4086 5.61761 20.701 5.12682 19.1605ZM8.37317 28.8382C8.14993 27.4681 7.41886 25.948 7.66426 24.566C7.91476 23.1448 9.03608 21.9076 9.94778 20.8663C8.50439 20.4744 7.06952 20.0501 5.62613 19.6598C5.95673 21.0964 6.24302 22.6233 5.89708 24.0888C5.58523 25.4095 4.76214 26.6263 4.20489 27.8601C5.59375 28.1856 6.98261 28.5127 8.37317 28.8382ZM8.7992 21.853C7.41375 23.9593 7.24164 25.0636 7.86705 27.492C7.44954 27.3931 7.21437 27.7408 7.22119 28.2452C6.50375 28.0748 6.16974 27.9964 5.45231 27.826C5.59204 27.3539 5.41652 26.9006 4.99731 26.8018C5.96013 24.779 6.32823 23.3493 6.16463 21.076C6.53442 21.1782 6.81901 20.8272 6.80708 20.3091C7.52793 20.5153 7.8892 20.6278 8.61005 20.8357C8.35272 21.289 8.42941 21.7508 8.7992 21.853Z" fill="#378700"/>
<path d="M5.45183 27.8263C6.16926 27.9967 6.50327 28.0751 7.22071 28.2455C7.21389 27.7411 7.44906 27.3935 7.86657 27.4923C7.24116 25.0639 7.41327 23.9597 8.79872 21.8534C8.42893 21.7511 8.35224 21.2893 8.60957 20.836C7.88872 20.6281 7.52745 20.5156 6.8066 20.3094C6.81853 20.8275 6.53394 21.1786 6.16415 21.0763C6.32775 23.3496 5.95966 24.7794 4.99683 26.8022C5.41604 26.901 5.59156 27.3543 5.45183 27.8263Z" fill="#D1DAC5"/>
<path d="M5.45183 27.8263C6.16926 27.9967 6.50327 28.0751 7.22071 28.2455C7.21389 27.7411 7.44906 27.3935 7.86657 27.4923C7.24116 25.0639 7.41327 23.9597 8.79872 21.8534C8.42893 21.7511 8.35224 21.2893 8.60957 20.836C7.88872 20.6281 7.52745 20.5156 6.8066 20.3094C6.81853 20.8275 6.53394 21.1786 6.16415 21.0763C6.32775 23.3496 5.95966 24.7794 4.99683 26.8022C5.41604 26.901 5.59156 27.3543 5.45183 27.8263Z" fill="#378700"/>
<path fill-rule="evenodd" clip-rule="evenodd" d="M4.85421 18.9121C6.91279 19.4029 8.93218 20.0419 10.9908 20.5327C9.82854 21.6268 8.35959 22.9918 8.09034 24.6703C7.82961 26.2961 8.87764 27.8979 8.88446 29.5373C7.08036 29.1147 5.27627 28.6926 3.47217 28.2712C4.00897 26.8005 5.07745 25.5088 5.45747 23.987C5.88861 22.2726 5.43532 20.5225 4.85421 18.9121ZM8.55386 29.067C8.363 27.6219 7.55184 26.0456 7.79894 24.5988C8.05796 23.0923 9.27982 21.821 10.275 20.7577C8.63736 20.3419 7.02526 19.834 5.3876 19.4148C5.79489 20.8872 6.16127 22.5385 5.79318 24.0671C5.46258 25.4457 4.5185 26.7017 3.95955 27.9917C5.49155 28.3495 7.02185 28.7091 8.55386 29.067Z" fill="#6B184E"/>
<path fill-rule="evenodd" clip-rule="evenodd" d="M5.62583 19.6602C7.06922 20.0504 8.50409 20.4747 9.94748 20.8667C9.03578 21.9079 7.91446 23.1451 7.66396 24.5663C7.41856 25.9484 8.14963 27.4684 8.37287 28.8386C6.98231 28.5131 5.59345 28.1859 4.20459 27.8604C4.76184 26.6266 5.58493 25.4099 5.89678 24.0892C6.24272 22.6236 5.95643 21.0967 5.62583 19.6602ZM7.86675 27.4923C7.24134 25.0639 7.41345 23.9597 8.7989 21.8534C8.42911 21.7511 8.35242 21.2893 8.60975 20.836C7.8889 20.6281 7.52763 20.5156 6.80678 20.3094C6.81871 20.8275 6.53413 21.1785 6.16433 21.0763C6.32793 23.3496 5.95984 24.7793 4.99701 26.8021C5.41622 26.901 5.59174 27.3543 5.45201 27.8263C6.16944 27.9967 6.50345 28.0751 7.22089 28.2455C7.21407 27.7411 7.44924 27.3935 7.86675 27.4923Z" fill="#D1DAC5"/>
<path fill-rule="evenodd" clip-rule="evenodd" d="M6.76496 25.2853C6.60988 25.2427 6.63203 24.8474 6.68997 24.4963C6.63885 24.4793 6.61159 24.4725 6.55024 24.4537C6.51445 24.6088 6.48719 24.7741 6.47866 24.9411C6.41561 24.9888 6.37983 25.0127 6.30144 25.057C6.30825 24.8764 6.35256 24.648 6.41391 24.4145C6.36449 24.4009 6.33722 24.3941 6.27417 24.3771C6.31336 24.2561 6.3304 24.1947 6.34915 24.0652C6.4122 24.0822 6.43947 24.0891 6.49059 24.1044C6.58943 23.6034 6.72917 23.3733 6.83994 23.4057C6.9882 23.4517 6.92003 23.859 6.85357 24.2118C6.90299 24.2288 6.92855 24.2356 6.9899 24.2544C7.04955 24.0294 7.09385 23.7976 7.10578 23.6289C7.17565 23.5761 7.21314 23.5488 7.29664 23.4977C7.28642 23.6835 7.21314 23.9868 7.12282 24.2918C7.17224 24.3055 7.19951 24.3123 7.26256 24.3293C7.22166 24.452 7.20973 24.5134 7.1944 24.6412C7.13134 24.6242 7.10237 24.6173 7.05125 24.6037C6.96775 25.0962 6.87913 25.3177 6.76496 25.2853ZM6.73428 23.9255C6.70531 23.9169 6.66612 23.9766 6.62522 24.1419C6.67634 24.1572 6.6985 24.164 6.7428 24.1777C6.76155 24.0362 6.76496 23.934 6.73428 23.9255ZM6.91662 24.5645C6.8672 24.5509 6.84505 24.5441 6.80245 24.5304C6.78881 24.6685 6.79222 24.7656 6.8229 24.7741C6.85187 24.7826 6.88254 24.7196 6.91662 24.5645Z" fill="#D1DAC5"/>
<path fill-rule="evenodd" clip-rule="evenodd" d="M6.97714 18.9832C8.82611 19.888 10.8387 20.6515 12.4798 21.9211C11.1676 22.6163 9.02209 23.4667 8.38304 24.9561C7.74059 26.454 8.73409 28.5416 8.60969 30.1162C7.07768 29.3374 5.54568 28.5603 4.01367 27.7815C5.7195 24.7806 7.22765 22.5874 6.97714 18.9832ZM8.35407 29.5623C8.30295 28.1172 7.5804 26.1882 8.17003 24.8419C8.76817 23.4786 10.5762 22.6232 11.7725 21.9177C10.4212 20.9548 8.85168 20.3038 7.36398 19.5864C7.30774 22.751 6.04669 24.9254 4.53854 27.6214C5.81152 28.2689 7.0828 28.9165 8.35407 29.5623ZM10.2695 22.5397C7.91611 24.2591 7.58722 25.1453 8.02518 28.0133C7.64175 27.8173 7.40658 28.1564 7.34694 28.6898C6.68914 28.3541 6.38411 28.199 5.72802 27.8633C5.92229 27.3947 5.78425 26.8562 5.40083 26.6602C6.35343 24.7669 7.18164 23.1992 7.56336 21.0894C7.93486 21.2735 8.36771 20.9991 8.49722 20.4913C9.26578 20.8611 9.67647 21.0537 10.4041 21.4661C9.99514 21.8444 9.93379 22.3164 10.2695 22.5397Z" fill="#378700"/>
<path d="M5.7288 27.8639C6.38489 28.1996 6.68993 28.3546 7.34772 28.6904C7.40737 28.157 7.64253 27.8178 8.02596 28.0138C7.588 25.1458 7.9169 24.2596 10.2703 22.5402C9.93458 22.3169 9.99593 21.8449 10.4049 21.4666C9.67725 21.0542 9.26656 20.8616 8.498 20.4918C8.36849 20.9996 7.93564 21.274 7.56414 21.09C7.18242 23.1997 6.35422 24.7675 5.40161 26.6607C5.78504 26.8567 5.92307 27.3952 5.7288 27.8639Z" fill="#D1DAC5"/>
<path d="M5.7288 27.8639C6.38489 28.1996 6.68993 28.3546 7.34772 28.6904C7.40737 28.157 7.64253 27.8178 8.02596 28.0138C7.588 25.1458 7.9169 24.2596 10.2703 22.5402C9.93458 22.3169 9.99593 21.8449 10.4049 21.4666C9.67725 21.0542 9.26656 20.8616 8.498 20.4918C8.36849 20.9996 7.93564 21.274 7.56414 21.09C7.18242 23.1997 6.35422 24.7675 5.40161 26.6607C5.78504 26.8567 5.92307 27.3952 5.7288 27.8639Z" fill="#378700"/>
<path fill-rule="evenodd" clip-rule="evenodd" d="M6.76996 18.6769C8.79616 19.6602 11.078 20.4884 12.8349 21.9318C11.4529 22.6373 9.20685 23.4706 8.54565 25.0401C7.87253 26.6351 8.98191 28.692 8.70925 30.3808C7.05739 29.5424 5.40552 28.7039 3.75366 27.8655C5.50039 24.6788 7.2011 22.5077 6.76996 18.6769ZM8.48942 29.8389C8.51498 28.3614 7.62202 26.3011 8.23891 24.8833C8.8524 23.4689 10.8803 22.6066 12.1209 21.9164C10.6332 20.8053 8.84217 20.0913 7.18065 19.2921C7.27949 22.6799 5.90086 24.8611 4.28194 27.7019C5.68443 28.4125 7.08693 29.1266 8.48942 29.8389Z" fill="#6B184E"/>
<path fill-rule="evenodd" clip-rule="evenodd" d="M7.36474 19.5867C8.85244 20.3041 10.4219 20.9551 11.7733 21.9179C10.577 22.6234 8.76894 23.4789 8.17079 24.8422C7.58117 26.1884 8.30371 28.1175 8.35484 29.5626C7.08356 28.9167 5.81229 28.2692 4.53931 27.6216C6.04746 24.9257 7.30851 22.7512 7.36474 19.5867ZM8.02594 28.0136C7.58798 25.1455 7.91688 24.2594 10.2703 22.5399C9.93456 22.3167 9.99591 21.8446 10.4049 21.4663C9.67724 21.0539 9.26654 20.8614 8.49798 20.4916C8.36847 20.9994 7.93562 21.2738 7.56412 21.0897C7.1824 23.1994 6.3542 24.7672 5.40159 26.6605C5.78502 26.8565 5.92306 27.395 5.72879 27.8636C6.38487 28.1993 6.68991 28.3544 7.3477 28.6901C7.40735 28.1567 7.64251 27.8176 8.02594 28.0136Z" fill="#D1DAC5"/>
<path fill-rule="evenodd" clip-rule="evenodd" d="M7.16876 25.3675C7.02902 25.2891 7.09719 24.875 7.2284 24.5393C7.18069 24.512 7.15854 24.4984 7.1023 24.466C7.03413 24.6126 6.9796 24.7744 6.94722 24.9449C6.87736 24.9806 6.84157 24.9977 6.76147 25.0284C6.79215 24.8392 6.87054 24.6126 6.9796 24.3961C6.93359 24.3706 6.90973 24.3569 6.85179 24.3263C6.91484 24.2138 6.94722 24.1593 6.99664 24.0383C7.05458 24.0689 7.08015 24.0826 7.12616 24.1081C7.34599 23.6378 7.5556 23.4452 7.66466 23.5032C7.80951 23.5799 7.61865 23.9633 7.45505 24.2973C7.50106 24.3246 7.52492 24.3382 7.57945 24.3706C7.70045 24.161 7.81803 23.9445 7.88108 23.7826C7.9714 23.7469 8.01912 23.7298 8.12136 23.7008C8.04979 23.8798 7.87767 24.1576 7.70045 24.4387C7.74646 24.4643 7.77032 24.4779 7.82655 24.5086C7.75157 24.6211 7.7243 24.6773 7.6834 24.8017C7.62546 24.7693 7.5999 24.7557 7.55389 24.7301C7.36814 25.1988 7.27271 25.4254 7.16876 25.3675ZM7.41415 23.9871C7.38689 23.9718 7.33065 24.0229 7.24885 24.1763C7.29486 24.2036 7.31531 24.2155 7.35451 24.2376C7.41074 24.1013 7.44312 24.0042 7.41415 23.9871ZM7.4329 24.6603C7.38689 24.6347 7.36644 24.6228 7.32895 24.6006C7.28634 24.7353 7.27271 24.8341 7.30168 24.8511C7.32724 24.8648 7.36644 24.8068 7.4329 24.6603Z" fill="#D1DAC5"/>
<path fill-rule="evenodd" clip-rule="evenodd" d="M6.03096 18.7809C7.81177 19.4387 9.57042 20.1595 11.3512 20.819C10.1788 21.7665 8.66724 22.9611 8.24462 24.5033C7.83222 26.0047 8.62634 27.7088 8.57862 29.2391C6.95289 28.6784 5.33057 28.1178 3.70483 27.5571C4.40182 26.2483 5.53847 25.0793 6.03948 23.6751C6.60014 22.1039 6.36156 20.364 6.03096 18.7809ZM8.27018 28.7381C8.18838 27.3526 7.6175 25.7678 8.00263 24.4164C8.39799 23.0293 9.63859 21.9114 10.6525 20.969C9.25516 20.4322 7.87312 19.8647 6.47574 19.3279C6.65808 20.79 6.78589 22.3391 6.2934 23.7603C5.84862 25.0418 4.90454 26.17 4.22459 27.339C5.57426 27.8042 6.92222 28.2728 8.27018 28.7381ZM9.40853 21.8347C7.81518 23.7876 7.53059 24.868 7.9055 27.3492C7.49991 27.2078 7.23066 27.5281 7.18636 28.0309C6.48937 27.7889 6.16559 27.6764 5.4686 27.4344C5.65605 26.9777 5.52824 26.5091 5.12096 26.3676C6.28658 24.4539 6.79782 23.0702 6.86768 20.7917C7.22385 20.9315 7.54422 20.6111 7.58512 20.0948C8.2804 20.3742 8.62975 20.5225 9.32503 20.802C9.0217 21.2263 9.05237 21.6949 9.40853 21.8347Z" fill="#378700"/>
<path d="M5.46898 27.4346C6.16597 27.6766 6.48975 27.7891 7.18674 28.0311C7.23104 27.5284 7.50029 27.208 7.90587 27.3494C7.53097 24.8682 7.81556 23.7878 9.40891 21.8349C9.05275 21.6951 9.02208 21.2265 9.32541 20.8022C8.63013 20.5227 8.28078 20.3744 7.5855 20.095C7.5446 20.6113 7.22423 20.9317 6.86806 20.792C6.79819 23.0704 6.28696 24.4541 5.12134 26.3678C5.52862 26.5093 5.65643 26.9779 5.46898 27.4346Z" fill="#D1DAC5"/>
<path d="M5.46898 27.4346C6.16597 27.6766 6.48975 27.7891 7.18674 28.0311C7.23104 27.5284 7.50029 27.208 7.90587 27.3494C7.53097 24.8682 7.81556 23.7878 9.40891 21.8349C9.05275 21.6951 9.02208 21.2265 9.32541 20.8022C8.63013 20.5227 8.28078 20.3744 7.5855 20.095C7.5446 20.6113 7.22423 20.9317 6.86806 20.792C6.79819 23.0704 6.28696 24.4541 5.12134 26.3678C5.52862 26.5093 5.65643 26.9779 5.46898 27.4346Z" fill="#378700"/>
<path fill-rule="evenodd" clip-rule="evenodd" d="M5.78607 18.5045C7.7833 19.2032 9.726 20.045 11.7249 20.7437C10.4554 21.7134 8.8552 22.9216 8.41724 24.5627C7.99121 26.1543 8.86883 27.855 8.70864 29.4859C6.95794 28.8815 5.20667 28.2771 3.45483 27.6727C4.13819 26.2651 5.33278 25.0892 5.86787 23.6152C6.47113 21.952 6.19847 20.166 5.78607 18.5045ZM8.42746 28.9849C8.38656 27.5278 7.7407 25.8766 8.13436 24.4621C8.54505 22.9915 9.8896 21.8497 10.9888 20.8937C9.40222 20.3126 7.84977 19.6429 6.26493 19.0584C6.52055 20.5648 6.71482 22.2451 6.19336 23.7277C5.72302 25.0654 4.65624 26.2191 3.96778 27.4443C5.45547 27.9573 6.94147 28.4719 8.42746 28.9849Z" fill="#6B184E"/>
<path fill-rule="evenodd" clip-rule="evenodd" d="M6.47453 19.328C7.87191 19.8648 9.25396 20.4323 10.6513 20.9691C9.63738 21.9115 8.39678 23.0294 8.00143 24.4165C7.6163 25.7679 8.18718 27.3527 8.26898 28.7382C6.92102 28.2729 5.57305 27.8043 4.22339 27.3391C4.90333 26.1701 5.84742 25.0419 6.29219 23.7604C6.78469 22.3392 6.65688 20.7901 6.47453 19.328ZM7.90429 27.3493C7.52939 24.8681 7.81397 23.7877 9.40733 21.8348C9.05117 21.695 9.02049 21.2264 9.32383 20.8021C8.62855 20.5226 8.2792 20.3743 7.58392 20.0949C7.54302 20.6112 7.22264 20.9316 6.86648 20.7918C6.79661 23.0703 6.28538 24.454 5.11976 26.3677C5.52704 26.5092 5.65485 26.9778 5.4674 27.4345C6.16438 27.6765 6.48817 27.789 7.18515 28.031C7.22946 27.5282 7.49871 27.2079 7.90429 27.3493Z" fill="#D1DAC5"/>
<path fill-rule="evenodd" clip-rule="evenodd" d="M7.03366 25.04C6.8837 24.9821 6.94505 24.5901 7.03877 24.2476C6.98936 24.2254 6.9638 24.2152 6.90415 24.1896C6.85303 24.3413 6.80872 24.5032 6.78316 24.6685C6.71499 24.7094 6.6775 24.7298 6.5957 24.7656C6.61956 24.5867 6.68773 24.3635 6.77293 24.1385C6.72522 24.1198 6.69795 24.1096 6.63831 24.0874C6.68943 23.9698 6.71329 23.9102 6.74396 23.7841C6.80531 23.8062 6.83258 23.8164 6.88029 23.8369C7.03026 23.3495 7.19385 23.1331 7.29951 23.1774C7.44265 23.2387 7.33359 23.6375 7.22964 23.9817C7.27906 24.0022 7.30291 24.0124 7.36256 24.0363C7.44436 23.8199 7.51252 23.5949 7.54149 23.4279C7.61647 23.3802 7.65737 23.358 7.74428 23.3154C7.71531 23.4995 7.61136 23.7943 7.49037 24.0874C7.53979 24.1061 7.56535 24.1164 7.62499 24.1402C7.57217 24.2561 7.55342 24.3175 7.52616 24.4436C7.46481 24.4197 7.43754 24.4095 7.38812 24.3907C7.25349 24.873 7.14273 25.0826 7.03366 25.04ZM7.14102 23.6835C7.11376 23.6716 7.06945 23.7278 7.01151 23.888C7.06093 23.9085 7.08138 23.917 7.12398 23.9357C7.15636 23.796 7.1717 23.6972 7.14102 23.6835ZM7.25861 24.3379C7.20919 24.3192 7.18874 24.3106 7.14784 24.2919C7.11887 24.4282 7.11376 24.5254 7.14443 24.5373C7.1717 24.5492 7.20748 24.4896 7.25861 24.3379Z" fill="#D1DAC5"/>
<path d="M5.8699 20.8888C5.8699 20.8888 8.12786 21.7766 8.0597 23.6137C7.99324 25.4507 5.79151 26.1682 4.85084 25.6842C3.91187 25.2002 3.36995 22.0561 5.8699 20.8888Z" fill="#FCCACA"/>
<path d="M33.0662 2.94211C33.0662 2.94211 35.0686 2.53482 35.4588 4.63771C35.8473 6.7406 32.1852 8.50607 29.9119 6.85989C27.6386 5.21541 28.7769 2.23831 29.4347 1.63505C29.8948 1.21413 32.1852 -0.17814 33.0662 2.94211Z" fill="#FCCACA"/>
<g opacity="0.5">
<path d="M34.7979 3.37076C34.3941 3.01801 33.8999 2.92428 33.5437 2.91235C33.5863 3.02823 33.6255 3.15263 33.663 3.28385C33.663 3.28385 34.2168 3.17138 34.7979 3.37076Z" fill="white"/>
</g>
<g opacity="0.5">
<path d="M30.5083 7.20078C28.235 5.5563 29.3734 2.5792 30.0312 1.97594C30.3141 1.71692 31.2905 1.0915 32.2039 1.37268C31.1644 0.450753 29.7824 1.31815 29.4347 1.63512C28.7769 2.23838 27.6386 5.21548 29.9119 6.85996C30.1044 6.9997 30.3055 7.11387 30.5151 7.2059C30.5129 7.20362 30.5106 7.20192 30.5083 7.20078Z" fill="white"/>
</g>
<g opacity="0.3">
<path d="M32.2622 2.64477C32.2384 3.53091 31.5567 5.08337 31.5022 5.15154C31.5721 5.07996 33.3682 2.51526 34.9854 3.94502C34.9871 3.94672 35.0774 3.61442 35.0774 3.61442C34.3924 2.47265 32.9916 2.94299 32.9916 2.94299C32.6661 1.79612 32.1532 1.25932 31.6096 1.05994C31.855 1.29851 32.2827 1.92563 32.2622 2.64477Z" fill="#6B184E"/>
</g>
<path fill-rule="evenodd" clip-rule="evenodd" d="M31.9801 7.76237C31.2234 7.76237 30.443 7.56129 29.7613 7.06879C28.8769 6.42804 28.3758 5.51293 28.3128 4.424C28.2361 3.12034 28.8155 1.85759 29.262 1.4486C29.5738 1.1623 30.61 0.484064 31.6427 0.777173C32.372 0.983372 32.9105 1.61901 33.2479 2.66364C33.5819 2.63807 34.2176 2.65512 34.7731 3.03002C35.2622 3.36062 35.5775 3.88549 35.7087 4.5927C35.8791 5.51293 35.3781 6.44338 34.3693 7.08243C33.7319 7.4846 32.8713 7.76237 31.9801 7.76237ZM31.1195 1.21684C30.4259 1.21684 29.7698 1.67525 29.6079 1.82521C29.2893 2.11661 28.7542 3.226 28.8223 4.39332C28.8769 5.33741 29.2944 6.09915 30.0612 6.65469C31.3512 7.58855 33.0571 7.30737 34.0949 6.65128C34.9231 6.12812 35.3372 5.39364 35.206 4.68643C35.102 4.12066 34.8617 3.70656 34.4919 3.45605C33.8887 3.04706 33.1235 3.19191 33.1167 3.19362L32.885 3.23963L32.8202 3.01298C32.5407 2.02459 32.0977 1.43667 31.5029 1.26796C31.3751 1.23217 31.2473 1.21684 31.1195 1.21684Z" fill="#6B184E"/>
<path d="M13.8436 6.86031C11.5703 8.50649 7.90639 6.74272 8.29663 4.63813C8.35969 4.29731 8.46534 4.02124 8.59826 3.7997C9.28502 2.65794 10.6875 2.94253 10.6875 2.94253C11.0113 1.79565 11.5259 1.25886 12.0696 1.05947C13.0051 0.71524 14.0276 1.36962 14.319 1.63547C14.9768 2.24043 16.1151 5.21583 13.8436 6.86031Z" fill="#FCCACA"/>
<g opacity="0.5">
<path d="M9.95752 2.934C9.98792 2.93907 10.0048 2.94245 10.0048 2.94245C10.0059 2.93682 10.0076 2.93175 10.0099 2.92725C9.99186 2.9295 9.97441 2.93175 9.95752 2.934Z" fill="white"/>
</g>
<g opacity="0.5">
<path d="M14.3194 1.63533C14.0535 1.39164 13.1708 0.820761 12.3051 0.992877C12.9135 1.10194 13.4417 1.4564 13.6377 1.63533C14.2955 2.24029 15.4339 5.21569 13.1623 6.86017C12.634 7.2436 12.0307 7.44128 11.4207 7.4941C12.2523 7.56227 13.118 7.38504 13.8439 6.86017C16.1155 5.21569 14.9772 2.24029 14.3194 1.63533Z" fill="white"/>
</g>
<g opacity="0.3">
<path d="M11.4153 2.64416C11.4409 3.5303 12.1225 5.08276 12.177 5.15092C12.1072 5.07935 10.311 2.51465 8.69212 3.94441C8.69212 3.94611 8.6018 3.61381 8.6001 3.61381C9.28686 2.47204 10.6876 2.94238 10.6876 2.94238C11.0114 1.79551 11.5261 1.25871 12.0697 1.05933C11.8243 1.2979 11.3966 1.92502 11.4153 2.64416Z" fill="#6B184E"/>
</g>
<path fill-rule="evenodd" clip-rule="evenodd" d="M11.7724 7.76176C10.8811 7.76176 10.0223 7.48399 9.38491 7.08181C8.37436 6.44277 7.87335 5.51232 8.04376 4.59209C8.17498 3.88488 8.49024 3.36001 8.97933 3.02941C9.53658 2.65451 10.1705 2.63746 10.5045 2.66303C10.8419 1.6184 11.3821 0.982761 12.1115 0.776563C13.1425 0.483453 14.1786 1.16169 14.4905 1.44799C14.9369 1.85698 15.5163 3.11973 15.4414 4.42338C15.3783 5.51232 14.8773 6.42743 13.9912 7.06818C13.3095 7.56067 12.5307 7.76176 11.7724 7.76176ZM10.3 3.16745C10.0205 3.16745 9.61326 3.21687 9.26051 3.45544C8.89242 3.70595 8.65214 4.12005 8.54648 4.68582C8.41526 5.39303 8.83107 6.12751 9.65757 6.65067C10.6954 7.30676 12.4012 7.58794 13.6912 6.65408C14.4598 6.09854 14.8756 5.33679 14.9318 4.39271C14.9983 3.22539 14.4632 2.116 14.1462 1.8246C13.9537 1.64737 13.0675 1.03559 12.2495 1.26735C11.6548 1.43606 11.2117 2.02398 10.9323 3.01237L10.8692 3.24072L10.6374 3.19301C10.6306 3.1913 10.496 3.16745 10.3 3.16745Z" fill="#6B184E"/>
<g opacity="0.3">
<path d="M39.5834 37.3931C39.4368 38.4548 38.9392 39.2693 38.3411 39.8845C37.3084 40.9445 35.819 41.5273 34.2734 41.5273H9.08983C7.54419 41.5273 6.05479 40.9445 5.02379 39.8845C4.42394 39.2693 3.92634 38.4548 3.77979 37.3931C3.93827 37.3164 4.02859 37.2738 4.02859 37.2738C4.02859 37.2738 4.79885 39.5369 6.69895 39.7073C8.73197 39.8879 9.60959 37.9725 9.60959 37.9725C9.60959 37.9725 9.84135 39.9663 12.8372 40.2168C13.5154 40.2731 21.7975 40.4418 21.7975 40.4418C24.6843 40.2867 30.0591 40.256 30.526 40.2168C33.5235 39.9663 33.2713 37.5703 33.2713 37.5703C33.2713 37.5703 34.5648 39.467 36.1002 39.467C38.912 39.467 39.3346 37.2738 39.3346 37.2738C39.3346 37.2738 39.4249 37.3164 39.5834 37.3931Z" fill="#6B184E"/>
</g>
<g opacity="0.3">
<path d="M4.0459 24.3344C4.17541 24.8968 4.43955 25.3364 4.74629 25.4949C5.6188 25.9431 7.57855 25.3569 7.90914 23.801C6.80147 24.4946 5.07178 24.6957 4.15326 24.377C4.1169 24.3657 4.08112 24.3515 4.0459 24.3344Z" fill="#6B184E"/>
</g>
<g opacity="0.5">
<path d="M4.26514 22.1629C5.88235 21.6976 7.09398 22.2822 7.68872 22.6877C7.16896 21.4778 5.67104 20.8882 5.67104 20.8882C5.00132 21.2 4.54973 21.6567 4.26514 22.1629Z" fill="white"/>
</g>
<path fill-rule="evenodd" clip-rule="evenodd" d="M5.55043 26.088C5.2454 26.088 4.96251 26.0301 4.73416 25.9125C4.11215 25.5921 3.61114 24.4248 3.64011 23.3631C3.67079 22.1992 4.27745 21.2926 5.34935 20.812C5.67654 20.6655 6.06167 20.6791 6.37864 20.8512C7.12504 21.2551 8.36905 22.1532 8.31452 23.6221C8.28385 24.4793 7.83225 25.2053 7.04154 25.6688C6.57291 25.9431 6.03441 26.088 5.55043 26.088ZM5.82309 21.221C5.73278 21.221 5.64246 21.2398 5.55895 21.2773C4.42742 21.7851 4.16839 22.6985 4.14965 23.3767C4.12238 24.3907 4.60805 25.2717 4.96762 25.4575C5.39877 25.679 6.17926 25.5802 6.78422 25.2274C7.15061 25.0127 7.77091 24.5168 7.80499 23.6051C7.84759 22.4105 6.7774 21.6488 6.13495 21.2994C6.03781 21.2483 5.93045 21.221 5.82309 21.221Z" fill="#6B184E"/>
</svg>
