<svg width="110" height="128" viewBox="0 0 110 128" fill="none" xmlns="http://www.w3.org/2000/svg">
<path d="M55.0098 67.03C73.2533 68.9081 84.0579 59.9165 87.2287 56.7328C89.662 54.2604 93.2057 50.7253 95.9557 51.6189C97.1789 52.0136 98.1288 53.0719 98.1721 55.605C99.8638 55.0108 101.36 55.193 102.241 56.0822C104.266 58.1294 101.811 63.8723 99.8811 66.7394C90.2389 82.2286 70.6247 85.3168 58.1111 83.9072" fill="#FCCACA"/>
<path d="M100.115 66.3749C100.037 66.505 99.9592 66.6221 99.8811 66.7392C90.2389 82.2284 70.6247 85.3167 58.1111 83.907L55.0098 67.0298C72.659 68.8472 83.3466 60.4889 86.8947 57.0666C87.0118 56.9495 87.1245 56.8367 87.2286 56.737C89.662 54.2646 93.2057 50.7252 95.9557 51.6187C97.1789 52.0134 98.1288 53.0761 98.1721 55.6049C99.8638 55.0106 101.36 55.1928 102.236 56.082C104.18 58.0469 102.002 63.4124 100.115 66.3749Z" fill="#FCCACA"/>
<path d="M100.115 66.3749C100.037 66.505 99.9592 66.6221 99.8811 66.7392C90.2389 82.2284 70.6247 85.3167 58.1111 83.907L55.0098 67.0298C72.659 68.8472 83.3466 60.4889 86.8947 57.0666C87.0118 56.9495 87.1245 56.8367 87.2286 56.737C89.662 54.2646 93.2057 50.7252 95.9557 51.6187C97.1789 52.0134 98.1288 53.0761 98.1721 55.6049C99.8638 55.0106 101.36 55.1928 102.236 56.082C104.18 58.0469 102.002 63.4124 100.115 66.3749Z" fill="#FCCACA"/>
<path d="M100.115 66.3749C100.037 66.505 99.9592 66.6221 99.8811 66.7392C90.2389 82.2284 70.6247 85.3167 58.1111 83.907L56.8706 77.1492L55.0098 67.0298C63.6631 67.9234 70.6421 66.3662 75.9252 64.1454C81.4208 61.8379 85.0859 58.8103 86.8947 57.0666C87.0118 56.9495 87.1245 56.8367 87.2286 56.737C89.662 54.2646 93.2057 50.7252 95.9557 51.6187C97.1789 52.0134 98.1288 53.0761 98.1721 55.6049C99.8638 55.0106 101.36 55.1928 102.236 56.082C104.18 58.0469 102.002 63.4124 100.115 66.3749Z" fill="#FCCACA"/>
<path d="M100.115 66.3749C100.037 66.505 99.9592 66.6221 99.8811 66.7392C98.9832 68.188 97.9943 69.5239 96.9316 70.7601C96.9287 70.7659 96.9258 70.7716 96.9229 70.7774C86.6257 82.7663 69.4536 85.1822 58.1111 83.907L57.8899 82.6925L56.8706 77.1492L55.0098 67.0298C63.6631 67.9234 70.6421 66.3662 75.9252 64.1454C81.4208 61.8379 85.0859 58.8103 86.8947 57.0666C87.0118 56.9495 87.1245 56.8367 87.2286 56.737C89.662 54.2646 93.2057 50.7252 95.9557 51.6187C97.1789 52.0134 98.1288 53.0761 98.1721 55.6049C99.8638 55.0106 101.36 55.1928 102.236 56.082C104.18 58.0469 102.002 63.4124 100.115 66.3749Z" fill="#FCCACA"/>
<path d="M96.9218 70.777C86.6245 82.7658 69.4524 85.1818 58.1099 83.9066L57.8887 82.6921C59.3678 80.571 61.2806 79.0789 63.5144 80.1113C68.9536 82.627 87.4704 81.0785 96.9087 70.7857C96.9131 70.7813 96.9174 70.7813 96.9218 70.777Z" fill="#F2A5A5"/>
<path d="M75.9252 64.1454C72.1776 70.7601 64.7041 74.8156 62.57 75.8132C60.8871 76.594 58.6272 76.967 56.8706 77.1492L55.0098 67.0298C63.6631 67.9233 70.6421 66.3662 75.9252 64.1454Z" fill="#F2A5A5"/>
<path d="M100.117 66.3749C93.6545 69.4892 86.7102 63.3647 87.2307 56.737C89.664 54.2646 93.2078 50.7252 95.9577 51.6187C97.1809 52.0134 98.1308 53.0761 98.1742 55.6049C99.8658 55.0106 101.362 55.1928 102.238 56.082C104.182 58.0469 102.004 63.4124 100.117 66.3749Z" fill="#ED9696"/>
<g opacity="0.7">
<path d="M100.117 66.3749C100.109 66.3835 100.096 66.3879 100.087 66.3922C101.766 63.3473 103.284 58.9274 101.562 57.1837C100.681 56.2945 99.1891 56.1124 97.4975 56.7023C97.4498 54.1779 96.5042 53.1152 95.2811 52.7205C92.7697 51.905 89.5946 54.7851 87.209 57.1751C87.209 57.0276 87.2177 56.8844 87.2307 56.737C89.664 54.2646 93.2077 50.7252 95.9577 51.6187C97.1809 52.0134 98.1308 53.0761 98.1742 55.6049C99.8658 55.0106 101.362 55.1928 102.238 56.082C104.182 58.0469 102.004 63.4124 100.117 66.3749Z" fill="white"/>
</g>
<path d="M63.6673 84.922C61.7588 84.922 59.8676 84.8178 58.0329 84.614C57.6425 84.5706 57.3606 84.2193 57.4039 83.8289C57.4473 83.4385 57.7986 83.1566 58.189 83.2043C71.388 84.6877 90.0652 81.17 99.2781 66.3662C99.281 66.3575 99.2853 66.3503 99.2911 66.3445C101.295 63.369 103.316 58.1813 101.733 56.5808C101.056 55.8955 99.8116 55.7827 98.4062 56.2728C98.1937 56.3466 97.9551 56.3162 97.7686 56.1861C97.5821 56.0559 97.4693 55.8434 97.465 55.6135C97.4173 53.1238 96.4544 52.5252 95.7343 52.291C93.3574 51.5189 89.8353 55.0974 87.7317 57.2314C84.7865 60.1896 73.7259 69.6713 54.9359 67.7368C54.5455 67.6978 54.2636 67.3464 54.3026 66.9561C54.3417 66.57 54.693 66.2837 55.0834 66.3228C73.2488 68.1966 83.893 59.0748 86.7254 56.2338C89.2064 53.7137 92.9583 49.901 96.1724 50.942C97.7035 51.4365 98.5927 52.6944 98.8226 54.681C100.423 54.3383 101.82 54.6506 102.744 55.5832C105.411 58.2811 101.92 64.9782 100.475 67.1252C96.09 74.165 89.111 79.4264 80.2972 82.3325C75.1573 84.0284 69.3277 84.922 63.6673 84.922Z" fill="#650000"/>
<path d="M95.9142 58.6367L97.6058 55.1797L98.7465 56.0255L95.9142 58.6367Z" fill="#650000"/>
<path d="M89.2516 55.7219C88.3191 56.6111 87.842 57.9601 87.8029 59.2657C87.7552 60.632 88.1759 62.059 89.0825 63.1954C88.0068 62.2238 87.2911 60.8141 87.0959 59.3047C86.8877 57.7432 87.2087 56.0949 88.1759 54.7937L89.2516 55.7219Z" fill="#650000"/>
<path d="M101.633 65.1561C99.5076 68.4743 95.374 68.2964 92.4592 66.1841C93.1879 66.5484 93.9556 66.826 94.7364 66.9778C97.0092 67.455 99.4295 66.6699 100.397 64.4578L101.633 65.1561Z" fill="#650000"/>
<path fill-rule="evenodd" clip-rule="evenodd" d="M30.6554 111.637C30.6554 111.637 28.8554 113.481 23.8759 113.758C18.2372 114.071 16.9012 109.074 16.9012 109.074C16.9012 109.074 13.9865 109.269 12.3425 106.706C11.6399 105.613 11.4187 104.463 11.4924 103.366C11.6095 101.609 12.4857 100.009 13.3575 99.0673C14.1643 98.1912 14.8496 98.2432 15.0405 98.3213C15.201 98.3864 15.5306 98.7247 15.0448 99.3146C14.1556 100.412 13.2144 101.947 13.6655 103.934C13.6742 103.986 13.6872 104.034 13.7045 104.086C14.225 105.942 16.307 106.419 16.307 106.419C16.0988 105.3 16.1335 104.177 16.4024 103.145C16.9359 101.08 18.3933 99.3796 20.6662 98.7811C24.0755 97.8789 26.9729 100.62 26.075 104.242C25.9449 104.767 25.728 105.235 25.4548 105.652C23.8326 108.107 20.1717 108.766 20.1717 108.766C20.1717 108.766 20.3149 110.115 22.8002 110.596C25.2813 111.078 29.3629 108.853 29.3629 108.853L30.6554 111.637ZM19.4387 106.185C19.4387 106.185 22.3361 105.86 23.0605 103.769C23.3468 102.936 23.1559 102.329 22.8046 101.969C22.7785 101.943 22.7525 101.921 22.7265 101.9C22.6571 101.843 22.579 101.787 22.5009 101.739C22.3318 101.644 22.154 101.587 21.9761 101.574C21.2691 101.522 19.7336 102.03 19.4343 104.363C19.3693 104.88 19.3606 105.478 19.4387 106.185Z" fill="#FCCACA"/>
<path d="M30.6554 111.637C30.6554 111.637 28.8554 113.48 23.8759 113.758C18.2372 114.07 16.9012 109.073 16.9012 109.073C16.9012 109.073 13.9865 109.269 12.3425 106.705C11.6399 105.612 11.4187 104.463 11.4924 103.365C11.9565 103.89 12.7112 104.415 13.7045 104.085C14.225 105.942 16.307 106.419 16.307 106.419C16.0988 105.3 16.1335 104.176 16.4024 103.144C16.8709 103.829 17.7644 104.562 19.4387 104.359C19.3736 104.875 19.3649 105.478 19.4387 106.18C19.4387 106.18 22.3405 105.859 23.0605 103.769C23.3468 102.931 23.1559 102.324 22.8046 101.964C23.8282 102.888 24.0321 104.901 25.4548 105.651C23.8326 108.106 20.1717 108.765 20.1717 108.765C20.1717 108.765 20.3149 110.114 22.8002 110.596C25.2813 111.077 29.3629 108.852 29.3629 108.852L30.6554 111.637Z" fill="#F2A5A5"/>
<path d="M22.732 101.899C22.6626 101.838 22.5845 101.786 22.5021 101.734C22.5845 101.778 22.6626 101.83 22.732 101.899Z" fill="white"/>
<path fill-rule="evenodd" clip-rule="evenodd" d="M15.58 97.0066C16.1049 97.2191 16.5169 97.7049 16.6601 98.2732C16.7555 98.6462 16.8162 99.3966 16.1482 100.212C15.3111 101.24 14.9381 102.107 14.9684 103.01C15.593 100.29 17.5362 98.143 20.3035 97.41C20.8587 97.2625 21.4183 97.1888 21.9691 97.1888C23.7519 97.1888 25.3871 97.9695 26.4541 99.3272C27.5645 100.75 27.9289 102.663 27.4561 104.58C26.8618 107 24.9186 108.423 23.227 109.225C23.3311 109.237 23.4453 109.243 23.5697 109.243C25.2917 109.243 27.8464 108.063 28.6879 107.607C28.8961 107.49 29.1303 107.434 29.3646 107.434C29.5164 107.434 29.6639 107.456 29.8113 107.503C30.18 107.629 30.488 107.898 30.6528 108.254L31.9454 111.038C32.1926 111.572 32.0842 112.205 31.6721 112.63C31.4509 112.856 29.3342 114.877 23.9557 115.176C23.7605 115.189 23.5653 115.194 23.3745 115.194C20.1257 115.194 18.1652 113.632 17.0851 112.327C16.5256 111.646 16.1482 110.965 15.9053 110.435C14.6388 110.271 12.5481 109.655 11.1514 107.473C10.1278 105.881 9.81983 104.016 10.2536 102.081C10.5789 100.62 11.3336 99.171 12.3139 98.104C13.3115 97.024 14.2961 96.8591 14.7906 96.8591C15.0725 96.8591 15.3458 96.9112 15.58 97.0066ZM13.3592 99.0669C11.9495 100.594 10.5182 103.856 12.3442 106.71C13.7669 108.93 16.1482 109.078 16.7555 109.078C16.8509 109.078 16.903 109.074 16.903 109.074C16.903 109.074 18.1608 113.771 23.3745 113.771C23.5393 113.774 23.707 113.77 23.8776 113.758C28.8571 113.48 30.6571 111.637 30.6571 111.637L29.3646 108.852C29.3646 108.852 26.042 110.665 23.5697 110.665C23.3008 110.665 23.0405 110.644 22.7976 110.596C20.3166 110.115 20.1734 108.766 20.1734 108.766C20.1734 108.766 25.1832 107.863 26.0767 104.242C26.8575 101.088 24.7668 98.6071 21.9648 98.6071C21.5484 98.6071 21.1147 98.6635 20.6679 98.7806C17.263 99.6828 15.6798 103.053 16.3087 106.419C16.3087 106.419 14.1096 105.916 13.6628 103.934C13.2161 101.947 14.153 100.412 15.0508 99.3142C15.5323 98.7243 15.1983 98.3859 15.0422 98.3209C14.9901 98.2992 14.9034 98.2818 14.7906 98.2818C14.4783 98.2818 13.9491 98.425 13.3592 99.0669ZM21.8824 101.57C21.9171 101.57 21.9503 101.571 21.9822 101.574C22.6978 101.626 23.5393 102.376 23.0622 103.764C22.3422 105.859 19.4404 106.18 19.4404 106.18C19.0413 102.415 20.9628 101.57 21.8824 101.57ZM21.7219 103.305C21.7696 103.157 21.7826 103.062 21.7826 103.005C21.6742 103.031 21.4964 103.101 21.3229 103.296C21.1884 103.448 21.0106 103.725 20.9021 104.211C21.2708 103.986 21.5874 103.691 21.7219 103.305Z" fill="#650000"/>
<path d="M16.3184 110.943C14.449 107.07 14.822 103.201 15.7979 100.872L16.943 101.349C16.0712 103.431 15.7459 106.901 17.4375 110.401L16.3184 110.943Z" fill="#512717"/>
<path d="M22.474 110.47C21.4113 110.27 20.5655 109.681 20.0277 108.761C19.0083 107.017 19.3076 104.536 19.5982 103.677L20.7737 104.077C20.5525 104.727 20.3313 106.822 21.099 108.136C21.459 108.748 21.9839 109.117 22.6995 109.247L22.474 110.47Z" fill="#650000"/>
<path d="M82.6201 119.445C80.7897 119.661 74.2878 118.425 72.6135 118.343C70.1368 118.221 65.3482 118.625 60.1779 119.492C60.1779 119.492 66.0162 99.4791 65.9988 97.1672C75.6758 94.8553 85.0491 101.158 85.0491 101.158C85.0491 101.158 85.1315 119.145 82.6201 119.445Z" fill="#777782"/>
<path d="M84.7108 111.086C84.3985 115.306 83.7912 119.306 82.6201 119.444C80.7897 119.661 74.2878 118.425 72.6135 118.343C70.1368 118.221 65.3482 118.625 60.1779 119.492C60.1779 119.492 66.0162 99.4789 65.9988 97.167C67.6948 96.7593 69.3864 96.6205 71.0173 96.6639C78.6773 96.8721 85.0491 101.157 85.0491 101.157C85.0491 101.157 85.0708 106.267 84.7108 111.086Z" fill="#F9C9CA"/>
<path d="M84.7108 111.086C84.3985 115.306 83.7912 119.306 82.6201 119.444C80.7897 119.661 74.2878 118.425 72.6135 118.343C70.1368 118.221 65.3482 118.625 60.1779 119.492C60.1779 119.492 66.0162 99.4789 65.9988 97.167C67.6948 96.7593 69.3864 96.6205 71.0173 96.6639C71.3947 98.8456 71.9802 102.697 72.401 107.616C72.8 112.344 77.5799 110.015 78.2045 106.918C78.8508 103.712 80.46 102.784 80.46 102.784C80.46 102.784 82.6548 106.978 84.7108 111.086Z" fill="#F2A5A5"/>
<path fill-rule="evenodd" clip-rule="evenodd" d="M60.1773 120.203C59.9777 120.203 59.7826 120.117 59.6481 119.965C59.4833 119.783 59.4269 119.531 59.4963 119.297C61.8299 111.29 65.2998 98.7935 65.2868 97.1713C65.2868 96.8416 65.5124 96.551 65.8334 96.4773C75.6968 94.1177 85.0528 100.303 85.4432 100.568C85.6383 100.702 85.7555 100.919 85.7598 101.153C85.7598 101.201 85.7771 105.729 85.4822 110.236C84.9357 118.724 83.8209 120.017 82.7019 120.147C81.4483 120.294 78.4685 119.861 75.8356 119.475C74.4606 119.271 73.1594 119.08 72.5782 119.054C69.9973 118.924 65.1741 119.375 60.2944 120.195C60.2568 120.2 60.2178 120.203 60.1773 120.203ZM71.6456 117.614C72.0099 117.614 72.3439 117.618 72.6476 117.636C73.2982 117.666 74.5691 117.852 76.0438 118.069C78.3123 118.403 81.4093 118.854 82.5023 118.742C82.6672 118.624 83.6127 117.614 84.0942 109.733C84.3067 106.176 84.3371 102.689 84.3371 101.548C82.6845 100.537 74.7686 96.0565 66.6575 97.7482C66.1673 101.209 62.3807 114.439 61.1749 118.611C65.1914 117.983 69.0821 117.614 71.6456 117.614Z" fill="#650000"/>
<path d="M71.3325 101.067C71.3455 87.5336 64.2276 82.6799 63.5553 69.3855C63.2257 62.8229 44.0887 59.7086 37.3569 68.8997C34.5332 72.7514 21.9978 91.06 24.3357 108.197C25.65 117.801 30.2824 122.442 38.9704 123.873C40.8095 124.177 42.7657 123.63 46.3181 123.37C51.033 123.023 65.4291 121.904 68.6736 114.773C68.6736 114.773 70.3609 112.179 70.9377 108.926C71.6101 105.139 71.3325 101.067 71.3325 101.067Z" fill="#F9C9CA"/>
<path d="M70.9377 108.926C70.3608 112.179 68.6692 114.773 68.6692 114.773C65.4291 121.904 51.0329 123.023 46.3181 123.37C42.7657 123.63 40.8095 124.173 38.9704 123.873C30.2824 122.442 25.6499 117.801 24.3357 108.198C22.913 97.7659 26.9989 86.9005 31.0545 79.1234C33.657 74.1266 36.2508 70.405 37.3568 68.8999C44.0886 59.7088 63.2256 62.8274 63.5553 69.3857C63.6594 71.4113 63.911 73.2461 64.2666 74.942C66.2315 84.363 71.3454 89.5941 71.3324 101.067C71.3324 101.067 71.61 105.14 70.9377 108.926Z" fill="#F9C9CA"/>
<path d="M64.2651 74.9424C51.5476 81.0192 37.8975 80.143 31.0529 79.1237C33.6554 74.1269 36.2492 70.4054 37.3553 68.9003C44.0871 59.7091 63.2241 62.8278 63.5537 69.3861C63.6578 71.4117 63.9094 73.2464 64.2651 74.9424Z" fill="#F2A5A5"/>
<path d="M43.8895 123.604C41.7771 123.851 40.3371 124.094 38.9665 123.873C34.5075 123.135 31.1199 121.561 28.6953 118.898C26.3964 116.373 24.9737 112.873 24.3318 108.197C24.3187 108.102 24.3057 108.006 24.2971 107.915C24.8306 109.472 25.5159 110.739 26.3747 111.159C27.3463 111.632 28.383 111.884 29.784 111.632C32.1349 111.207 40.259 119.665 43.8895 123.604Z" fill="#F2A5A5"/>
<path d="M70.9375 108.926C70.3606 112.184 68.6733 114.773 68.6733 114.773C65.4288 121.904 51.0371 123.023 46.3179 123.37C42.7655 123.63 40.8092 124.172 38.9701 123.873C38.2906 123.76 37.6371 123.627 37.0096 123.474C36.9229 123.457 36.8448 123.435 36.7624 123.418C36.6987 123.4 36.6366 123.384 36.5759 123.37C36.4486 123.335 36.3228 123.301 36.1985 123.266C36.0727 123.231 35.9469 123.196 35.8255 123.157C35.7069 123.123 35.5898 123.087 35.4741 123.049C35.3353 123.006 35.2009 122.962 35.0664 122.915C34.8409 122.839 34.6196 122.76 34.4028 122.676C34.2871 122.633 34.1729 122.588 34.0601 122.542C33.9473 122.495 33.8346 122.449 33.7218 122.403C33.6119 122.354 33.5035 122.304 33.3965 122.255C33.2866 122.206 33.1782 122.157 33.0712 122.108C32.9642 122.056 32.8586 122.004 32.7545 121.952C32.6504 121.9 32.5463 121.843 32.4466 121.787C32.3425 121.732 32.2398 121.677 32.1386 121.622C31.9391 121.505 31.7396 121.388 31.5444 121.266C31.4489 121.206 31.3535 121.145 31.2581 121.084C31.1627 121.021 31.0687 120.957 30.9761 120.893C30.8836 120.827 30.7925 120.76 30.7029 120.694C30.5164 120.559 30.3385 120.425 30.165 120.282C29.6445 119.857 29.1544 119.397 28.7033 118.898C30.5467 110.913 34.0254 98.7113 37.9985 98.8068C43.9019 98.9499 51.6139 107.499 58.5149 107.859C66.9383 108.302 71.6011 103.483 71.1934 97.8135C71.2845 98.8415 71.3365 99.9258 71.3322 101.067C71.3322 101.067 71.6098 105.139 70.9375 108.926Z" fill="#F2A5A5"/>
<path d="M63.5502 69.3854C61.0474 64.8397 54.8405 63.8767 50.0822 63.9939C46.2609 64.1457 42.3528 65.191 39.4641 67.7328C38.5011 68.5526 37.7507 69.6456 37.022 70.6779C28.7418 82.8012 20.7044 100.589 27.0502 115.046C29.0411 119.28 32.8797 121.748 37.3604 122.728C37.9676 122.875 38.6443 123.001 39.2559 123.097C40.4096 123.248 41.7196 123.04 43.0468 122.893C47.0156 122.446 51.0452 122.333 54.9576 121.557C58.8049 120.793 62.6566 119.757 65.9228 117.562C66.9811 116.82 67.9354 115.914 68.6684 114.773C67.8616 117.436 65.4326 119.327 63.0297 120.533C60.5746 121.765 57.9071 122.459 55.2395 123.01C51.9257 123.691 48.5641 123.986 45.2156 124.263C42.9904 124.45 40.7696 125.044 38.5141 124.615C28.9413 123.001 24.5821 117.119 23.5281 107.759C22.1445 94.2695 28.4468 80.78 35.7642 69.8104C36.5449 68.687 37.369 67.4769 38.41 66.5703C43.5543 61.9639 51.8823 61.3957 58.2107 63.5297C60.5703 64.3799 64.4307 66.2841 63.5502 69.3854Z" fill="#650000"/>
<path d="M71.3272 101.066C70.8154 97.0153 69.8482 93.1636 68.4688 89.3509C67.2153 85.5123 65.5974 81.6692 64.9338 77.644C66.5126 81.448 68.5079 84.9614 69.9696 88.8261C71.3663 92.7038 71.8608 96.9806 71.3272 101.066Z" fill="#650000"/>
<path d="M50.0288 115.549C50.0288 115.549 50.0244 115.554 50.0156 115.571C50.0244 115.558 50.0288 115.549 50.0288 115.549Z" fill="#F9D3B7"/>
<path d="M48.6589 126.462C47.9172 126.558 39.702 126.237 34.8744 120.746C34.8744 120.746 30.7451 116.933 29.7822 111.632C28.2077 103.005 33.4344 99.4267 33.4344 99.4267C42.3002 96.2647 47.3317 105.443 47.3317 105.443C47.3317 105.443 47.4791 106.939 47.683 109.13C48.2339 115.141 49.2055 126.393 48.6589 126.462Z" fill="#F9C9CA"/>
<path d="M48.6582 126.462C47.9165 126.558 39.7013 126.237 34.8736 120.746C34.8736 120.746 30.7444 116.933 29.7814 111.633C29.7814 111.633 31.5208 111.294 33.6418 113.346C35.3074 114.959 36.8299 116.412 37.8492 114.014C38.8641 111.62 38.6603 110.284 39.8618 108.197C40.3389 107.369 43.7438 108.032 47.6823 109.13C48.2331 115.142 49.2047 126.393 48.6582 126.462Z" fill="#F2A5A5"/>
<path d="M34.8743 120.746C38.457 123.448 42.6514 125.074 47.0626 125.677C47.5658 125.734 48.0602 125.777 48.5547 125.76H48.559H48.5634C48.559 125.76 48.5807 125.76 48.5547 125.76C48.468 125.773 48.3725 125.812 48.3031 125.851C48.212 125.886 48.0559 126.102 48.0646 126.128C48.0559 126.15 48.0559 126.146 48.0559 126.146C48.0602 126.133 48.0646 126.107 48.0689 126.076C48.147 125.3 48.0993 124.471 48.0776 123.643C47.787 117.605 47.1927 111.537 46.6245 105.512L46.7069 105.786C46.5421 105.547 46.3426 105.265 46.1474 105.009C44.0177 102.185 41.0855 99.7348 37.4594 99.301C36.1278 99.1145 34.7788 99.223 33.4299 99.4312C35.256 98.3555 37.5808 97.9781 39.6889 98.4335C42.5646 99.0451 45.0413 100.932 46.7893 103.248C47.2318 103.847 47.6135 104.419 47.9518 105.105C47.9995 105.187 48.0255 105.282 48.0385 105.374C48.6111 111.446 49.201 117.484 49.4959 123.587C49.522 124.359 49.5523 125.113 49.5089 125.938C49.4873 126.51 49.3311 127.178 48.5894 127.182C48.0299 127.204 47.466 127.156 46.9195 127.113C42.3217 126.727 37.3206 124.888 34.8743 120.746Z" fill="#650000"/>
<path d="M49.8007 126.302C57.4433 124.749 56.9011 109.676 53.4225 105.53C51.0672 102.723 47.2762 102.71 45.4198 106.753C42.5918 103.487 38.2282 104.688 37.0875 108.696C35.4522 114.435 39.2172 128.453 49.8007 126.302Z" fill="#ED9696"/>
<g opacity="0.5">
<path d="M55.6938 112.136C55.2774 110.024 54.5748 108.223 53.6769 107.148C51.3173 104.341 47.5307 104.328 45.6699 108.371C42.8418 105.109 38.4783 106.306 37.3376 110.314C36.9602 111.641 36.8735 113.415 37.0903 115.328C36.5915 112.813 36.6002 110.392 37.086 108.696C38.2268 104.688 42.5859 103.491 45.4183 106.753C47.2748 102.715 51.0657 102.724 53.421 105.53C54.5444 106.87 55.3599 109.347 55.6938 112.136Z" fill="white"/>
</g>
<path d="M49.7959 126.302C42.9167 127.703 38.9132 122.255 37.4124 116.699C39.3643 121.175 43.1509 124.745 49.2147 123.561C54.1117 122.606 55.7903 117.211 55.6732 111.953C56.428 117.844 55.0313 125.239 49.7959 126.302Z" fill="#D87979"/>
<path fill-rule="evenodd" clip-rule="evenodd" d="M47.6807 127.235C44.9134 127.235 42.4367 126.124 40.4328 123.956C36.6332 119.852 35.2582 112.518 36.4033 108.501C37.0322 106.298 38.5894 104.719 40.5673 104.281C42.2155 103.916 43.8768 104.385 45.2431 105.573C46.1886 104.033 47.5029 103.088 49.0254 102.884C50.7994 102.645 52.5995 103.444 53.9701 105.074C56.6203 108.236 57.4141 116.144 55.5967 121.344C54.4863 124.519 52.5301 126.476 49.9406 127C49.1685 127.157 48.4138 127.235 47.6807 127.235ZM49.6586 125.608C52.2785 125.075 53.6014 122.741 54.2564 120.876C56.0174 115.836 54.9721 108.475 52.8814 105.985C51.8317 104.736 50.4958 104.12 49.2119 104.289C47.9193 104.463 46.8046 105.443 46.0629 107.048C45.9631 107.269 45.7592 107.421 45.5207 107.456C45.2821 107.49 45.0436 107.399 44.8831 107.217C43.7553 105.916 42.2979 105.352 40.8752 105.669C39.4135 105.99 38.251 107.195 37.7696 108.891C36.7286 112.544 37.9951 119.232 41.4738 122.993C43.6859 125.383 46.4402 126.263 49.6586 125.608Z" fill="#650000"/>
<path d="M46.5468 112.023L44.725 106.901L46.113 106.606L46.5468 112.023Z" fill="#650000"/>
<path d="M78.5423 116.231C79.9519 119.861 84.8056 120.221 87.1825 118.963C89.2472 117.874 90.1147 114.756 91.2294 111.763C92.4526 108.475 95.4541 103.678 94.0184 101.197C93.2724 99.9085 91.2554 99.2753 89.4033 100.173C88.9913 97.948 87.5989 97.1195 86.3064 97.0241C84.3458 96.881 79.4791 98.4815 77.9523 109.004C77.9523 109.004 77.8092 111.086 77.9523 112.83C78.1432 115.168 78.5423 116.231 78.5423 116.231Z" fill="#ED9696"/>
<path d="M91.7933 110.392C91.7933 110.394 91.7918 110.399 91.7889 110.405C91.5807 110.877 91.3899 111.333 91.2294 111.762C90.1147 114.755 89.2472 117.874 87.1825 118.962C84.8056 120.22 79.9519 119.86 78.5423 116.23C78.5423 116.23 78.1432 115.167 77.9523 112.829C77.8092 111.086 77.9523 109.008 77.9523 109.008C77.987 108.769 78.0261 108.539 78.0608 108.31C79.7004 98.4114 84.3892 96.8846 86.3064 97.0278C87.5989 97.1189 88.9913 97.9473 89.4033 100.172C91.2554 99.2746 93.2724 99.9079 94.0184 101.196C95.2676 103.352 93.1683 107.251 91.7933 110.392Z" fill="#ED9696"/>
<g opacity="0.5">
<path d="M93.3444 106.883C93.8735 105.265 94.073 103.773 93.4571 102.706C92.7111 101.418 90.6898 100.785 88.842 101.682C88.43 99.4573 87.0376 98.6288 85.7451 98.5377C83.8279 98.3946 80.5054 100.151 77.9766 108.835C78.0055 108.659 78.033 108.484 78.059 108.31C79.6943 98.4119 84.3874 96.8851 86.3046 97.0283C87.5972 97.1194 88.9895 97.9478 89.4059 100.173C91.2537 99.2751 93.2706 99.9084 94.0167 101.197C94.8234 102.589 94.2335 104.71 93.3444 106.883Z" fill="white"/>
</g>
<path d="M91.7889 110.405C91.5807 110.878 91.3899 111.334 91.2294 111.763C90.1147 114.756 89.2472 117.874 87.1825 118.963C84.8056 120.221 79.9519 119.861 78.5423 116.231C78.5423 116.231 78.1432 115.168 77.9523 112.83C77.8092 111.086 77.9523 109.009 77.9523 109.009C77.987 108.77 78.0261 108.54 78.0608 108.31C78.4338 110.171 79.5485 113.806 82.7453 115.415C87.5078 117.818 90.1971 113.871 91.7889 110.405Z" fill="#D87979"/>
<path d="M78.545 116.23C80.228 118.802 83.9582 119.531 86.6215 118.386C87.4803 117.983 88.0094 117.258 88.4952 116.399C89.3237 114.877 89.8702 113.103 90.5078 111.468C91.4231 109.134 92.759 106.857 93.4226 104.48C93.6655 103.547 93.8521 102.598 93.492 101.739C92.8588 100.403 90.9676 100.208 89.7401 100.863C89.2977 101.092 88.7338 100.806 88.6557 100.312C88.5039 99.5743 88.2133 98.902 87.7405 98.4596C86.6778 97.4446 85.0903 97.7612 83.8932 98.4509C81.7938 99.6871 80.5273 101.951 79.586 104.146C78.9398 105.703 78.4409 107.338 77.9551 109.004C78.0462 104.684 79.2434 99.635 83.1124 97.1366C86.114 95.2628 89.5406 96.3602 90.1608 100.034L89.0721 99.4832C90.6423 98.7328 92.6419 98.8369 93.9952 100.038C95.3702 101.21 95.2487 103.313 94.815 104.853C94.121 107.408 92.8674 109.59 91.9739 112.014C91.3406 113.758 90.8418 115.484 89.8963 117.189C88.5863 119.648 86.4089 120.498 83.6893 120.312C81.3904 120.169 78.8704 118.655 78.545 116.23Z" fill="#650000"/>
<path d="M88.0079 104.068C88.0512 103.231 88.3592 102.407 88.5067 101.621C88.6585 100.858 88.6368 100.103 88.4677 99.3529L89.8817 99.2532C89.8296 100.155 89.5911 101.071 89.1747 101.856C88.78 102.632 88.2855 103.278 88.0079 104.068Z" fill="#650000"/>
<path d="M60.9989 99.1625C61.8751 96.5297 64.5556 95.866 66.4077 96.9287C68.4941 98.1215 68.8281 100.841 67.8044 102.711C66.8025 104.541 64.2997 105.035 62.6385 104.073C62.6385 104.073 61.6061 103.565 61.129 102.064C60.6476 100.564 60.9989 99.1625 60.9989 99.1625Z" fill="#FCCACA"/>
<path d="M68.3638 100.551C68.3508 101.305 68.1599 102.06 67.8043 102.711C66.8023 104.541 64.3039 105.035 62.6383 104.073C62.6383 104.073 61.606 103.565 61.1289 102.064C60.9901 101.639 60.9207 101.223 60.8946 100.841C60.8166 99.8825 60.9987 99.1625 60.9987 99.1625C61.8749 96.5297 64.5555 95.866 66.4076 96.9287C67.7696 97.7051 68.3811 99.1322 68.3638 100.551Z" fill="#FCCACA"/>
<path d="M68.3639 100.551C68.3509 101.305 68.16 102.06 67.8043 102.711C66.8024 104.541 64.304 105.036 62.6384 104.073C62.6384 104.073 61.6061 103.565 61.1289 102.064C60.9901 101.639 60.9207 101.223 60.8947 100.841C60.8947 100.838 60.8947 100.837 60.8947 100.837C60.8947 100.837 62.1916 102.819 65.0457 102.858C67.1103 102.884 68.0472 101.266 68.3639 100.551Z" fill="#F2A5A5"/>
<path d="M60.9982 99.1622C61.7746 94.8768 67.5522 94.9028 68.8274 98.9193C69.7253 101.678 68.0944 104.927 65.0017 104.914C64.1212 104.918 63.2494 104.632 62.6378 104.072C64.7718 104.749 67.2225 103.621 67.5695 101.353C68.3937 96.9588 63.0282 95.2151 60.9982 99.1622Z" fill="#650000"/>
<path d="M65.7524 102.064C65.6223 102.047 65.5225 101.423 65.028 100.603C64.0564 100.637 63.4839 100.902 63.4015 100.802C63.3147 100.703 63.7571 100.152 64.7027 100.03C64.295 99.1757 64.5118 98.5078 64.642 98.5251C64.7678 98.5468 64.8675 99.1627 65.3663 99.9912C66.3379 99.9565 66.9105 99.6919 66.9929 99.7917C67.0753 99.8914 66.6372 100.442 65.6873 100.559C66.095 101.414 65.8825 102.082 65.7524 102.064Z" fill="#650000"/>
<path d="M85.4685 52.2563C83.6815 59.6734 76.7371 69.2983 50.9508 73.5187C25.1644 77.7391 15.5004 70.8338 11.4319 64.3709C7.75369 58.5327 7.4197 49.4196 8.09635 39.2525C8.46504 33.7179 9.12867 27.8666 9.71857 22.0631C10.1567 17.7212 14.5852 14.9973 18.8924 12.7244C20.1719 12.0521 21.4385 11.4189 22.5879 10.7986C27.9447 7.89682 33.7222 5.93627 39.6646 4.96467C45.607 3.99308 51.7098 4.00609 57.7129 5.04709C63.343 6.02736 71.1765 6.46978 73.5187 11.6227C80.385 26.6868 87.9582 41.9027 85.4685 52.2563Z" fill="#FCCACA"/>
<path d="M69.6031 26.3187C72.8996 28.2272 78.8593 28.0493 80.5726 27.3944C78.4515 22.2675 75.9445 16.9323 73.5242 11.6233C71.7154 7.65011 66.6449 6.47899 61.8346 5.69824C61.8129 9.30703 62.5503 22.2371 69.6031 26.3187Z" fill="#F2A5A5"/>
<path d="M18.1461 34.7417C15.6347 37.5958 9.93086 39.3308 8.0961 39.2527C8.46479 33.7181 9.12842 27.8668 9.71832 22.0632C10.1564 17.7214 14.585 14.9975 18.8921 12.7246C20.0719 16.1339 23.5202 28.6215 18.1461 34.7417Z" fill="#F2A5A5"/>
<path d="M85.4663 52.2567C83.6793 59.6738 76.735 69.2987 50.9486 73.5191C25.1622 77.7394 15.4983 70.8342 11.4297 64.3713C9.61664 61.4955 8.61902 57.826 8.15057 53.6273C8.71878 56.1387 9.56026 58.3812 10.7531 60.2767C14.826 66.7396 24.4899 73.6448 50.2763 69.4245C76.0627 65.2041 83.007 55.5792 84.7897 48.1621C85.3145 45.9847 85.3926 43.5947 85.128 41.0312C86.0302 45.1605 86.2601 48.9558 85.4663 52.2567Z" fill="#F2A5A5"/>
<path d="M23.8095 65.087C23.289 65.2648 22.7512 65.4036 22.1916 65.4947C16.7958 66.3752 11.7036 62.7317 10.8144 57.3532C10.7927 57.2187 10.7753 57.0886 10.758 56.9585C13.1219 60.1986 17.03 63.3953 23.8095 65.087Z" fill="#E8496B"/>
<path d="M83.7996 45.408C84.6845 50.7908 81.028 55.8657 75.6321 56.7505C75.0726 56.8416 74.5174 56.885 73.9709 56.8807C79.8482 53.1157 82.5288 48.8476 83.7259 45.022C83.7563 45.1478 83.778 45.2779 83.7996 45.408Z" fill="#F2A5A5"/>
<path d="M29.7785 54.2478C30.6633 59.6306 27.0068 64.7055 21.611 65.5903C16.2152 66.4708 11.1186 62.8273 10.2338 57.4489C9.34892 52.066 13.0054 46.9912 18.4013 46.1063C23.7971 45.2258 28.8893 48.8693 29.7785 54.2478Z" fill="#FF6982"/>
<path d="M84.3816 45.3123C85.2664 50.6908 81.6099 55.77 76.2141 56.6505C70.8182 57.5354 65.726 53.8919 64.8412 48.5091C63.9563 43.1306 67.6128 38.0557 73.0087 37.1709C78.4045 36.286 83.4967 39.9338 84.3816 45.3123Z" fill="#FF6982"/>
<path d="M59.55 71.7542C61.1766 71.0082 62.8248 70.4313 64.4601 69.7503C64.9155 69.5551 65.6399 69.3122 66.0866 69.104C67.1233 68.6486 68.2727 68.2278 69.2964 67.742L70.8839 67.022C71.6473 66.662 72.4367 66.1979 73.1915 65.8205C73.8594 65.3998 74.7486 64.9053 75.3992 64.4586C81.2679 60.5765 85.3755 54.812 85.1586 47.5597C85.0068 41.7518 83.0896 36.1651 81.0293 30.7779C78.4789 24.3194 75.4296 17.8349 72.4931 11.5282C70.2463 7.73286 64.6986 7.10392 60.6474 6.41426C59.7713 6.28414 58.0189 6.01087 57.1471 5.8634C45.7221 3.96792 33.7029 5.91979 23.4708 11.3417C22.6944 11.758 21.1155 12.5822 20.3304 12.9812C16.7173 14.9201 11.6294 17.2927 10.6795 21.5738C10.6362 21.821 10.5884 22.1073 10.5667 22.3632C9.89444 29.043 9.06598 35.8528 8.75368 42.5325C8.46307 49.967 8.38933 59.7307 13.3427 65.7121C20.2827 74.2266 32.059 73.9533 42.148 74.591C31.7554 76.7944 17.3202 74.7124 11.0612 65.2003C6.85819 58.9066 6.84084 49.7892 7.08374 42.4632C7.37869 35.5405 8.17679 28.5962 8.88814 21.7213C9.2308 18.9409 11.2 16.6941 13.3297 15.0979C15.7674 13.2545 18.448 11.9749 21.0808 10.5913C32.0113 4.38432 45.0325 1.97701 57.442 4.10238C62.0788 4.95687 67.2361 5.17808 71.3437 7.82828C72.402 8.55264 73.365 9.50255 74.0156 10.6693C74.5317 11.6713 75.0739 12.9378 75.538 13.9355C77.9714 19.2793 80.4871 24.6794 82.5908 30.175C85.2714 37.3666 88.2903 46.2888 85.8092 53.8751C84.0308 59.4357 79.6283 63.7602 74.6705 66.6186C70.0381 69.3252 64.8765 71.2337 59.55 71.7542Z" fill="#650000"/>
<path d="M55.6324 43.8505C56.1789 47.1687 52.453 50.5389 47.3131 51.3804C42.1688 52.2218 37.558 50.2136 37.0158 46.8954C36.2308 42.1372 39.9176 38.5457 45.0619 37.7043C50.2018 36.8671 54.8473 39.0923 55.6324 43.8505Z" fill="#FF6982"/>
<g opacity="0.7">
<path d="M55.6259 43.8501C55.6606 44.0713 55.6822 44.2925 55.6822 44.5138C54.9015 41.8375 52.7935 40.1025 50.0956 39.4302C49.9915 40.1329 49.0155 40.6404 47.8748 40.5753C46.747 40.5059 45.8578 39.9117 45.8014 39.2177C45.641 39.235 45.4761 39.2611 45.3156 39.2871C40.514 40.0722 36.979 43.2515 37.1698 47.5413C37.0961 47.3331 37.044 47.1162 37.005 46.895C36.2243 42.1368 39.9111 38.5454 45.0554 37.7039C50.1953 36.8624 54.8408 39.0919 55.6259 43.8501Z" fill="white"/>
</g>
<path d="M55.6283 43.8503C56.1748 47.1685 52.4489 50.5387 47.309 51.3802C42.1647 52.2217 37.554 50.2134 37.0074 46.8953C36.899 46.2229 36.9554 45.4899 37.1593 44.7482C38.7945 46.9169 42.5551 48.0534 46.6497 47.3854C50.7443 46.7131 53.941 44.4359 54.7998 41.8638C55.2292 42.5014 55.5155 43.178 55.6283 43.8503Z" fill="#E8496B"/>
<path fill-rule="evenodd" clip-rule="evenodd" d="M45.0155 52.2782C40.5218 52.2782 36.8306 50.1615 36.3101 47.0125C35.898 44.5141 36.5834 42.2109 38.288 40.3501C39.8625 38.6368 42.2264 37.4526 44.9417 37.0059C50.8364 36.043 55.5165 38.8103 56.3276 43.7333C56.6356 45.5854 55.8332 47.4809 54.0765 49.0684C52.4065 50.5822 50.0426 51.6536 47.4228 52.0787C46.6073 52.2131 45.8005 52.2782 45.0155 52.2782ZM47.1929 38.2377C46.5423 38.2377 45.8656 38.2941 45.1716 38.4069C42.7686 38.8016 40.6953 39.8339 39.3333 41.313C37.9323 42.8355 37.3728 44.7266 37.7111 46.7826C38.1926 49.706 42.4477 51.4584 47.1929 50.6776C49.5481 50.2959 51.6562 49.3504 53.1266 48.0188C54.5102 46.7609 55.1522 45.3252 54.9266 43.9675C54.3454 40.4238 51.2788 38.2377 47.1929 38.2377Z" fill="#650000"/>
<path d="M43.7604 45.3992C43.9773 46.7222 43.7127 47.8629 43.1662 47.954C42.624 48.0408 42.0037 47.0431 41.7868 45.7202C41.57 44.3973 41.8346 43.2522 42.3811 43.1654C42.9233 43.0743 43.5435 44.0763 43.7604 45.3992Z" fill="#650000"/>
<path d="M50.7213 44.2586C50.9382 45.5815 50.6736 46.7266 50.1314 46.8134C49.5849 46.9045 48.9647 45.9025 48.7478 44.5796C48.5309 43.2566 48.7955 42.1159 49.342 42.0248C49.8842 41.938 50.5045 42.9357 50.7213 44.2586Z" fill="#650000"/>
<path d="M19.8269 16.9106C19.7835 16.9366 19.7401 16.9583 19.6967 16.98C20.0437 26.1277 15.2812 33.5058 9.68581 34.5902C6.65824 35.1758 3.24464 31.5323 2.04315 26.8001C2.04315 26.8001 5.51315 33.6359 9.4993 32.608C16.1574 30.8947 19.0678 19.8297 19.2283 13.0068C19.5926 14.2517 19.7705 15.5876 19.8269 16.9106Z" fill="#F2A5A5"/>
<path d="M23.9268 13.1975C23.9268 13.1975 22.5518 15.5831 19.8322 16.9104C19.7888 16.9364 19.7454 16.9581 19.7021 16.9798C20.0491 26.1276 15.2865 33.5056 9.69113 34.59C6.66356 35.1756 3.24995 31.5321 2.04847 26.7999C1.07253 22.9742 1.54532 18.4329 4.82446 14.8371C4.98929 14.6592 5.15845 14.4901 5.34062 14.3339C5.34062 14.3296 5.34062 14.3296 5.34062 14.3296C7.16237 12.7247 9.64342 12.1305 9.64342 12.1305C10.9794 10.556 13.2522 8.97713 16.2104 8.89472C16.2451 8.89472 16.2798 8.89472 16.3188 8.89472C19.0341 8.85134 22.0747 10.3434 23.9268 13.1975Z" fill="#FCCACA"/>
<path d="M16.2081 8.89478C16.0996 8.93815 13.2065 10.1136 10.9944 13.7614C8.2748 18.2464 8.54372 25.1213 8.54372 25.1213C8.54372 25.1213 7.62851 21.7641 8.03624 18.0642C8.42661 14.4685 8.66517 12.8332 5.33832 14.3297C7.16006 12.7248 9.64111 12.1305 9.64111 12.1305C10.9771 10.556 13.2499 8.97719 16.2081 8.89478Z" fill="#F2A5A5"/>
<path d="M19.2328 13.0068C21.0849 17.4918 20.5427 22.6707 18.6949 27.082C17.0076 30.9423 13.7285 34.807 9.29122 35.3492C5.94268 35.449 3.53971 32.287 2.27316 29.5717C0.212851 25.1258 0.373338 19.5304 3.35753 15.5182C4.08189 14.5119 4.99277 13.562 6.05545 12.9201C7.13115 12.2521 8.25456 11.7663 9.47773 11.441L9.10037 11.6709C10.0156 10.4737 11.2344 9.50645 12.6268 8.87751C16.8341 6.89094 22.23 8.82113 23.9259 13.1977C22.9326 12.2347 21.87 11.3889 20.6598 10.7687C17.0293 8.80812 12.9824 9.6626 10.1847 12.5904L9.97221 12.8073C9.404 12.8767 8.80542 13.1456 8.26757 13.3581C7.01838 13.896 5.86894 14.6377 5.01446 15.7004C4.88433 15.8609 4.62408 16.1862 4.50263 16.3554C1.8264 19.9555 1.71362 24.9783 3.56573 28.9861C4.58071 31.1766 6.58463 33.9786 9.20881 33.9352C13.0952 33.3713 15.7411 29.8753 17.2245 26.4487C19.0983 22.237 19.1894 17.5655 19.2328 13.0068Z" fill="#650000"/>
<path d="M57.2189 7.75001C57.2189 7.75001 59.2879 9.57176 62.2894 9.96647C62.3371 9.97514 62.3892 9.97948 62.4369 9.98382C65.0394 18.7629 71.9186 24.2368 77.5704 23.4821C80.624 23.07 82.693 18.533 82.3113 13.6663C82.0076 9.72791 80.1078 5.57693 75.8441 3.21733C75.6359 3.10022 75.4146 2.99178 75.1978 2.9007C75.1934 2.9007 75.1934 2.9007 75.1934 2.9007C72.9553 1.95946 70.4135 2.18501 70.4135 2.18501C68.6395 1.11799 65.9849 0.35025 63.1526 1.21341C63.1179 1.22209 63.0832 1.2351 63.0485 1.24377C60.4633 2.07223 58.0603 4.45785 57.2189 7.75001Z" fill="#FCCACA"/>
<path d="M63.1525 1.21378C63.2653 1.22245 66.3839 1.40896 69.6501 4.16327C73.6666 7.54651 75.6141 14.1482 75.6141 14.1482C75.6141 14.1482 75.4059 10.6738 73.8358 7.29928C72.309 4.0158 71.5586 2.54105 75.1934 2.90106C72.9553 1.95983 70.4135 2.18538 70.4135 2.18538C68.6394 1.11835 65.9849 0.350616 63.1525 1.21378Z" fill="#F2A5A5"/>
<path d="M61.6041 6.07606C63.1092 10.3788 64.6968 14.7727 67.8154 18.1646C70.3225 20.9406 73.9443 23.4087 77.8133 22.706C80.3161 21.9209 81.3137 18.6114 81.5783 16.2171C82.0424 11.8276 80.3204 7.10838 76.6335 4.54926C76.4644 4.43215 76.1217 4.19792 75.9439 4.09382C74.7901 3.36079 73.4628 3.02246 72.1052 2.91403C71.5283 2.88366 70.8734 2.8186 70.3182 2.93138C70.3182 2.93571 70.0449 2.79691 70.0449 2.79691C66.4621 0.918779 62.3502 1.38723 59.5395 4.40612C58.5896 5.37772 57.8522 6.51848 57.2189 7.75033C57.4271 3.05716 61.9251 -0.490904 66.5445 0.0556202C68.067 0.207432 69.5287 0.736605 70.7779 1.57808L70.3485 1.47832C71.6107 1.40024 72.8296 1.50001 74.0614 1.79062C75.2759 2.05954 76.4427 2.66679 77.4533 3.39115C81.5609 6.23654 83.5128 11.4849 82.988 16.3603C82.6583 19.3444 81.3918 23.1094 78.1777 24.081C73.8012 24.9745 69.4637 22.3547 66.6269 19.2403C63.4649 15.6489 61.2875 10.9167 61.6041 6.07606Z" fill="#650000"/>
<path d="M35.1765 39.3226C35.8575 43.4345 33.5109 47.2472 29.9325 47.8371C26.3584 48.4226 22.9101 45.5599 22.2291 41.448C21.5481 37.3317 23.8947 33.519 27.4731 32.9335C31.0472 32.3436 34.4955 35.2063 35.1765 39.3226Z" fill="#650000"/>
<path d="M32.2155 37.5919C32.4584 39.0667 31.708 40.4113 30.5455 40.6021C29.3787 40.793 28.238 39.7563 27.9951 38.2859C27.7522 36.8155 28.4982 35.4665 29.665 35.2757C30.8275 35.0848 31.9726 36.1215 32.2155 37.5919Z" fill="white"/>
<g opacity="0.2">
<path d="M27.8661 43.0953C28.0309 44.0929 27.6405 44.9864 26.9942 45.0905C26.3479 45.199 25.693 44.4746 25.5282 43.4813C25.3633 42.4837 25.7537 41.5902 26.4 41.4861C27.0419 41.382 27.7012 42.102 27.8661 43.0953Z" fill="white"/>
</g>
<path d="M54.9483 36.0851C55.6206 40.2014 59.0689 43.0641 62.643 42.4829C66.2171 41.8973 68.568 38.089 67.8957 33.9727C67.2191 29.8565 63.7751 26.9937 60.1967 27.5749C56.6226 28.1562 54.2716 31.9688 54.9483 36.0851Z" fill="#650000"/>
<path d="M57.1909 33.5046C57.4338 34.975 58.5745 36.016 59.7413 35.8252C60.9081 35.6343 61.6542 34.2897 61.4156 32.8149C61.1727 31.3445 60.0319 30.3079 58.8652 30.4987C57.7027 30.6852 56.9523 32.0342 57.1909 33.5046Z" fill="white"/>
<g opacity="0.2">
<path d="M63.0729 37.3348C63.2334 38.3324 63.8884 39.0524 64.5347 38.9483C65.1809 38.8442 65.5713 37.9507 65.4108 36.9531C65.246 35.9598 64.591 35.2354 63.9448 35.3439C63.2985 35.448 62.9081 36.3415 63.0729 37.3348Z" fill="white"/>
</g>
<path d="M48.8921 60.9919C58.3739 59.4391 57.7059 49.1289 57.7059 49.1289C57.7059 49.1289 55.0253 52.9069 47.7557 54.0997C40.4861 55.2881 36.7385 52.5599 36.7385 52.5599C36.7385 52.5599 39.4104 62.5448 48.8921 60.9919Z" fill="#650000"/>
<path d="M55.0738 57.6307C53.7639 59.2095 51.8077 60.5151 48.8929 60.9922C45.9737 61.4693 43.7052 60.8578 41.9572 59.7777C42.6469 58.4938 43.9091 57.5352 45.4619 57.2837C46.4812 57.1145 47.4788 57.275 48.3507 57.6914C49.0403 57.0234 49.9339 56.5506 50.9532 56.3815C52.506 56.1299 54.0111 56.6374 55.0738 57.6307Z" fill="#FFABAB"/>
<path fill-rule="evenodd" clip-rule="evenodd" d="M46.9521 61.864C42.8965 61.864 40.2636 59.743 38.7065 57.8042C36.7806 55.4142 36.0823 52.8551 36.0519 52.7466C35.9739 52.456 36.0866 52.1481 36.3382 51.9746C36.5855 51.8054 36.9108 51.8097 37.1537 51.9876C37.1884 52.0136 40.7928 54.5207 47.6417 53.3973C54.4863 52.2782 57.0975 48.7518 57.1235 48.7171C57.3013 48.4742 57.6093 48.3658 57.8999 48.4482C58.1862 48.5349 58.39 48.7865 58.4117 49.0858C58.416 49.1942 58.5765 51.8444 57.5182 54.7245C56.5249 57.4311 54.2434 60.8361 49.0037 61.6905C48.2837 61.812 47.5983 61.864 46.9521 61.864ZM38.0342 54.0219C39.0925 56.3858 41.682 60.4457 46.9477 60.4457C47.5246 60.4457 48.1319 60.398 48.7781 60.2895C55.2844 59.2269 56.668 53.7833 56.9413 50.9249C55.4405 52.2088 52.5821 54.0262 47.8716 54.7983C43.1611 55.5703 39.8689 54.7592 38.0342 54.0219Z" fill="#650000"/>
<path d="M50.6136 56.451C50.1669 56.5724 48.601 57.2274 48.5186 58.7412C47.9504 57.3315 46.2588 57.2144 45.799 57.2404L46.0463 55.6919L48.0502 55.9218L49.8763 55.063L50.6136 56.451Z" fill="#650000"/>
<path d="M56.174 48.2101C56.9027 47.5551 58.0999 47.707 58.7288 48.4357C59.1018 48.8824 59.2276 49.52 58.9804 50.0492C58.8242 49.9147 58.7288 49.7846 58.616 49.6762C57.9264 48.9301 57.1022 48.6786 56.174 48.2101Z" fill="#650000"/>
<path d="M37.8891 51.2022C37.3513 51.7531 36.8655 52.1218 36.4404 52.6857C36.1801 53.0457 36.0327 53.4187 35.8201 53.8351C34.623 52.5035 36.3493 50.5343 37.8891 51.2022Z" fill="#650000"/>
<path d="M11.2756 88.5489C11.2756 94.4002 27.732 108.076 27.732 108.076H30.8637C41.6814 108.076 50.4475 99.3319 50.4475 88.5489C50.4475 77.7659 41.6814 69.0259 30.8637 69.0259C25.5893 69.0259 28.1961 69.0259 28.1961 69.0259C28.1961 69.0259 11.2756 83.023 11.2756 88.5489Z" fill="#FFB42E"/>
<path fill-rule="evenodd" clip-rule="evenodd" d="M30.8617 108.788H27.4741L27.2789 108.623C27.2356 108.589 23.0889 105.136 18.9987 101.007C13.4033 95.3637 10.5666 91.1693 10.5666 88.5495C10.5666 83.0235 25.0798 70.6963 27.5479 68.636V68.3151H30.8617C42.0524 68.3151 51.1568 77.3934 51.1568 88.5495C51.1568 99.7098 42.0524 108.788 30.8617 108.788ZM27.9903 107.365H30.8617C41.2673 107.365 49.7385 98.9247 49.7385 88.5495C49.7385 78.1742 41.2673 69.7334 30.8617 69.7334H28.4501C23.6832 73.7066 11.9849 84.3508 11.9849 88.5495C11.9849 93.0127 23.3492 103.483 27.9903 107.365Z" fill="#650000"/>
<path d="M8.15448 88.5489C8.15448 99.3319 16.9205 108.076 27.7382 108.076C38.556 108.076 47.3264 99.3319 47.3264 88.5489C47.3264 77.7659 38.556 69.0259 27.7382 69.0259C16.9205 69.0259 8.15448 77.7659 8.15448 88.5489Z" fill="#FFD62C"/>
<path d="M8.15448 88.5486C8.15448 99.3316 16.9205 108.076 27.7383 108.076C35.2942 108.076 41.8524 103.812 45.1186 97.5619C41.6052 102.793 35.6238 106.233 28.8356 106.233C18.0179 106.233 9.24753 97.4882 9.24753 86.7052C9.24753 83.4607 10.0413 80.4028 11.451 77.7092C9.36898 80.8105 8.15448 84.5408 8.15448 88.5486Z" fill="#FFB42E"/>
<g opacity="0.7">
<path d="M9.0744 82.6022C11.7593 76.3519 17.6236 71.7802 24.646 70.9127V70.9257C24.6113 71.6587 26.06 72.3137 27.8731 72.3918C29.6862 72.4699 31.1826 71.9363 31.213 71.2033V71.199C40.0484 73.0858 46.6718 80.9193 46.6718 90.2883C46.6718 92.3529 46.3508 94.3438 45.7522 96.2089C46.7585 93.858 47.3181 91.2685 47.3181 88.5489C47.3181 77.7659 38.5477 69.0259 27.7299 69.0259C18.9942 69.0259 11.5945 74.7297 9.0744 82.6022Z" fill="white"/>
</g>
<path fill-rule="evenodd" clip-rule="evenodd" d="M27.7328 108.788C16.5421 108.788 7.43768 99.7095 7.43768 88.5491C7.43768 77.3931 16.5421 68.3147 27.7328 68.3147C38.9235 68.3147 48.0279 77.3931 48.0279 88.5491C48.0279 99.7095 38.9235 108.788 27.7328 108.788ZM27.7328 69.7331C17.3272 69.7331 8.85604 78.1738 8.85604 88.5491C8.85604 98.9244 17.3272 107.365 27.7328 107.365C38.1428 107.365 46.6096 98.9244 46.6096 88.5491C46.6096 78.1738 38.1428 69.7331 27.7328 69.7331Z" fill="#650000"/>
<path d="M13.0099 88.5492C13.0099 96.6559 19.6029 103.227 27.7314 103.227C35.8642 103.227 42.4528 96.6559 42.4528 88.5492C42.4528 80.4424 35.8642 73.8711 27.7314 73.8711C19.6029 73.8711 13.0099 80.4424 13.0099 88.5492Z" fill="#FF9C43"/>
<path d="M13.0099 88.5492C13.0099 96.6559 19.6029 103.227 27.7314 103.227C35.8642 103.227 42.4528 96.6559 42.4528 88.5492C42.4528 80.4424 35.8642 73.8711 27.7314 73.8711C19.6029 73.8711 13.0099 80.4424 13.0099 88.5492Z" fill="#FF9C43"/>
<path d="M13.0099 88.5494C13.0099 96.6561 19.6029 103.227 27.7314 103.227C34.3851 103.227 40.0065 98.8292 41.8282 92.7871C39.6205 98.1092 34.3634 101.857 28.2215 101.857C20.0931 101.857 13.5001 95.2855 13.5001 87.1787C13.5001 85.704 13.717 84.2856 14.1247 82.9453C13.4047 84.6716 13.0099 86.5671 13.0099 88.5494Z" fill="#FF7A45"/>
<path d="M42.4552 88.5492C42.4552 80.4467 35.8665 73.8711 27.7337 73.8711C21.08 73.8711 15.4586 78.2736 13.6369 84.3114C15.8447 78.9893 21.1061 75.2461 27.2436 75.2461C35.3764 75.2461 41.9651 81.8174 41.9651 89.9198C41.9651 91.3946 41.7482 92.8173 41.3448 94.1575C42.0605 92.4312 42.4552 90.5357 42.4552 88.5492Z" fill="#FF7A45"/>
<path d="M32.5823 91.8025C32.5823 93.7501 31.0772 95.2508 29.0516 95.7193V98.0659H26.4144V95.6716C24.3671 95.1337 22.7666 93.5158 22.6017 93.351L24.4842 91.4729C24.6273 91.6377 26.0847 93.1602 27.7807 93.1602C29.0516 93.1602 29.8757 92.5269 29.8757 91.8242C29.8757 89.7119 22.9097 89.3128 22.9097 85.2746C22.9097 83.3271 24.3931 81.8263 26.4144 81.3795V79.033H29.0516V81.4273C31.0989 81.9651 32.7038 83.5613 32.8686 83.7261L31.0078 85.6043C30.843 85.4177 29.3596 83.9604 27.6853 83.9604C26.4144 83.9604 25.5903 84.5503 25.5903 85.2529C25.5903 87.3653 32.5823 87.7643 32.5823 91.8025Z" fill="#FFD62C"/>
<path d="M7.54374 87.0391C9.43055 88.4011 14.6095 88.9302 16.2274 86.627C16.9691 85.5687 16.9171 84.2154 16.4616 83.2828C17.6891 82.9792 18.6998 82.2158 19.0294 81.3873C20.1615 78.5376 17.559 74.8334 14.8654 73.5451C11.5993 72.027 7.52205 75.2585 6.06465 79.1188C5.10173 81.6736 5.21884 85.2824 7.54374 87.0391Z" fill="#ED9696"/>
<g opacity="0.7">
<path d="M18.9345 78.026C18.1147 76.5513 16.7744 75.2674 15.4125 74.6167C12.2201 73.1333 8.24259 76.2867 6.81989 80.0603C6.02179 82.177 5.97842 85.0441 7.37943 86.9048C5.21502 85.1091 5.12393 81.6088 6.06517 79.1191C7.52256 75.2587 11.5998 72.0273 14.8659 73.5497C16.5619 74.3565 18.2188 76.1218 18.9345 78.026Z" fill="white"/>
</g>
<path d="M19.0341 81.3873C18.7002 82.2158 17.6939 82.9792 16.462 83.2828C16.9174 84.2154 16.9695 85.5687 16.2278 86.627C14.6142 88.9302 9.43094 88.4011 7.54413 87.0391C6.55518 86.293 5.96528 85.2087 5.68768 84.0159C7.81305 87.0261 12.8576 87.6246 14.4711 85.3214C15.2128 84.2631 15.1651 82.9055 14.7097 81.9772C15.9372 81.6736 16.9478 80.9102 17.2775 80.0817C18.1103 77.9781 16.9131 75.4103 15.1478 73.6926C17.7372 75.0893 20.1229 78.6374 19.0341 81.3873Z" fill="#D87979"/>
<path fill-rule="evenodd" clip-rule="evenodd" d="M12.0916 88.9125C10.2308 88.9125 8.24857 88.418 7.12949 87.6112L7.12082 87.6026C4.55736 85.6724 4.3188 81.747 5.40317 78.8669C6.40947 76.1993 8.56086 73.8614 10.8858 72.9158C12.3865 72.3042 13.8656 72.2999 15.1669 72.9028C18.3462 74.4166 20.9531 78.4765 19.6909 81.6472C19.3482 82.5147 18.4764 83.2868 17.379 83.7292C17.6219 84.6965 17.5785 85.9413 16.8108 87.0344C16.1732 87.9409 15.0671 88.5481 13.601 88.7954C13.1239 88.8735 12.6121 88.9125 12.0916 88.9125ZM7.96663 86.4662C8.96425 87.1818 11.3108 87.7414 13.3668 87.3944C14.1215 87.2686 15.1278 86.9606 15.6483 86.2189C16.2426 85.3688 16.1688 84.2887 15.8262 83.5947L15.4401 82.8053L16.2946 82.5928C17.2705 82.3542 18.125 81.747 18.3723 81.1224C19.3222 78.7411 17.0623 75.3795 14.5596 74.1867C13.3928 73.6402 12.2087 73.9091 11.4193 74.2301C9.44571 75.0325 7.60662 77.0538 6.73044 79.37C5.83258 81.7513 5.97138 84.9524 7.96663 86.4662Z" fill="#650000"/>
<path d="M10.8264 80.0947C12.8086 80.9752 14.8038 81.8514 16.8034 82.6582L16.1311 83.9117C14.3267 82.6669 12.5744 81.3873 10.8264 80.0947Z" fill="#650000"/>
<path d="M93.0497 27.5727C92.1389 26.0806 91.6878 24.2892 91.8829 22.4111C92.3471 17.8654 96.4156 14.5559 100.966 15.02C105.511 15.4884 108.821 19.557 108.357 24.1027C107.888 28.6527 103.82 31.9622 99.274 31.4938C98.0075 31.3636 96.8407 30.9559 95.8214 30.3357L91.9871 31.1945L93.0497 27.5727Z" fill="#F70200"/>
<g opacity="0.5">
<path d="M100.8 16.6072C96.549 16.1691 92.7233 19.0275 91.8558 23.1134C91.8558 22.8228 91.8688 22.5278 91.8992 22.2329C92.3676 17.6829 96.4319 14.3733 100.982 14.8418C105.532 15.3059 108.841 19.3745 108.373 23.9245C108.341 24.2223 108.295 24.5144 108.234 24.8007C108.217 20.6237 105.05 17.0409 100.8 16.6072Z" fill="white"/>
</g>
<path fill-rule="evenodd" clip-rule="evenodd" d="M100.134 32.249C99.822 32.249 99.5097 32.2331 99.1974 32.2013C97.9526 32.0755 96.7771 31.7025 95.7014 31.0909L92.1403 31.889C91.8974 31.9454 91.6372 31.8673 91.468 31.6808C91.2945 31.4986 91.2338 31.2384 91.3032 30.9955L92.2791 27.6643C91.3639 26.042 90.9822 24.2073 91.1731 22.3422C91.4203 19.9522 92.5784 17.8008 94.4435 16.287C96.3043 14.7689 98.6466 14.0706 101.032 14.3178C103.422 14.5607 105.574 15.7232 107.087 17.5839C108.605 19.4491 109.304 21.787 109.057 24.1769C108.814 26.5669 107.651 28.7183 105.79 30.2321C104.173 31.5507 102.19 32.249 100.134 32.249ZM95.8185 29.6292C95.9443 29.6292 96.0744 29.6639 96.1872 29.7289C97.1501 30.3188 98.2128 30.6745 99.3406 30.7916C101.353 30.9955 103.327 30.4056 104.893 29.1303C106.463 27.8551 107.439 26.042 107.647 24.0338C107.851 22.0212 107.265 20.0476 105.986 18.4818C104.71 16.9116 102.902 15.9357 100.889 15.7275C98.8765 15.5236 96.9072 16.1092 95.3371 17.3888C93.7669 18.664 92.791 20.4727 92.5871 22.4853C92.4136 24.1466 92.7823 25.7775 93.6541 27.2002C93.7582 27.3737 93.7842 27.5775 93.7279 27.7727L93.0035 30.2407L95.6624 29.6465C95.7144 29.6349 95.7665 29.6292 95.8185 29.6292Z" fill="#650000"/>
<g opacity="0.3">
<path d="M93.0039 27.4904C95.2724 29.4119 98.3954 30.249 101.497 29.4769C104.936 28.6225 107.474 26.0026 108.385 22.8232C108.406 23.244 108.398 23.6734 108.354 24.1028C107.886 28.6528 103.817 31.9623 99.2715 31.4939C98.005 31.3638 96.8382 30.956 95.8189 30.3358L91.9846 31.1946L93.0472 27.5728C93.0328 27.5439 93.0183 27.5164 93.0039 27.4904Z" fill="#650000"/>
</g>
<path d="M97.4647 20.9322C98.1804 20.2165 99.3428 20.3466 100.063 21.0623L100.171 21.1751L100.284 21.0623C101 20.3466 102.162 20.2165 102.878 20.9322C103.594 21.6522 103.594 22.8103 102.878 23.5303L102.769 23.6388L100.514 25.8943C100.327 26.0808 100.019 26.0808 99.8286 25.8943L97.5775 23.6388L97.4647 23.5303C96.749 22.8103 96.749 21.6522 97.4647 20.9322Z" fill="white"/>
</svg>
