<svg width="35" height="28" viewBox="0 0 35 28" fill="none" xmlns="http://www.w3.org/2000/svg">
<path d="M25.3125 20.5H25.8125H26.6875H27.1875V21V26.25C27.1875 26.9418 27.7457 27.5 28.4375 27.5C29.1293 27.5 29.6875 26.9418 29.6875 26.25V16.4336V14.7044L30.6103 16.1668L31.3213 17.2933L31.3213 17.2934C31.6883 17.8751 32.4625 18.0506 33.0434 17.6842C33.6245 17.3175 33.8013 16.5485 33.4336 15.9613C33.4335 15.9611 33.4334 15.961 33.4334 15.9608L30.6064 11.4662L30.6057 11.465C29.7406 10.0809 28.2225 9.24453 26.5891 9.24453H25.9164C24.2899 9.24453 22.7704 10.0852 21.8989 11.4664L25.3125 20.5ZM25.3125 20.5V21V26.25C25.3125 26.9418 24.7543 27.5 24.0625 27.5C23.3707 27.5 22.8125 26.9418 22.8125 26.25V16.4336V14.7002L21.8893 16.1673L21.1839 17.2884L21.1834 17.2892C20.8175 17.873 20.0449 18.0463 19.4621 17.6787C18.8804 17.3117 18.7049 16.5375 19.0713 15.9566L19.0715 15.9563L21.8987 11.4668L25.3125 20.5ZM5.31251 21.875V21.375H4.81251H3.83907C3.58714 21.375 3.40215 21.1263 3.48273 20.8775C3.48284 20.8772 3.48295 20.8768 3.48307 20.8765L5.18299 15.7712L4.30987 15.3116L2.74624 17.3782C2.74621 17.3783 2.74618 17.3783 2.74615 17.3783C2.32806 17.9291 1.54234 18.0343 0.996356 17.6209C0.451563 17.2084 0.340378 16.4226 0.754529 15.8708C0.75473 15.8705 0.754932 15.8703 0.755134 15.87L3.97503 11.6224L3.97527 11.622C5.10548 10.1285 6.87725 9.25 8.75001 9.25C10.6228 9.25 12.3945 10.1285 13.5247 11.622L13.525 11.6224L16.7461 15.8716L16.7462 15.8718C17.1643 16.4227 17.0541 17.2071 16.505 17.6199C15.9513 18.0362 15.1664 17.927 14.7551 17.38L14.7542 17.3788L13.1901 15.3116L12.317 15.7712L14.0178 20.8791L14.0183 20.8806C14.0995 21.122 13.9187 21.375 13.6609 21.375H12.6875H12.1875V21.875V26.25C12.1875 26.9418 11.6293 27.5 10.9375 27.5C10.2457 27.5 9.68751 26.9418 9.68751 26.25V21.875V21.375H9.18751H8.31251H7.81251V21.875V26.25C7.81251 26.9418 7.25433 27.5 6.56251 27.5C5.87068 27.5 5.31251 26.9418 5.31251 26.25V21.875ZM8.75001 0.5C9.54566 0.5 10.3087 0.816071 10.8713 1.37868L11.2163 1.03375L10.8713 1.37868C11.4339 1.94129 11.75 2.70435 11.75 3.5C11.75 4.29565 11.4339 5.05871 10.8713 5.62132C10.3087 6.18393 9.54566 6.5 8.75001 6.5C7.95436 6.5 7.19129 6.18393 6.62869 5.62132C6.06608 5.05871 5.75001 4.29565 5.75001 3.5C5.75001 2.70435 6.06608 1.94129 6.62869 1.37868C7.19129 0.816071 7.95436 0.5 8.75001 0.5ZM26.25 0.5C27.0457 0.5 27.8087 0.81607 28.3713 1.37868C28.9339 1.94129 29.25 2.70435 29.25 3.5C29.25 4.29565 28.9339 5.05871 28.3713 5.62132C27.8087 6.18393 27.0457 6.5 26.25 6.5C25.4544 6.5 24.6913 6.18393 24.1287 5.62132C23.5661 5.05871 23.25 4.29565 23.25 3.5C23.25 2.70435 23.5661 1.94129 24.1287 1.37868C24.6913 0.81607 25.4544 0.5 26.25 0.5Z" stroke="#667085"/>
</svg>
