<svg width="28" height="28" viewBox="0 0 28 28" fill="none" xmlns="http://www.w3.org/2000/svg">
<path d="M3 21H25M3 21V25C3 25.5304 3.21071 26.0391 3.58579 26.4142C3.96086 26.7893 4.46957 27 5 27H23C23.5304 27 24.0391 26.7893 24.4142 26.4142C24.7893 26.0391 25 25.5304 25 25V21M3 21C2.46957 21 1.96086 20.7893 1.58579 20.4142C1.21071 20.0391 1 19.5304 1 19V17C1 15.9391 1.42143 14.9217 2.17157 14.1716C2.92172 13.4214 3.93913 13 5 13H7C7.53043 13 8.03914 12.7893 8.41421 12.4142C8.78929 12.0391 9 11.5304 9 11V6C9 4.67392 9.52678 3.40215 10.4645 2.46447C11.4021 1.52678 12.6739 1 14 1C15.3261 1 16.5979 1.52678 17.5355 2.46447C18.4732 3.40215 19 4.67392 19 6V11C19 11.5304 19.2107 12.0391 19.5858 12.4142C19.9609 12.7893 20.4696 13 21 13H23C24.0609 13 25.0783 13.4214 25.8284 14.1716C26.5786 14.9217 27 15.9391 27 17V19C27 19.5304 26.7893 20.0391 26.4142 20.4142C26.0391 20.7893 25.5304 21 25 21" stroke="#667085" stroke-linecap="round" stroke-linejoin="round"/>
</svg>
