<svg width="100" height="131" viewBox="0 0 100 131" fill="none" xmlns="http://www.w3.org/2000/svg">
<g opacity="0.2">
<path d="M80.6699 126.409C80.6699 128.449 64.2734 130.102 44.0434 130.102C23.8176 130.102 7.42114 128.449 7.42114 126.409C7.42114 124.369 23.8176 122.716 44.0434 122.716C64.2734 122.716 80.6699 124.369 80.6699 126.409Z" fill="#6B184E"/>
</g>
<path d="M86.6753 77.2368C86.6753 77.2368 82.8248 94.2666 70.4276 93.0851C70.4276 93.0851 71.1416 98.9118 70.5678 105.512C70.1598 110.221 69.0888 115.33 66.6323 119.002C66.6323 119.002 70.4276 120.387 70.4276 123.128C70.4276 125.865 64.9833 125.865 59.6368 125.865C54.2903 125.865 51.9018 126.741 49.2753 117.931C46.6488 109.12 45.8498 109.12 45.8498 109.12C45.8498 109.12 43.1086 109.12 40.0316 109.12C40.0316 109.12 40.0485 114.28 36.6911 117.931C36.6911 117.931 38.9011 119.822 38.8586 122.189C38.8203 124.561 35.9898 126.465 26.8141 125.865C22.6406 125.593 20.1033 124.454 18.5946 122.827C16.7798 120.876 16.4398 118.228 16.5163 115.529C16.6566 110.582 17.1156 104.705 16.3761 101.113C15.6408 97.5476 16.0531 85.4648 17.9316 81.3551C17.8126 81.3466 17.3918 81.1936 16.0573 80.4796C16.0573 80.4796 10.3241 85.3501 6.09105 81.2956C2.69105 78.0316 4.20831 68.8601 11.2463 63.3351C12.9591 61.9921 14.9991 60.8616 17.3748 60.0881C17.3748 60.0881 19.8016 55.6893 22.4323 57.2491C25.0588 58.8088 23.1761 62.6211 22.4323 63.5518C22.4323 63.5518 32.5048 58.6856 44.834 60.0881C52.059 60.9083 64.1248 64.7376 70.3893 72.9826C71.3838 74.2916 72.2338 75.7068 72.8925 77.2368L76.1523 72.9953C76.1523 72.9953 75.3873 72.1708 74.7626 71.0743C74.0188 69.7696 73.4748 68.0781 74.635 66.9093C76.7813 64.7461 79.0041 66.9093 79.0041 66.9093C79.0041 66.9093 80.109 65.8128 82.1151 65.5621C83.5175 65.3793 85.3578 65.6088 87.5635 66.9093C92.927 70.0628 91.2823 76.0638 86.6753 77.2368Z" fill="#F9C9CA"/>
<path d="M70.4275 123.128C70.4275 125.865 64.9832 125.865 59.6367 125.865C54.2902 125.865 51.9017 126.74 49.2752 117.93C46.6487 109.12 45.8497 109.12 45.8497 109.12H40.0315C40.0315 109.12 40.0485 114.279 36.691 117.93C36.691 117.93 38.901 119.821 38.8585 122.189C38.8202 124.56 35.9897 126.464 26.814 125.865C22.6405 125.593 20.1032 124.454 18.5945 122.826C22.7382 123.413 33.495 124.654 34.6935 122.002C36.181 118.708 31.0895 117.926 31.0895 117.926C31.0895 117.926 36.827 111.27 26.1085 101.185C26.1085 101.185 45.7435 110.229 62.8497 101.24C62.8497 101.24 59.9002 107.726 54.8342 110.752C53.7292 111.411 53.1215 112.677 53.351 113.956C53.8142 116.536 54.6727 120.455 55.7182 121.126C57.3035 122.146 64.9577 123.604 66.2285 121.415C67.5035 119.231 61.3367 118.925 61.3367 118.925C61.3367 118.925 67.7032 116.302 70.3892 105.274C70.3892 105.274 70.453 105.359 70.5677 105.512C70.1597 110.221 69.0887 115.329 66.6322 119.001C66.6322 119.001 70.4275 120.387 70.4275 123.128Z" fill="#F2A5A5"/>
<path d="M70.3898 72.9826C64.0573 75.3456 56.0971 76.7523 47.4483 76.7523C30.0361 76.7523 15.3991 71.0488 11.2468 63.3351C12.9596 61.9921 14.9996 60.8616 17.3753 60.0881C17.3753 60.0881 19.8021 55.6893 22.4328 57.2491C25.0593 58.8088 23.1766 62.6211 22.4328 63.5518C22.4328 63.5518 32.5053 58.6856 44.8346 60.0881C52.0596 60.9083 64.1253 64.7376 70.3898 72.9826Z" fill="#F2A5A5"/>
<path fill-rule="evenodd" clip-rule="evenodd" d="M30.0232 126.881C29.0145 126.881 27.9251 126.843 26.7549 126.766C16.6187 126.103 15.4797 120.4 15.6157 115.504C15.6454 114.488 15.6879 113.413 15.7304 112.371C15.8919 108.279 16.0619 104.046 15.4967 101.296C14.7869 97.8534 15.0759 86.8204 16.7632 81.865C16.5804 81.7757 16.3764 81.6694 16.1554 81.5547C13.7499 83.3524 9.02394 85.3499 5.47094 81.9457C3.59669 80.1479 2.98044 76.884 3.81769 73.2077C4.95244 68.2352 8.95169 62.0217 16.7674 59.34C17.2562 58.5495 18.6119 56.62 20.4139 56.1312C21.2639 55.8975 22.1224 56.0207 22.8917 56.4755C23.8267 57.028 24.4217 57.8822 24.6129 58.9447C24.7872 59.8924 24.6172 60.904 24.3239 61.7965C28.0299 60.4237 35.8372 58.1585 44.9364 59.1912C50.0109 59.7692 55.8717 61.5712 60.6062 64.015C66.4074 67.007 70.6872 70.9637 73.0714 75.524L74.9924 73.0292C73.5262 71.2145 72.0514 68.2395 73.9979 66.2717C75.7149 64.5377 77.7294 64.9245 79.0087 65.7617C80.3007 64.8947 83.4797 63.4625 88.0229 66.1315C90.7344 67.7252 92.1327 70.2497 91.7629 72.8805C91.4272 75.2222 89.7484 77.1645 87.4279 77.955C87.0837 79.2385 86.0424 82.6852 83.9684 86.0767C80.7257 91.3807 76.4119 94.1177 71.4352 94.0455C71.7837 97.845 72.5444 110.693 67.9417 118.61C69.2337 119.299 71.3289 120.778 71.3289 123.128C71.3289 124.841 69.9349 125.946 67.1894 126.413C65.0857 126.766 62.3147 126.766 59.6372 126.766C59.1824 126.766 58.7447 126.775 58.3282 126.779C53.3812 126.851 50.8949 126.52 48.4129 118.185C46.6662 112.333 45.7779 110.54 45.4549 110.021H40.8862C40.7417 111.619 40.1722 115.032 37.9112 117.884C38.6592 118.725 39.7939 120.31 39.7599 122.206C39.7429 123.213 39.3307 124.118 38.5657 124.824C37.0739 126.201 34.2647 126.881 30.0232 126.881ZM18.6672 81.9202C16.9459 86.0257 16.5889 97.6792 17.2604 100.935C17.8724 103.897 17.6982 108.24 17.5324 112.444C17.4857 113.527 17.4474 114.552 17.4177 115.555C17.3369 118.428 17.7917 120.344 18.8882 121.781C20.3289 123.668 22.9427 124.709 26.8739 124.964C33.7292 125.41 36.3514 124.416 37.3417 123.498C37.7497 123.128 37.9494 122.695 37.9579 122.176C37.9919 120.268 36.1219 118.627 36.1007 118.615C35.9179 118.453 35.8032 118.224 35.7904 117.981C35.7777 117.739 35.8627 117.497 36.0242 117.318C39.0969 113.986 39.1267 109.171 39.1267 109.12C39.1267 108.882 39.2244 108.653 39.3944 108.483C39.5602 108.313 39.7897 108.219 40.0319 108.219H45.8502C46.4707 108.219 47.3207 108.219 50.1384 117.671C51.2179 121.292 52.2719 123.307 53.5512 124.208C54.7157 125.028 56.2202 125.007 58.3027 124.977C58.7277 124.968 59.1697 124.964 59.6372 124.964C63.8107 124.964 69.5269 124.964 69.5269 123.128C69.5269 121.075 66.3564 119.86 66.3267 119.847C66.0674 119.754 65.8634 119.545 65.7784 119.282C65.6934 119.018 65.7317 118.729 65.8847 118.5C71.5287 110.055 69.5524 93.3655 69.5312 93.1955C69.5014 92.9235 69.5907 92.6557 69.7819 92.4559C69.9732 92.2604 70.2409 92.1627 70.5129 92.1882C75.2687 92.6429 79.2722 90.28 82.4087 85.1715C84.8269 81.236 85.7874 77.0794 85.7959 77.0369C85.8724 76.7097 86.1274 76.4462 86.4547 76.3655C88.3374 75.8852 89.7229 74.419 89.9737 72.6255C90.2457 70.7172 89.2002 68.9152 87.1092 67.6827C82.3917 64.9117 79.6632 67.5212 79.6377 67.5467C79.2849 67.891 78.7239 67.8952 78.3754 67.5509C78.1119 67.3044 76.7009 66.106 75.2772 67.5425C73.7939 69.0385 76.7817 72.3492 76.8114 72.3832C77.1132 72.7019 77.1344 73.1949 76.8667 73.5434L73.6069 77.7892C73.4114 78.04 73.0969 78.1717 72.7782 78.1334C72.4637 78.0952 72.1917 77.8869 72.0642 77.5937C67.2277 66.361 52.0722 61.8177 44.7324 60.9805C32.7984 59.6247 22.9214 64.3167 22.8237 64.3634C22.4412 64.5462 21.9864 64.4442 21.7229 64.1127C21.4637 63.7855 21.4637 63.318 21.7272 62.9865C22.1564 62.451 23.0872 60.6192 22.8407 59.2634C22.7387 58.7109 22.4624 58.32 21.9694 58.0267C21.6167 57.8142 21.2724 57.7675 20.8899 57.8695C19.6829 58.1967 18.5099 59.8967 18.1614 60.5257C18.0509 60.7212 17.8682 60.8742 17.6514 60.9422C10.3372 63.3307 6.61844 69.0512 5.57719 73.6072C4.88869 76.6162 5.32644 79.3107 6.71619 80.6452C10.3202 84.0962 15.4202 79.8377 15.4712 79.7909C15.7559 79.5529 16.1554 79.5104 16.4827 79.6847C17.2732 80.1097 17.6897 80.3052 17.8979 80.3944C18.1742 80.3774 18.4504 80.488 18.6374 80.7005C18.9392 81.0447 18.9604 81.5504 18.6799 81.9032C18.6771 81.9089 18.6729 81.9145 18.6672 81.9202Z" fill="#6B184E"/>
<path fill-rule="evenodd" clip-rule="evenodd" d="M17.9444 82.2517C17.9246 82.2517 17.9048 82.2517 17.8849 82.2517C17.5959 82.2347 17.3324 82.0817 17.1752 81.8352C17.0222 81.593 16.9924 81.287 17.0987 81.0192L17.1199 80.9597C17.2389 80.6707 17.4939 80.4625 17.8042 80.4072C18.1102 80.352 18.4247 80.4625 18.6329 80.6962C18.8922 80.9895 18.9517 81.3932 18.7859 81.7332C18.6329 82.052 18.3057 82.2517 17.9444 82.2517ZM17.9444 80.4497C17.6214 80.4497 17.3112 80.6452 17.1667 80.947C17.0137 81.2615 17.0604 81.6397 17.2857 81.8947L17.9402 81.3125L17.9912 80.4497C17.9742 80.4497 17.9586 80.4497 17.9444 80.4497Z" fill="#39005E"/>
<path d="M26.1086 101.186C26.1086 101.186 26.3891 101.887 27.1413 102.937C27.4686 103.396 27.8893 103.914 28.4291 104.462C28.8541 104.896 29.3513 105.338 29.9293 105.776C30.4223 106.15 30.9791 106.507 31.5868 106.859C34.2006 108.381 37.8513 109.711 42.8068 110.043C47.3926 110.319 51.1071 109.584 54.0353 108.428C54.9831 108.049 55.8543 107.637 56.6363 107.191C57.5416 106.672 58.3363 106.124 59.0248 105.572C59.8791 104.883 60.5676 104.203 61.1201 103.591C62.3271 102.24 62.8498 101.241 62.8498 101.241C62.9986 100.999 62.9263 100.68 62.6883 100.527C62.4461 100.374 62.1316 100.45 61.9786 100.693C61.9786 100.693 60.6908 102.418 58.0388 104.207C57.3673 104.662 56.6151 105.121 55.7693 105.567C55.0341 105.95 54.2393 106.324 53.3638 106.66C50.6353 107.705 47.1843 108.385 42.9258 108.105C39.2666 107.888 36.3723 107.068 34.1028 106.06C32.5133 105.351 31.2511 104.522 30.2268 103.774C29.5256 103.26 28.9306 102.796 28.4588 102.367C27.4048 101.419 26.9033 100.748 26.9033 100.748C26.7843 100.527 26.5123 100.442 26.2913 100.565C26.0703 100.684 25.9896 100.965 26.1086 101.186Z" fill="#6B184E"/>
<path d="M71.3668 93.3867C71.3668 93.3867 70.5848 86.6759 68.7573 80.2967C67.8691 77.2027 66.7428 74.1894 65.3403 72.0432C65.2128 71.8349 64.9408 71.7712 64.7368 71.9029C64.5286 72.0347 64.4691 72.3067 64.5966 72.5149C65.8631 74.6442 66.8236 77.6022 67.5546 80.6239C69.0888 86.9522 69.5818 93.5609 69.5818 93.5609C69.6286 94.0582 70.0706 94.4237 70.5593 94.3769C71.0523 94.3302 71.4136 93.8839 71.3668 93.3867Z" fill="#6B184E"/>
<path d="M66.8535 118.13C66.8535 118.13 65.077 117.765 62.3103 118.016C61.0395 118.13 59.5648 118.373 57.954 118.844C57.7203 118.9 57.5715 119.138 57.6268 119.376C57.682 119.614 57.92 119.762 58.1538 119.707C59.7263 119.427 61.1458 119.346 62.357 119.367C64.8603 119.405 66.42 119.894 66.42 119.894C66.9003 120.013 67.3848 119.716 67.5038 119.231C67.627 118.747 67.3338 118.254 66.8535 118.13Z" fill="#6B184E"/>
<path d="M37.1119 117.161C37.1119 117.161 35.9559 116.477 33.8479 116.588C32.6749 116.647 31.1916 116.932 29.4364 117.773C29.2111 117.863 29.1006 118.122 29.1899 118.347C29.2834 118.577 29.5384 118.687 29.7636 118.598C31.0854 118.16 32.2159 118.011 33.1594 118.003C35.1484 117.99 36.1769 118.708 36.1769 118.708C36.6019 118.972 37.1501 118.836 37.4094 118.411C37.6686 117.982 37.5369 117.425 37.1119 117.161Z" fill="#6B184E"/>
<path fill-rule="evenodd" clip-rule="evenodd" d="M85.7573 78.2266C84.5673 78.2266 82.591 77.9036 80.5468 76.1781C76.9853 73.1818 77.9203 67.3423 78.0351 66.6836C78.0946 66.3733 78.3113 66.1141 78.6046 65.9993C78.6442 65.9852 78.6839 65.9738 78.7236 65.9653C79.7776 65.1621 83.1053 63.2368 88.0226 66.1311C90.7341 67.7248 92.1323 70.2493 91.7626 72.8801C91.4013 75.3961 89.493 77.4531 86.9005 78.1118C86.8538 78.1246 86.4288 78.2266 85.7573 78.2266ZM79.7478 67.4528C79.5821 68.8001 79.3228 72.7951 81.7071 74.8011C84.2103 76.9091 86.4288 76.3693 86.4543 76.3651C88.337 75.8848 89.7225 74.4186 89.9733 72.6251C90.2453 70.7168 89.1998 68.9148 87.1088 67.6823C82.9226 65.2258 80.3173 66.9896 79.7478 67.4528Z" fill="#6B184E"/>
<path d="M20.7285 60.3981C13.087 54.6521 10.384 46.8023 13.665 37.5416C16.946 28.2808 19.717 26.8698 23.933 18.1743C28.3403 9.07506 36.4323 1.00006 57.865 5.16506C79.2978 9.33006 80.6578 26.0878 80.9383 34.1501C81.223 42.2166 84.7803 51.3371 80.9383 60.3981C76.82 70.1263 63.7555 72.3831 46.7768 70.0031C29.8023 67.6231 24.9105 63.5473 20.7285 60.3981Z" fill="#F9C9CA"/>
<g opacity="0.6">
<path d="M80.4537 28.1831C78.8175 19.9933 73.879 10.2183 58.2092 7.17531C56.998 6.93731 55.825 6.74181 54.6945 6.58456C54.7327 6.67806 54.7455 6.77581 54.7412 6.87356C54.6817 7.60456 53.3302 8.08906 51.728 7.95731C50.1257 7.82131 48.872 7.12006 48.9315 6.38906C48.94 6.27856 48.9782 6.17373 49.0462 6.07456C34.3242 5.57731 27.9917 12.5176 24.2772 20.1803C20.0612 28.8801 17.2902 30.2911 14.0092 39.5518C12.8235 42.8966 12.4197 46.0543 12.747 48.9996C11.931 45.5018 12.203 41.6598 13.665 37.5416C16.946 28.2808 19.717 26.8698 23.933 18.1743C28.3402 9.07506 36.4322 1.00006 57.865 5.16506C74.8437 8.46306 79.2212 19.6618 80.4537 28.1831Z" fill="white"/>
</g>
<path d="M80.9422 58.4477C76.8197 68.176 63.7552 70.4327 46.7765 68.0527C29.802 65.6727 24.9145 61.597 20.724 58.4477C13.9027 53.3137 11.017 46.501 12.8147 38.5067C13.5245 43.492 18.0465 58.775 47.8475 63.5562C81.346 68.924 82.3617 48.3497 82.6422 46.8325C82.876 50.6575 82.5912 54.559 80.9422 58.4477Z" fill="#F2A5A5"/>
<path d="M46.6492 50.776C46.6492 50.776 46.6747 60.9505 52.0807 61.469C57.0362 61.9493 59.6372 52.6077 59.6372 52.6077C59.6372 52.6077 53.3812 54.0103 46.6492 50.776Z" fill="#6B184E"/>
<path fill-rule="evenodd" clip-rule="evenodd" d="M52.4503 62.3911C52.3001 62.3911 52.1486 62.384 51.9956 62.3698C45.8458 61.7748 45.748 51.2263 45.748 50.7758C45.748 50.4656 45.9053 50.1766 46.1688 50.0108C46.4323 49.8451 46.7595 49.8281 47.04 49.9641C53.3853 53.0113 59.3821 51.7406 59.4416 51.7278C59.7518 51.6598 60.0748 51.7576 60.2915 51.9871C60.5083 52.2166 60.5933 52.5438 60.5083 52.8498C60.3935 53.2493 57.784 62.3911 52.4503 62.3911ZM47.618 52.1868C47.8773 55.2723 48.9695 60.2661 52.1698 60.5721C55.081 60.8568 57.308 56.5091 58.3323 53.7083C56.2158 53.9251 52.1145 53.9888 47.618 52.1868Z" fill="#6B184E"/>
<path d="M47.8474 57.4866C48.7527 56.6409 49.9597 56.1309 51.2814 56.1309C53.4829 56.1309 55.3657 57.5546 56.0924 59.5521C55.0002 60.7761 53.6614 61.6219 52.0804 61.4689C49.9214 61.2606 48.6209 59.5139 47.8474 57.4866Z" fill="#FF6877"/>
<path fill-rule="evenodd" clip-rule="evenodd" d="M52.4586 62.3906C52.3056 62.3906 52.1512 62.3835 51.9954 62.3694C50.4569 62.2206 48.3404 61.3069 47.0059 57.8091C46.8741 57.4649 46.9634 57.0781 47.2311 56.8274C48.3404 55.7946 49.7769 55.2294 51.2814 55.2294C53.7931 55.2294 56.0669 56.8401 56.9381 59.2414C57.0529 59.5516 56.9849 59.9001 56.7639 60.1509C55.4421 61.6384 53.9929 62.3906 52.4586 62.3906ZM48.9396 57.7624C49.7301 59.4964 50.8139 60.4441 52.1696 60.5716C53.1386 60.6651 54.0949 60.2571 55.0256 59.3604C54.3031 57.9494 52.8581 57.0314 51.2814 57.0314C50.4399 57.0314 49.6239 57.2906 48.9396 57.7624Z" fill="#6B184E"/>
<path fill-rule="evenodd" clip-rule="evenodd" d="M58.2132 71.7757C54.6985 71.7757 50.8395 71.4824 46.6532 70.8959C30.04 68.5669 24.821 64.6229 20.6262 61.4524L20.1842 61.1209C16.185 58.1119 13.5117 54.5589 12.241 50.5639C10.9405 46.4712 11.1317 41.9874 12.8147 37.2402C14.7655 31.7364 16.5887 28.8804 18.5182 25.8544C19.9292 23.6402 21.3912 21.3537 23.121 17.7794C25.9047 12.0334 29.3982 8.25517 34.1115 5.88792C40.1635 2.85342 47.9877 2.32642 58.039 4.28142C67.5802 6.13442 74.3377 10.6734 78.1287 17.7709C81.0867 23.3129 81.6647 29.1439 81.839 34.1207C81.924 36.4624 82.2852 38.8807 82.6677 41.4434C83.6027 47.6867 84.5717 54.1424 81.771 60.7512C79.6842 65.6769 75.3535 68.9962 68.8977 70.6154C65.8165 71.3889 62.2464 71.7757 58.2132 71.7757ZM47.2397 4.94017C33.3932 4.94017 27.9362 11.9697 24.7445 18.5657C22.968 22.2334 21.4125 24.6729 20.0397 26.8234C18.0847 29.8877 16.3975 32.5354 14.5147 37.8437C11.4462 46.4967 13.7837 54.0489 21.268 59.6802L21.7142 60.0159C25.739 63.0589 30.754 66.8457 46.904 69.1109C55.6717 70.3392 62.9222 70.2584 68.46 68.8687C74.3377 67.3897 78.2562 64.4232 80.1092 60.0499C82.7102 53.9087 81.7837 47.7079 80.8869 41.7112C80.4959 39.0974 80.1262 36.6282 80.0369 34.1844C79.8074 27.6309 79.1954 10.2272 57.6947 6.04942C53.755 5.28442 50.2912 4.94017 47.2397 4.94017Z" fill="#6B184E"/>
<path d="M69.0892 32.9681C71.6817 33.1508 73.5857 36.2151 73.3349 39.8021C73.0842 43.3891 70.7722 46.1516 68.1797 45.9646C65.5829 45.7776 63.6789 42.7133 63.9297 39.1306C64.1804 35.5436 66.4924 32.7811 69.0892 32.9681Z" fill="#6B184E"/>
<path d="M67.1384 35.9822C67.8864 36.1267 68.3284 37.2445 68.1244 38.4727C67.9204 39.7052 67.1469 40.585 66.4032 40.4405C65.6552 40.3002 65.2132 39.1825 65.4172 37.95C65.6212 36.7217 66.3904 35.842 67.1384 35.9822Z" fill="white"/>
<g opacity="0.3">
<path d="M71.9622 39.9899C72.3659 40.1939 72.3745 41.1629 71.9792 42.1532C71.584 43.1434 70.9337 43.7809 70.53 43.5769C70.1262 43.3729 70.1177 42.4039 70.5087 41.4137C70.904 40.4234 71.5542 39.7859 71.9622 39.9899Z" fill="white"/>
</g>
<path d="M32.9813 36.9378C33.0875 36.1133 33.3298 35.3525 33.6698 34.6003C34.0098 33.8565 34.456 33.134 35.0595 32.488C35.6545 31.8505 36.4408 31.2768 37.3843 30.975C37.856 30.8178 38.3575 30.754 38.8548 30.7498C39.3563 30.7455 39.8323 30.8433 40.2955 30.9665C40.7673 31.1025 41.2305 31.3278 41.6513 31.6168C42.072 31.9015 42.4248 32.2755 42.7138 32.6665C43.296 33.4613 43.5765 34.341 43.7253 35.1825C43.8655 36.0283 43.8698 36.857 43.7848 37.6603C43.7465 38.064 43.6828 38.4593 43.5935 38.8503C43.5085 39.2413 43.4065 39.6195 43.262 40.0105C43.1855 40.2188 42.9518 40.3293 42.7393 40.2485C42.582 40.1933 42.48 40.0488 42.4715 39.8915V39.8703C42.3823 38.3998 42.208 36.9165 41.7873 35.6543C41.5663 35.0338 41.29 34.4685 40.9245 34.069C40.5675 33.6568 40.1468 33.4145 39.6368 33.2743C39.0885 33.1298 38.5743 33.1255 38.06 33.253C37.5543 33.3933 37.0273 33.6568 36.5258 34.0605C35.51 34.8425 34.609 36.0155 33.7378 37.2098L33.7208 37.2353C33.589 37.418 33.3298 37.4563 33.147 37.3245C33.0195 37.231 32.9643 37.0823 32.9813 36.9378Z" fill="#6B184E"/>
<path d="M61.9069 49.3992C61.8517 50.5934 61.5754 51.6262 61.0442 52.3104C58.6302 55.4469 45.5147 52.7057 44.3927 49.6669C44.2822 49.3652 44.2099 49.0464 44.1802 48.7064C43.7849 44.4054 49.6117 37.5204 54.8817 38.2217C59.4334 38.8209 62.0982 45.1577 61.9069 49.3992Z" fill="#FF6877"/>
<g opacity="0.6">
<path d="M61.8687 47.9414C60.9847 44.3374 58.6302 40.6612 55.2174 40.2064C50.2577 39.5477 44.8007 45.6124 44.5117 49.9134C44.4607 49.8327 44.4224 49.7477 44.3927 49.6669C44.2822 49.3652 44.2099 49.0464 44.1802 48.7064C43.7849 44.4054 49.6117 37.5204 54.8817 38.2217C58.9319 38.7572 61.4904 43.8402 61.8687 47.9414Z" fill="white"/>
</g>
<path d="M61.9069 49.3996C61.8517 50.5938 61.5754 51.6266 61.0442 52.3108C58.6302 55.4473 45.5147 52.7061 44.3927 49.6673C44.2822 49.3656 44.2099 49.0468 44.1802 48.7068C44.3587 46.5776 45.7739 44.0361 47.7629 42.0896C46.0927 44.1253 45.1619 46.5988 45.7867 48.2946C46.7429 50.8786 57.9034 53.2118 59.9519 50.5428C61.3842 48.6813 60.6787 43.8916 58.4347 40.9506C60.5512 43.0671 61.7964 46.5521 61.9069 49.3996Z" fill="#E8496B"/>
<path fill-rule="evenodd" clip-rule="evenodd" d="M56.3264 54.6015C54.9664 54.6015 53.6829 54.4485 52.8584 54.321C49.8239 53.862 44.4519 52.4298 43.5466 49.9818C42.7519 47.8313 43.6529 44.7585 45.8884 41.9578C47.9284 39.4078 51.3921 36.8493 55.0004 37.3253C57.7756 37.695 60.2066 39.939 61.6729 43.4878C63.1731 47.1173 63.2071 50.972 61.7579 52.8633C60.6996 54.2403 58.4216 54.6015 56.3264 54.6015ZM54.1504 39.0763C51.9149 39.0763 49.2884 40.5935 47.2994 43.084C45.5059 45.3238 44.6814 47.844 45.2381 49.357C45.6121 50.3728 48.8719 51.8943 53.1261 52.5403C56.6621 53.0758 59.5564 52.7655 60.3256 51.7625C61.3541 50.428 61.2096 47.096 60.0069 44.1763C59.4289 42.7865 57.7714 39.514 54.7624 39.1145C54.5641 39.089 54.3601 39.0763 54.1504 39.0763Z" fill="#6B184E"/>
<path d="M50.7036 43.237C51.7278 43.5345 50.8268 49.8288 48.4766 49.1998C46.1263 48.5708 48.4808 42.6038 50.7036 43.237Z" fill="#6B184E"/>
<path d="M57.5548 44.2651C58.9998 44.0228 60.1303 49.739 58.4218 50.1895C56.1268 50.793 55.961 44.5328 57.5548 44.2651Z" fill="#6B184E"/>
<path d="M46.6491 3.95414C46.6491 3.95414 46.6278 3.96264 46.5853 3.97114C43.9716 4.64264 41.9316 6.71239 41.2473 9.35163C40.3803 12.7049 38.7228 17.7539 36.3641 19.0671C32.7516 21.0901 27.4646 20.2911 26.2533 14.9446C25.7008 12.5051 26.0833 9.88713 27.0566 7.70688L27.0608 7.69839C28.3273 4.85939 30.5968 2.76839 33.1086 2.77689C34.3453 2.77689 35.5778 2.50489 36.6403 1.85464C37.3331 1.43389 38.2426 1.05139 39.3433 0.936636C41.2388 0.741136 43.7123 1.34464 46.6491 3.95414Z" fill="#F9C9CA"/>
<path d="M46.6491 3.95414C46.6491 3.95414 46.6278 3.96264 46.5853 3.97114C43.9716 4.64264 41.9316 6.71239 41.2473 9.35163C40.3803 12.7049 38.7228 17.7539 36.3641 19.0671C32.7516 21.0901 27.4646 20.2911 26.2533 14.9446C25.7008 12.5051 26.0833 9.88713 27.0566 7.70688L27.0608 7.69839C26.4148 11.5404 26.5126 15.8499 30.5883 17.0484C32.9131 17.7369 35.9178 16.3259 36.9251 12.1694C38.1916 6.92063 41.4301 4.75313 41.7488 3.71189C42.3438 1.75689 40.8861 1.30639 39.3433 0.936636C41.2388 0.741136 43.7123 1.34464 46.6491 3.95414Z" fill="#F2A5A5"/>
<g opacity="0.6">
<path d="M46.6491 3.95414C46.6491 3.95414 46.6278 3.96264 46.5853 3.97114C46.3275 4.0363 46.0753 4.11564 45.8288 4.20914C43.6188 2.70889 41.7191 2.34764 40.1976 2.50489C39.0926 2.61539 38.1873 3.00214 37.4946 3.42289C36.4321 4.06889 35.1996 4.34514 33.9628 4.34089C31.4511 4.33664 29.1816 6.42764 27.9151 9.26664L27.9108 9.27514C26.9376 11.4554 26.5551 14.0734 27.1076 16.5129C27.2011 16.9251 27.3201 17.3076 27.4561 17.6689C26.9163 16.9421 26.4998 16.0411 26.2533 14.9446C25.7008 12.5051 26.0833 9.88714 27.0566 7.70688L27.0608 7.69839C28.3273 4.85939 30.5968 2.76839 33.1086 2.77689C34.3453 2.77689 35.5778 2.50489 36.6403 1.85464C37.3331 1.43389 38.2426 1.05139 39.3433 0.936636C41.2388 0.741136 43.7123 1.34464 46.6491 3.95414Z" fill="white"/>
</g>
<path fill-rule="evenodd" clip-rule="evenodd" d="M32.5008 20.9837C31.4171 20.9837 30.3588 20.7754 29.4068 20.3504C27.9576 19.7044 26.0833 18.2807 25.3736 15.1442C24.4343 10.9792 26.0451 5.93017 29.1263 3.40567C30.8901 1.96067 32.8833 1.52292 34.8001 2.14342C35.5268 1.44217 37.0738 0.239416 39.3348 0.0311661C41.8933 -0.202584 44.5538 0.889666 47.2483 3.28242C47.4991 3.50342 47.6053 3.84767 47.5246 4.17492C47.4438 4.49792 47.1888 4.75292 46.8616 4.83367C46.8573 4.83367 46.5768 4.90167 46.1561 5.03342C44.2223 5.64117 42.7093 7.25192 42.2078 9.24092C41.1921 13.2742 39.4241 18.3912 36.8061 19.8574C35.4673 20.6054 33.9628 20.9837 32.5008 20.9837ZM33.0958 3.67342C31.9356 3.67342 30.9623 4.23017 30.2696 4.79967C27.6813 6.92042 26.3298 11.2002 27.1331 14.7489C27.5623 16.6529 28.6036 18.0214 30.1421 18.7057C31.8676 19.4749 34.0818 19.3134 35.9263 18.2807C37.5116 17.3967 39.1606 13.9414 40.4611 8.79892C41.0433 6.49542 42.6711 4.57442 44.8003 3.62242C42.9558 2.28367 41.1878 1.68017 39.5261 1.82467C37.1546 2.02867 35.7691 3.74142 35.7521 3.75842C35.4971 4.08142 35.0508 4.19192 34.6768 4.02617C34.1201 3.77542 33.5888 3.67342 33.0958 3.67342Z" fill="#6B184E"/>
<path d="M34.2862 2.67039C34.2862 2.67039 33.5127 3.87314 33.1259 5.89189C32.9474 6.82689 32.8369 7.93189 32.9389 9.17714C32.9432 9.41514 33.1302 9.60214 33.3639 9.60214C33.5977 9.59789 33.7847 9.40664 33.7804 9.17289C33.8569 8.03814 34.1077 7.06064 34.3967 6.24464C34.9662 4.63389 35.7354 3.73714 35.7354 3.73714C36.0287 3.32914 35.9394 2.76389 35.5399 2.47064C35.1362 2.17314 34.5752 2.26664 34.2862 2.67039Z" fill="#6B184E"/>
<path d="M85.2222 26.6448C84.623 30.0873 78.9535 32.0933 75.596 27.9283C72.2427 23.7675 73.5772 14.7915 73.5772 14.7915C72.995 11.842 71.72 11.077 71.72 11.077C76.8412 8.90527 79.438 12.3265 80.0755 13.338C80.1775 13.508 80.2285 13.61 80.2285 13.61C81.8307 14.2943 82.974 15.31 83.7815 16.4958C85.949 19.696 85.6557 24.1373 85.2222 26.6448Z" fill="#F9C9CA"/>
<g opacity="0.6">
<path d="M85.218 26.6448C85.0735 27.4905 84.623 28.247 83.9727 28.8505C84.0365 28.672 84.0832 28.4893 84.1172 28.298C84.5507 25.7863 84.7037 17.1588 80.4537 16.534C80.4537 16.534 77.6955 11.077 72.621 12.1225C72.1492 11.3363 71.72 11.077 71.72 11.077C76.8412 8.90527 79.438 12.3265 80.0755 13.338C80.1775 13.508 80.2285 13.61 80.2285 13.61C81.8307 14.2943 82.974 15.31 83.7772 16.4958C85.949 19.696 85.6557 24.1373 85.218 26.6448Z" fill="white"/>
</g>
<path d="M85.4391 25.9182C85.4008 26.2242 85.3541 26.509 85.3073 26.7725C84.7123 30.2107 79.0428 32.2167 75.6853 28.056C72.3321 23.8952 73.6623 14.9192 73.6623 14.9192C73.0843 11.9655 71.8093 11.2047 71.8093 11.2047C73.5688 10.4567 75.0308 10.3717 76.2123 10.6225C76.2435 10.7471 76.2718 10.8761 76.2973 11.0092C76.2973 11.0092 73.6751 21.562 77.0326 25.7227C79.1023 28.294 83.1526 28.8592 85.4391 25.9182Z" fill="#F2A5A5"/>
<path fill-rule="evenodd" clip-rule="evenodd" d="M80.3135 31.2987C78.299 31.2987 76.3822 30.3595 74.984 28.6212C71.6392 24.469 72.5785 16.241 72.7527 14.9447C72.2895 12.7645 71.4395 12.0505 71.3332 11.9697C71.0315 11.8082 70.87 11.498 70.887 11.1537C70.8997 10.8052 71.1377 10.5077 71.4565 10.3717C77.2195 7.93223 80.22 11.872 80.9467 13.028C87.3387 15.9775 86.7522 23.704 86.1955 26.9255C85.8597 28.8762 84.2107 30.5082 81.9922 31.082C81.427 31.2265 80.866 31.2987 80.3135 31.2987ZM73.3775 11.617C73.8067 12.2842 74.2615 13.283 74.5505 14.7407C74.5675 14.8427 74.5717 14.9447 74.5547 15.0467C74.5462 15.136 73.3222 23.687 76.3865 27.4907C77.7167 29.1397 79.642 29.8282 81.5375 29.3352C83.0505 28.9442 84.2065 27.852 84.419 26.6195C84.912 23.7762 85.4602 16.9125 79.9607 14.5622C79.7652 14.4772 79.608 14.3285 79.5102 14.1372C79.4295 13.98 77.602 10.5332 73.3775 11.617Z" fill="#6B184E"/>
<path d="M79.4551 14.0096C79.4551 14.0096 79.8971 14.8639 79.9056 16.7381C79.9098 17.5754 79.8418 18.5826 79.6208 19.7981C79.5656 20.0234 79.6973 20.2571 79.9226 20.3166C80.1478 20.3761 80.3773 20.2401 80.4368 20.0149C80.9723 18.4381 81.2018 17.1631 81.2953 16.1644C81.4781 14.2306 81.0956 13.2871 81.0956 13.2871C80.9001 12.8281 80.3731 12.6156 79.9183 12.8154C79.4636 13.0151 79.2553 13.5506 79.4551 14.0096Z" fill="#6B184E"/>
<path d="M25.3777 75.3576C22.5089 83.9936 15.4837 80.4449 15.4837 80.4449C15.4837 80.4449 9.83966 84.4654 6.09116 81.2949C4.80341 80.2026 4.02566 78.2306 4.05966 75.8676C4.11916 71.0014 7.59142 64.4776 17.0264 60.4869C17.0264 60.4869 18.8497 56.5471 21.8247 56.9126C24.7997 57.2824 22.7979 62.7054 22.7979 62.7054C22.7979 62.7054 24.3067 63.0199 25.4202 64.6561C26.5847 66.3731 27.3072 69.5479 25.3777 75.3576Z" fill="#F9C9CA"/>
<g opacity="0.6">
<path d="M23.4569 59.3011C23.2529 59.1694 23.0064 59.0844 22.7089 59.0461C19.7339 58.6849 14.7826 64.3204 14.7826 64.3204C7.1496 67.6906 4.0216 75.3534 5.1776 80.2451C2.3981 75.9866 4.22985 65.8971 17.0266 60.4869C17.0266 60.4869 18.8499 56.5471 21.8249 56.9126C23.0871 57.0699 23.4526 58.1281 23.4569 59.3011Z" fill="white"/>
</g>
<path d="M25.3775 75.2435C22.5045 83.8795 15.4835 80.3307 15.4835 80.3307C15.4835 80.3307 9.83527 84.3555 6.09102 81.1807C4.79902 80.0885 4.02552 78.1207 4.05527 75.7535C9.24452 78.7752 12.738 74.0492 12.738 74.0492C21.0255 75.66 24.2385 68.8005 25.42 64.542C26.5845 66.259 27.307 69.438 25.3775 75.2435Z" fill="#F2A5A5"/>
<path fill-rule="evenodd" clip-rule="evenodd" d="M9.55062 83.4248C8.17787 83.4248 6.76687 83.0466 5.50887 81.9841C3.65162 80.4073 2.80162 77.4238 3.29462 74.1896C3.72812 71.3676 5.86587 64.3466 16.3719 59.7863C16.9286 58.7536 18.8751 55.6468 21.9351 56.0208C22.7766 56.1228 23.4439 56.5393 23.8604 57.2236C24.7231 58.6388 24.2684 60.9211 23.9156 62.1706C24.6424 62.5276 25.6539 63.2288 26.4146 64.5506C27.8894 67.1048 27.8299 70.8363 26.2319 75.6388C25.2289 78.6648 23.6181 80.6538 21.4421 81.5506C19.0026 82.5578 16.5886 81.8566 15.5771 81.4656C14.6039 82.0733 12.1474 83.4248 9.55062 83.4248ZM6.67762 80.6071C9.83537 83.2846 14.9099 79.7443 14.9609 79.7103C15.2371 79.5148 15.5941 79.4893 15.8916 79.6423C15.9129 79.6508 18.4034 80.8621 20.7706 79.8761C22.4281 79.1876 23.6904 77.5683 24.5234 75.0736C25.9174 70.8703 26.0406 67.5596 24.8804 65.4941C23.9921 63.9216 22.6619 63.5986 22.6066 63.5858C22.3516 63.5306 22.1306 63.3648 22.0074 63.1353C21.8841 62.9058 21.8586 62.6381 21.9521 62.3916C22.4111 61.1421 22.8319 59.0001 22.3219 58.1628C22.2326 58.0141 22.0881 57.8568 21.7141 57.8101C19.4319 57.5296 17.8594 60.8361 17.8424 60.8701C17.7489 61.0698 17.5831 61.2313 17.3749 61.3206C7.44687 65.5196 5.46637 71.9116 5.07537 74.4616C4.68012 77.0796 5.29212 79.4341 6.67762 80.6071Z" fill="#6B184E"/>
<path d="M16.4228 59.8415C16.4228 59.8415 15.3008 60.7127 13.7453 62.9907C12.8868 64.253 11.8796 65.9572 10.8553 68.2055C10.7066 68.5115 10.8298 68.8812 11.1316 69.0342C11.4333 69.183 11.7988 69.0597 11.9476 68.7537C12.8273 67.0877 13.6773 65.749 14.4423 64.6865C16.2188 62.2045 17.4938 61.2992 17.4938 61.2992C17.8891 61.0017 17.9741 60.4322 17.6766 60.0285C17.3833 59.629 16.8223 59.544 16.4228 59.8415Z" fill="#6B184E"/>
<path d="M19.7759 64.585C19.7759 64.585 20.9659 64.2833 22.2791 64.3343C22.5809 64.347 22.8869 64.3938 23.1929 64.4533C23.5839 64.5298 23.9664 64.6573 24.2894 64.908C24.5954 65.1375 24.8206 65.588 25.0204 66.149C25.4156 67.2583 25.6069 68.784 25.5474 70.4203C25.4709 72.4348 25.0076 74.6193 23.9876 76.3915C23.1206 77.913 22.1856 78.848 21.2591 79.4005C19.8099 80.2633 18.4116 80.1698 17.4724 79.9955C16.6266 79.8723 15.9296 79.511 15.3771 79.086C14.2976 78.2615 13.7154 77.2628 13.7154 77.2628C13.5964 77.0035 13.2946 76.8888 13.0354 77.0078C12.7804 77.1268 12.6656 77.4328 12.7804 77.692C12.7804 77.692 13.2649 79.0265 14.4251 80.1953C15.0966 80.8668 16.0019 81.4405 17.1281 81.7338C18.3776 82.0015 20.2476 82.1673 22.1984 81.0495C23.3586 80.3865 24.5529 79.2475 25.6451 77.3648C27.0604 74.8913 27.5746 71.7378 27.4344 69.0645C27.3494 67.492 27.0434 66.0895 26.5844 65.0695C26.2444 64.313 25.8151 63.7478 25.3434 63.4163C25.0331 63.1953 24.6974 63.021 24.3404 62.9063C23.8431 62.749 23.3161 62.681 22.7976 62.7065C22.1644 62.7363 21.5566 62.8638 21.0254 63.038C20.0819 63.3483 19.4274 63.7393 19.4274 63.7393C19.1979 63.837 19.0874 64.1048 19.1851 64.3385C19.2829 64.5723 19.5464 64.6828 19.7759 64.585Z" fill="#6B184E"/>
<path d="M85.6853 87.0756C85.7023 86.9056 85.7448 86.4466 85.8085 85.7878C85.7788 86.2298 85.7406 86.6633 85.6853 87.0756Z" fill="#39005E"/>
<path d="M5.37292 52.276C5.37292 52.276 4.61217 55.5272 2.13867 55.6675C4.61217 55.8035 5.37292 59.059 5.37292 59.059C5.37292 59.059 6.13367 55.8035 8.60717 55.6675C6.13367 55.5272 5.37292 52.276 5.37292 52.276Z" fill="#FFD833"/>
<path d="M5.04591 52.2762L5.17766 50.1937C5.18616 50.0874 5.27966 50.0067 5.38591 50.0109C5.48791 50.0194 5.56441 50.1002 5.56866 50.1937L5.70466 52.2762C5.71741 52.4589 5.57716 52.6162 5.39441 52.6247C5.21166 52.6374 5.05441 52.5014 5.04591 52.3187C5.04166 52.3059 5.04166 52.2889 5.04591 52.2762Z" fill="#6B184E"/>
<path d="M5.19883 61.1377L5.04583 59.0595C5.02883 58.8767 5.16908 58.7152 5.34758 58.7025C5.53033 58.6897 5.69183 58.8257 5.70458 59.0085C5.70458 59.0255 5.70458 59.0425 5.70458 59.0595L5.55158 61.1377C5.54308 61.2355 5.45808 61.3077 5.36033 61.2992C5.27108 61.295 5.20308 61.2227 5.19883 61.1377Z" fill="#6B184E"/>
<path d="M2.13864 55.995L0.583146 55.8633C0.472646 55.8548 0.391895 55.757 0.404645 55.6508C0.413145 55.553 0.489646 55.4765 0.583146 55.4723L2.13864 55.3363C2.32139 55.3193 2.48289 55.4553 2.49989 55.638C2.51264 55.8208 2.3809 55.9823 2.19815 55.995C2.1769 55.9993 2.15989 55.9993 2.13864 55.995Z" fill="#6B184E"/>
<path d="M10.1672 55.8634L8.60745 55.9952C8.4247 56.0122 8.26321 55.8762 8.25046 55.6934C8.23346 55.5149 8.36946 55.3534 8.55221 55.3364C8.56921 55.3364 8.59045 55.3364 8.60745 55.3364L10.1672 55.4724C10.2735 55.4809 10.3542 55.5744 10.3457 55.6849C10.3372 55.7784 10.2607 55.8549 10.1672 55.8634Z" fill="#6B184E"/>
<path fill-rule="evenodd" clip-rule="evenodd" d="M5.37302 59.3866C5.22002 59.3866 5.08827 59.2803 5.05427 59.1316C5.04577 59.1018 4.31902 56.1183 2.12177 55.9951C1.94752 55.9866 1.81152 55.8421 1.81152 55.6678C1.81152 55.4936 1.94752 55.3491 2.12177 55.3363C4.31902 55.2131 5.04577 52.2296 5.05427 52.1998C5.08827 52.0511 5.22002 51.9448 5.37302 51.9448C5.52602 51.9448 5.66202 52.0511 5.69602 52.1998C5.70027 52.2296 6.43127 55.2131 8.62427 55.3363C8.79852 55.3491 8.93877 55.4936 8.93877 55.6678C8.93877 55.8421 8.79852 55.9866 8.62427 55.9951C6.43127 56.1183 5.70027 59.1018 5.69602 59.1316C5.66202 59.2803 5.52602 59.3866 5.37302 59.3866ZM3.38827 55.6678C4.42527 56.1991 5.04152 57.2573 5.37302 58.0393C5.70452 57.2573 6.32077 56.1991 7.36202 55.6678C6.32077 55.1366 5.70452 54.0741 5.37302 53.2963C5.04152 54.0741 4.42527 55.1366 3.38827 55.6678Z" fill="#6B184E"/>
<path d="M93.5776 37.6772C93.5776 37.6772 92.6596 41.617 89.6633 41.7827C92.6596 41.9527 93.5776 45.8882 93.5776 45.8882C93.5776 45.8882 94.4956 41.9527 97.4918 41.7827C94.4956 41.617 93.5776 37.6772 93.5776 37.6772Z" fill="#FFD833"/>
<path d="M93.178 37.6772L93.3395 35.1612C93.348 35.0295 93.4627 34.9317 93.5945 34.9402C93.7135 34.9445 93.807 35.0422 93.8155 35.1612L93.977 37.6772C93.9897 37.8982 93.824 38.0895 93.603 38.1022C93.382 38.1192 93.195 37.9492 93.178 37.7282C93.178 37.7155 93.178 37.6942 93.178 37.6772Z" fill="#6B184E"/>
<path d="M93.3652 48.4083L93.1782 45.8881C93.1612 45.6671 93.3269 45.4758 93.5479 45.4588C93.7689 45.4418 93.9602 45.6076 93.9772 45.8286C93.9772 45.8498 93.9772 45.8711 93.9772 45.8881L93.7902 48.4083C93.7817 48.5231 93.6797 48.6123 93.5607 48.6038C93.4545 48.5953 93.3737 48.5103 93.3652 48.4083Z" fill="#6B184E"/>
<path d="M89.6634 42.1822L87.7764 42.0207C87.6446 42.0079 87.5511 41.8932 87.5596 41.7614C87.5724 41.6467 87.6659 41.5574 87.7764 41.5447L89.6634 41.3832C89.8844 41.3662 90.0799 41.5277 90.0969 41.7487C90.1181 41.9697 89.9524 42.1652 89.7314 42.1822C89.7101 42.1864 89.6846 42.1864 89.6634 42.1822Z" fill="#6B184E"/>
<path d="M99.3791 42.0202L97.4921 42.1817C97.2711 42.2029 97.0799 42.0372 97.0586 41.8162C97.0416 41.5952 97.2031 41.4039 97.4241 41.3827C97.4454 41.3827 97.4709 41.3827 97.4921 41.3827L99.3791 41.5442C99.5109 41.5569 99.6086 41.6717 99.5959 41.8034C99.5874 41.9224 99.4939 42.0117 99.3791 42.0202Z" fill="#6B184E"/>
<path fill-rule="evenodd" clip-rule="evenodd" d="M93.5779 46.288C93.3909 46.288 93.2337 46.1605 93.1912 45.9777C93.1827 45.9437 92.2987 42.3312 89.6424 42.1825C89.4299 42.1697 89.2642 41.9955 89.2642 41.783C89.2642 41.5705 89.4299 41.3962 89.6424 41.3835C92.2987 41.239 93.1827 37.6222 93.1912 37.5882C93.2337 37.4055 93.3952 37.278 93.5779 37.278C93.7649 37.278 93.9264 37.4055 93.9689 37.5882C93.9774 37.6222 94.8572 41.239 97.5134 41.3835C97.7259 41.3962 97.8917 41.5705 97.8917 41.783C97.8917 41.9955 97.7259 42.1697 97.5134 42.1825C94.8572 42.3312 93.9774 45.9437 93.9689 45.982C93.9264 46.1605 93.7649 46.288 93.5779 46.288ZM91.1724 41.783C92.4304 42.429 93.1784 43.7082 93.5779 44.6517C93.9774 43.7082 94.7254 42.429 95.9834 41.783C94.7254 41.1412 93.9774 39.8577 93.5779 38.9142C93.1784 39.8577 92.4304 41.1412 91.1724 41.783Z" fill="#6B184E"/>
</svg>
