<svg width="242" height="83" viewBox="0 0 242 83" fill="none" xmlns="http://www.w3.org/2000/svg">
<g filter="url(#filter0_d_79_31313)">
<g filter="url(#filter1_d_79_31313)">
<path d="M49.43 55.3291C47.2839 56.2995 44.3766 56.8973 41.1764 56.8973C37.9743 56.8973 35.067 56.2995 32.9209 55.3291C33.7578 53.472 34.7422 51.834 35.7305 50.75H46.6203C47.6087 51.834 48.5931 53.472 49.43 55.3291Z" fill="#F2A5A5"/>
<path d="M37.4722 56.6183C35.7586 56.3553 34.2143 55.9109 32.939 55.337C33.3674 54.0339 34.0349 52.6091 35.085 51.2621L37.4722 56.6183Z" fill="#A84E20"/>
<path d="M49.4142 55.337C48.1389 55.9109 46.5946 56.3553 44.8789 56.6183L47.2681 51.2621C48.3182 52.6091 48.9857 54.0339 49.4142 55.337Z" fill="#A84E20"/>
<path d="M34.4194 56.6004C34.3835 56.5944 34.3457 56.5884 34.3098 56.5804C34.3258 56.5824 34.3656 56.5864 34.4194 56.6004Z" fill="#E23B3B"/>
<path d="M58.1877 47.1811C56.8426 50.3813 53.0267 54.1892 41.1764 54.1892C29.3262 54.1892 25.5102 50.3813 24.1652 47.1811C22.9497 44.2918 23.4718 40.1769 24.5239 35.6616C25.0958 33.2047 25.8251 30.6262 26.5165 28.0656C27.0326 26.1487 29.2146 25.25 31.3088 24.5486C31.9305 24.3394 32.5443 24.1481 33.1042 23.9528C35.7146 23.0442 38.4465 22.5898 41.1764 22.5898C43.9064 22.5898 46.6363 23.0442 49.2466 23.9528C51.6936 24.8057 55.1668 25.5808 55.8363 28.0656C57.7971 35.3308 60.0647 42.7176 58.1877 47.1811Z" fill="#FCCACA"/>
<path d="M53.0006 34.3743C54.3337 35.4723 57.0138 35.8309 57.8308 35.6616C57.2569 33.2046 56.5276 30.6262 55.8361 28.0656C55.32 26.1487 53.1381 25.25 51.0438 24.5486C50.7668 26.1646 50.1451 32.023 53.0006 34.3743Z" fill="#F2A5A5"/>
<path d="M29.3521 34.3743C28.019 35.4723 25.3389 35.8309 24.5239 35.6616C25.0958 33.2046 25.8251 30.6262 26.5166 28.0656C27.0327 26.1487 29.2146 25.25 31.3089 24.5486C31.5859 26.1646 32.2096 32.023 29.3521 34.3743Z" fill="#F2A5A5"/>
<path d="M58.1877 47.1811C56.8426 50.3813 53.0267 54.1893 41.1765 54.1893C29.3262 54.1893 25.5103 50.3813 24.1652 47.1811C23.5674 45.7584 23.3901 44.0367 23.4897 42.1178C23.5575 43.2875 23.7687 44.3555 24.1652 45.2941C25.5103 48.4943 29.3262 52.3042 41.1765 52.3042C53.0267 52.3042 56.8426 48.4943 58.1877 45.2941C58.5822 44.3555 58.7954 43.2875 58.8632 42.1198C58.9648 44.0387 58.7875 45.7584 58.1877 47.1811Z" fill="#F2A5A5"/>
<path d="M57.9466 43.9849C57.9466 46.4657 55.936 48.4763 53.4551 48.4763C53.1981 48.4763 52.947 48.4544 52.7019 48.4125C55.6112 47.1552 57.1236 45.4355 57.9426 43.8055C57.9446 43.8653 57.9466 43.9251 57.9466 43.9849Z" fill="#F2A5A5"/>
<path d="M33.1183 43.9849C33.1183 46.4658 31.1097 48.4763 28.6288 48.4763C26.15 48.4763 24.1394 46.4658 24.1394 43.9849C24.1394 41.5061 26.15 39.4955 28.6288 39.4955C31.1097 39.4955 33.1183 41.5061 33.1183 43.9849Z" fill="#FF6982"/>
<path d="M58.2155 43.9849C58.2155 46.4658 56.2049 48.4763 53.726 48.4763C51.2452 48.4763 49.2346 46.4658 49.2346 43.9849C49.2346 41.5061 51.2452 39.4955 53.726 39.4955C56.2049 39.4955 58.2155 41.5061 58.2155 43.9849Z" fill="#FF6982"/>
<path d="M45.1519 54.0298C46.1921 53.7747 47.2402 53.5775 48.2804 53.3364C48.8609 53.2048 49.4388 53.064 50.014 52.9139C50.1933 52.8681 50.4563 52.7884 50.6317 52.7386L50.6775 52.7246L50.7732 52.6947C53.2321 51.9415 55.6771 50.6383 57.1297 48.4464C57.2094 48.3348 57.2871 48.1973 57.3609 48.0818L57.3848 48.0399L57.4326 47.9562C58.4907 46.1449 58.6322 43.9789 58.5007 41.9265C58.3173 39.2782 57.7195 36.6818 57.0719 34.1133C56.5917 32.2163 56.0218 30.2037 55.5097 28.3107L55.4838 28.2151L55.4698 28.1652L55.4579 28.1234C55.4419 28.0676 55.422 28.0118 55.4041 27.956C54.8621 26.5133 53.3258 25.8219 51.9727 25.2899C51.0043 24.9192 49.9323 24.6084 48.9479 24.2656C43.9045 22.542 38.2912 22.5619 33.2578 24.3135C32.3352 24.6363 31.3269 24.9292 30.4183 25.2739C29.4698 25.6366 28.5073 26.071 27.7661 26.7545C27.3137 27.1749 26.9929 27.683 26.8534 28.2709C25.9209 31.7321 24.8867 35.2112 24.253 38.7402C24.002 40.169 23.8206 41.6136 23.8107 43.0643C23.8087 44.479 23.9701 45.9297 24.5539 47.2329C24.6556 47.462 24.7751 47.7012 24.9006 47.9204C26.1839 50.2298 28.5332 51.6625 30.9782 52.4995C31.2233 52.5851 31.4804 52.6648 31.7294 52.7426C31.8709 52.7864 32.1618 52.8641 32.2993 52.906C32.4867 52.9538 32.6859 53.0076 32.8732 53.0574C34.031 53.3503 35.2026 53.5954 36.3703 53.8485C36.6334 53.9023 36.8944 53.9581 37.1574 54.0258C36.4181 54.0657 35.6749 54.0398 34.9356 53.976C33.2518 53.8266 31.588 53.4221 30.0098 52.8063C28.1905 52.1009 26.4689 51.0428 25.2055 49.5324C25.1338 49.4407 25.0162 49.3013 24.9485 49.2056C24.8947 49.1299 24.817 49.0303 24.7632 48.9525L24.6476 48.7812L24.5878 48.6955C24.3467 48.3189 24.1235 47.9164 23.9402 47.5079C22.5414 44.4332 23.2009 40.2507 23.8485 37.0305C24.4702 34.0276 25.3291 31.0327 26.1201 28.0716L26.148 27.9759L26.1779 27.8683C26.1879 27.8325 26.1999 27.7966 26.2118 27.7607L26.2297 27.7069C26.6183 26.5771 27.6186 25.7601 28.6349 25.2241C30.0158 24.4888 31.5362 24.0863 33.0008 23.5782C38.3311 21.7111 44.2652 21.7449 49.5796 23.6559C51.9568 24.4808 55.5814 25.2919 56.243 28.1134C56.7491 30.0164 57.317 32.023 57.7893 33.932C58.4349 36.5423 59.0307 39.1886 59.2021 41.8826C59.3475 44.3455 59.1144 46.7287 57.6817 48.819C56.251 50.9512 53.9295 52.3022 51.5364 53.1012C51.3072 53.1829 51.0402 53.2587 50.807 53.3324C50.275 53.4838 49.723 53.6293 49.181 53.7329C47.8559 53.9919 46.5009 54.1075 45.1519 54.0298Z" fill="#650000"/>
<path d="M31.4204 26.4955C31.3984 26.5035 31.3765 26.5094 31.3566 26.5154C30.8385 30.6482 28.1644 33.6092 25.5779 33.685C24.1811 33.7248 22.9217 31.8398 22.7324 29.6279C22.7324 29.6279 23.7825 32.9517 25.6417 32.7823C28.7482 32.5013 30.8664 27.7489 31.4403 24.6981C31.512 25.284 31.4921 25.8957 31.4204 26.4955Z" fill="#F2A5A5"/>
<path d="M33.5266 25.1305C33.5266 25.1305 32.7355 26.0989 31.4203 26.4954C31.3984 26.5034 31.3765 26.5094 31.3566 26.5154C30.8385 30.6481 28.1644 33.6092 25.5779 33.6849C24.1811 33.7248 22.9217 31.8397 22.7324 29.6279C22.579 27.8385 23.125 25.8359 24.8566 24.4629C24.9422 24.3932 25.0319 24.3314 25.1236 24.2736C25.1256 24.2736 25.1256 24.2736 25.1256 24.2736C26.0581 23.6858 27.2119 23.6021 27.2119 23.6021C27.9272 22.9924 29.0591 22.4504 30.3901 22.6317C30.4061 22.6337 30.422 22.6357 30.438 22.6377C31.6555 22.819 32.9069 23.7137 33.5266 25.1305Z" fill="#FCCACA"/>
<path d="M30.3903 22.6317C30.3385 22.6437 28.9576 22.9565 27.6982 24.4311C26.15 26.2464 25.7654 29.3529 25.7654 29.3529C25.7654 29.3529 25.602 27.7767 26.0563 26.1467C26.4987 24.5606 26.7258 23.8432 25.1257 24.2736C26.0583 23.6858 27.212 23.6021 27.212 23.6021C27.9274 22.9924 29.0592 22.4504 30.3903 22.6317Z" fill="#F2A5A5"/>
<path d="M31.4403 24.698C32.2134 28.0158 30.155 32.5809 26.8512 33.7526C26.65 33.8243 26.4407 33.8781 26.2315 33.92C25.9426 33.9738 25.6437 34.0096 25.3488 33.9837C24.4381 33.8861 23.7387 33.1688 23.2904 32.4275C21.8019 29.9008 22.1705 26.316 24.464 24.3892C25.1854 23.7435 26.1339 23.4267 27.0784 23.3071C27.1103 23.3032 27.1581 23.2972 27.19 23.2952L27.0126 23.3669C27.5108 22.8967 28.1285 22.5559 28.7921 22.3766C30.159 22.004 31.6037 22.3885 32.592 23.4088C32.883 23.7117 33.1201 24.0564 33.2954 24.433C33.3971 24.6562 33.4788 24.8893 33.5266 25.1304C33.429 24.9989 33.3353 24.8714 33.2357 24.7478C32.5801 23.9388 31.7053 23.2673 30.6811 23.0361C29.5373 22.7811 28.3397 23.1318 27.4112 23.8352L27.3095 23.9129L27.2358 23.9069C26.9887 23.9308 26.7436 23.9767 26.5025 24.0365C25.9964 24.164 25.4962 24.3613 25.0838 24.6761C24.9104 24.8096 24.745 24.9551 24.5896 25.1105C23.121 26.5372 22.7025 28.7829 23.2366 30.7238C23.5096 31.7759 24.3325 33.382 25.57 33.378C25.9984 33.364 26.4208 33.2644 26.8174 33.099C28.6805 32.3 29.904 30.3671 30.5695 28.5179C31.0059 27.2865 31.2171 25.9853 31.4403 24.698Z" fill="#650000"/>
<path d="M48.8281 25.1305C48.8281 25.1305 49.6172 26.0989 50.9324 26.4954C50.9543 26.5034 50.9762 26.5094 50.9961 26.5154C51.5142 30.6481 54.1903 33.6092 56.7748 33.6849C58.1716 33.7248 59.431 31.8397 59.6203 29.6279C59.7737 27.8385 59.2297 25.8359 57.4961 24.4629C57.4105 24.3932 57.3208 24.3314 57.2291 24.2736C57.2271 24.2736 57.2271 24.2736 57.2271 24.2736C56.2946 23.6858 55.1408 23.6021 55.1408 23.6021C54.4255 22.9924 53.2936 22.4504 51.9645 22.6317C51.9632 22.6317 51.9626 22.6317 51.9626 22.6317C51.9486 22.6337 51.9307 22.6357 51.9147 22.6377C50.6972 22.819 49.4458 23.7137 48.8281 25.1305Z" fill="#FCCACA"/>
<path d="M51.9646 22.6317C52.0144 22.6437 53.3953 22.9565 54.6547 24.4311C56.203 26.2464 56.5875 29.3529 56.5875 29.3529C56.5875 29.3529 56.7509 27.7767 56.2966 26.1467C55.8542 24.5606 55.6291 23.8432 57.2272 24.2736C56.2946 23.6858 55.1409 23.6021 55.1409 23.6021C54.4255 22.9924 53.2937 22.4504 51.9646 22.6317Z" fill="#F2A5A5"/>
<path d="M50.9124 24.698C51.1356 25.9853 51.3468 27.2865 51.7832 28.5179C52.4488 30.3671 53.6722 32.3 55.5374 33.099C55.9319 33.2644 56.3544 33.364 56.7828 33.378C58.0222 33.382 58.8432 31.7739 59.1162 30.7238C59.6502 28.7829 59.2317 26.5372 57.7632 25.1105C57.6077 24.9551 57.4443 24.8096 57.269 24.6761C56.8565 24.3613 56.3563 24.164 55.8502 24.0365C55.6091 23.9767 55.364 23.9308 55.1189 23.9069L55.0452 23.9129L54.9416 23.8352C54.015 23.1318 52.8174 22.7811 51.6716 23.0361C50.6474 23.2673 49.7726 23.9388 49.1171 24.7478C49.0194 24.8714 48.9238 24.9989 48.8281 25.1304C48.874 24.8893 48.9557 24.6562 49.0573 24.433C49.2326 24.0564 49.4698 23.7117 49.7627 23.4088C50.749 22.3885 52.1917 22.004 53.5627 22.3766C54.2242 22.5559 54.8419 22.8967 55.3401 23.3669L55.1627 23.2952C55.1946 23.2972 55.2425 23.3032 55.2743 23.3071C56.2189 23.4267 57.1673 23.7435 57.8887 24.3892C60.1822 26.316 60.5509 29.9008 59.0624 32.4275C58.616 33.1707 57.9146 33.8861 57.004 33.9837C56.709 34.0096 56.4121 33.9738 56.1212 33.92C55.912 33.8781 55.7028 33.8243 55.5015 33.7526C52.1977 32.5829 50.1393 28.0158 50.9124 24.698Z" fill="#650000"/>
<path d="M36.6331 37.6802C36.6351 39.5772 35.304 41.1175 33.6601 41.1175C32.0181 41.1195 30.6851 39.5811 30.6851 37.6841C30.6831 35.7871 32.0142 34.2488 33.6561 34.2468C35.3 34.2468 36.6331 35.7832 36.6331 37.6802Z" fill="#650000"/>
<path d="M35.4377 36.6878C35.4377 37.3673 35.0033 37.9173 34.4672 37.9173C33.9332 37.9173 33.4968 37.3673 33.4968 36.6898C33.4968 36.0123 33.9312 35.4623 34.4672 35.4603C35.0013 35.4603 35.4377 36.0103 35.4377 36.6878Z" fill="white"/>
<g opacity="0.2">
<path d="M33.0862 38.8398C33.0862 39.2982 32.8471 39.6708 32.5502 39.6708C32.2533 39.6708 32.0122 39.3001 32.0122 38.8398C32.0122 38.3815 32.2533 38.0089 32.5502 38.0089C32.8451 38.0089 33.0862 38.3815 33.0862 38.8398Z" fill="white"/>
</g>
<path d="M50.2829 52.4398C50.2829 57.4692 46.2059 61.5482 41.1765 61.5482C36.147 61.5482 32.0701 57.4692 32.0701 52.4398C32.0701 47.4103 36.147 43.3334 41.1765 43.3334C46.2059 43.3334 50.2829 47.4103 50.2829 52.4398Z" fill="#FFD62C"/>
<path d="M50.2828 52.4397C50.2828 57.4692 46.2058 61.5461 41.1764 61.5461C37.6633 61.5461 34.6146 59.5575 33.0962 56.6442C34.7302 59.0832 37.5099 60.6873 40.6663 60.6873C45.6957 60.6873 49.7746 56.6104 49.7746 51.5809C49.7746 50.0665 49.404 48.6398 48.7504 47.3844C49.7189 48.8311 50.2828 50.5706 50.2828 52.4397Z" fill="#FFB42E"/>
<path opacity="0.7" d="M49.8524 49.666C48.6031 46.7508 45.8751 44.6186 42.6112 44.2141V44.2201C42.6271 44.5608 41.9536 44.8677 41.1107 44.9036C40.2658 44.9394 39.5724 44.6924 39.5564 44.3496V44.3476C35.4496 45.2284 32.371 48.8809 32.371 53.2508C32.371 54.2152 32.5184 55.1418 32.7974 56.0126C32.3291 54.9166 32.0701 53.7091 32.0701 52.4398C32.0701 47.4103 36.147 43.3334 41.1765 43.3334C45.2395 43.3334 48.6808 45.9936 49.8524 49.666Z" fill="white"/>
<path d="M50.2829 52.4398C50.2829 57.4692 46.2059 61.5482 41.1765 61.5482C36.147 61.5482 32.0701 57.4692 32.0701 52.4398C32.0701 47.4103 36.147 43.3334 41.1765 43.3334C46.2059 43.3334 50.2829 47.4103 50.2829 52.4398Z" stroke="#650000" stroke-width="0.808572" stroke-miterlimit="10"/>
<path d="M48.0213 52.4398C48.0213 56.2219 44.9566 59.2866 41.1766 59.2866C37.3965 59.2866 34.3298 56.2219 34.3298 52.4398C34.3298 48.6598 37.3965 45.5951 41.1766 45.5951C44.9566 45.5951 48.0213 48.6598 48.0213 52.4398Z" fill="#FF9C43"/>
<path d="M48.0213 52.4398C48.0213 56.2219 44.9566 59.2866 41.1766 59.2866C37.3965 59.2866 34.3298 56.2219 34.3298 52.4398C34.3298 48.6598 37.3965 45.5951 41.1766 45.5951C44.9566 45.5951 48.0213 48.6598 48.0213 52.4398Z" fill="#FF9C43"/>
<path d="M48.0212 52.4398C48.0212 56.2218 44.9565 59.2865 41.1764 59.2865C38.0818 59.2865 35.4695 57.2341 34.6206 54.4165C35.6488 56.8993 38.0938 58.6469 40.9473 58.6469C44.7293 58.6469 47.794 55.5822 47.794 51.8002C47.794 51.1147 47.6924 50.4511 47.5051 49.8254C47.8378 50.6305 48.0212 51.5152 48.0212 52.4398Z" fill="#FF7A45"/>
<path d="M34.3298 52.4398C34.3298 48.6598 37.3965 45.5951 41.1766 45.5951C44.2711 45.5951 46.8835 47.6475 47.7324 50.4631C46.7042 47.9823 44.2592 46.2347 41.4057 46.2347C37.6237 46.2347 34.559 49.2994 34.559 53.0795C34.559 53.7669 34.6606 54.4305 34.8479 55.0562C34.5152 54.2512 34.3298 53.3664 34.3298 52.4398Z" fill="#FF7A45"/>
<path d="M43.4322 53.9562C43.4322 54.8649 42.7308 55.5663 41.7902 55.7855V56.8794H40.5628V55.7636C39.6103 55.5105 38.867 54.7553 38.7893 54.6796L39.6661 53.8028C39.7318 53.8805 40.4093 54.5919 41.1984 54.5919C41.7902 54.5919 42.1728 54.295 42.1728 53.9682C42.1728 52.9818 38.9328 52.7965 38.9328 50.9135C38.9328 50.0048 39.6222 49.3034 40.5628 49.0962V48.0022H41.7902V49.1181C42.7407 49.3692 43.486 50.1144 43.5617 50.1901L42.6969 51.0669C42.6212 50.9792 41.9317 50.2997 41.1546 50.2997C40.5628 50.2997 40.1802 50.5747 40.1802 50.9015C40.1802 51.8879 43.4322 52.0732 43.4322 53.9562Z" fill="#FFD62C"/>
<path d="M46.5089 43.5644C46.7281 45.1486 45.7876 45.8878 44.4525 45.7962C42.9042 45.6906 42.3243 44.8018 41.1766 44.8018C40.0308 44.8018 39.449 45.6906 37.9027 45.7962C36.5656 45.8878 35.6271 45.1486 35.8443 43.5644C35.8443 43.5644 37.0897 41.0377 41.1766 41.0377C45.2635 41.0377 46.5089 43.5644 46.5089 43.5644Z" fill="#FCCACA"/>
<path d="M41.1765 43.3333V44.0785C39.8674 44.0785 39.2277 44.9075 38.0301 45.0031C36.5177 45.1247 36.2667 43.9988 36.2647 43.8155C36.2627 43.6521 36.5157 44.22 37.3965 44.3316C38.3111 44.4472 38.7455 43.9988 39.7119 43.5644C40.3874 43.2595 41.1765 43.3333 41.1765 43.3333Z" fill="#F2A5A5"/>
<path d="M46.0904 43.8155C46.0884 43.9988 45.8353 45.1247 44.3229 45.0031C43.1273 44.9075 42.4857 44.0785 41.1765 44.0785V43.3333C41.1765 43.3333 41.9656 43.2595 42.6411 43.5644C43.6075 43.9988 44.0419 44.4472 44.9566 44.3316C45.8373 44.22 46.0904 43.6521 46.0904 43.8155Z" fill="#F2A5A5"/>
<path d="M46.5089 43.5645C46.7759 44.1423 46.758 44.8975 46.3475 45.4176C45.9231 45.9676 45.1679 46.1569 44.5123 46.137C44.034 46.125 43.5558 46.0254 43.1075 45.858C42.8225 45.7504 42.5475 45.6129 42.2785 45.4874C41.6568 45.1825 41.1128 45.0689 40.4533 45.326C40.0747 45.4694 39.6522 45.7085 39.2457 45.858C38.8751 45.9995 38.4785 46.0891 38.082 46.125C36.9482 46.2346 35.7387 45.7643 35.6649 44.4771C35.651 44.1523 35.7167 43.8434 35.8443 43.5645C35.9319 44.0945 36.0395 44.6604 36.4341 45.045C36.7968 45.3997 37.3089 45.5013 37.811 45.4615C38.2135 45.4355 38.6081 45.3399 38.9787 45.1825C39.5346 44.9533 40.0607 44.5947 40.6625 44.4731C41.5771 44.2878 42.2128 44.6086 42.9959 45.0091C43.4223 45.2243 43.8667 45.3877 44.3429 45.4435C45.0423 45.5412 45.7637 45.3997 46.1482 44.76C46.3674 44.4034 46.4432 43.9809 46.5089 43.5645Z" fill="#650000"/>
<path d="M45.4546 41.2171C45.4546 42.7454 43.5397 43.9849 41.1764 43.9849C38.8131 43.9849 36.8982 42.7454 36.8982 41.2171C36.8982 39.0232 38.8131 37.6821 41.1764 37.6821C43.5397 37.6821 45.4546 39.0232 45.4546 41.2171Z" fill="#FF6982"/>
<path opacity="0.7" d="M45.4546 41.2171C45.4546 41.3187 45.4466 41.4203 45.4307 41.518C45.2793 40.2606 44.4623 39.3281 43.3065 38.8279C43.2069 39.1348 42.7327 39.2902 42.2265 39.1766C41.7284 39.065 41.3737 38.7323 41.3996 38.4154C41.3259 38.4114 41.2501 38.4114 41.1764 38.4114C38.9705 38.4114 37.1552 39.5791 36.9221 41.518C36.9062 41.4203 36.8982 41.3187 36.8982 41.2171C36.8982 39.0232 38.8131 37.6821 41.1764 37.6821C43.5377 37.6821 45.4546 39.0232 45.4546 41.2171Z" fill="white"/>
<path d="M45.4546 41.217C45.4546 42.7454 43.5397 43.9848 41.1764 43.9848C38.8131 43.9848 36.8982 42.7454 36.8982 41.217C36.8982 40.9062 36.9759 40.5814 37.1234 40.2645C37.6953 41.3565 39.2953 42.1436 41.1764 42.1436C43.0575 42.1436 44.6556 41.3565 45.2294 40.2645C45.3749 40.5814 45.4546 40.9062 45.4546 41.217Z" fill="#E8496B"/>
<path d="M45.4546 41.2171C45.4546 42.7454 43.5397 43.9849 41.1764 43.9849C38.8131 43.9849 36.8982 42.7454 36.8982 41.2171C36.8982 39.0232 38.8131 37.6821 41.1764 37.6821C43.5397 37.6821 45.4546 39.0232 45.4546 41.2171Z" stroke="#650000" stroke-width="0.808572" stroke-miterlimit="10" stroke-linecap="round"/>
<path d="M40.0307 41.0397C40.0307 41.6495 39.8274 42.1436 39.5764 42.1436C39.3253 42.1436 39.124 41.6495 39.124 41.0397C39.124 40.43 39.3253 39.9358 39.5764 39.9358C39.8274 39.9358 40.0307 40.43 40.0307 41.0397Z" fill="#650000"/>
<path d="M43.2289 41.0397C43.2289 41.6495 43.0257 42.1436 42.7766 42.1436C42.5255 42.1436 42.3223 41.6495 42.3223 41.0397C42.3223 40.43 42.5255 39.9358 42.7766 39.9358C43.0257 39.9358 43.2289 40.43 43.2289 41.0397Z" fill="#650000"/>
<path d="M52.1698 36.1219C51.6059 35.9486 51.0081 35.827 50.4223 35.8509C48.9278 35.8868 47.6306 36.8393 46.7718 38.007C46.6462 38.1744 46.5287 38.3477 46.4191 38.5251L45.8611 37.8994C47.2002 37.3554 48.7883 37.2378 50.1214 37.8555C50.5578 38.0488 50.9603 38.2979 51.321 38.5928C50.4701 38.284 49.5914 38.0628 48.6987 38.0947C47.8279 38.1186 46.9969 38.3657 46.2019 38.7184C45.8233 38.8857 45.4467 38.4832 45.632 38.1186C45.7854 37.8157 45.9687 37.5327 46.176 37.2697C47.6485 35.3886 50.1493 34.5517 52.1698 36.1219Z" fill="#650000"/>
</g>
<path d="M80.1445 32.2735H76.8054V37.5H74.1506V22.3391H80.1445C83.1933 22.3391 85.1636 24.3301 85.1636 27.2959C85.1636 30.2203 83.1725 32.2735 80.1445 32.2735ZM79.626 24.7034H76.8054V29.9092H79.5845C81.4096 29.9092 82.3844 28.9344 82.3844 27.2752C82.3844 25.616 81.3889 24.7034 79.626 24.7034ZM88.2885 25.2012C87.4174 25.2012 86.733 24.5168 86.733 23.6664C86.733 22.8161 87.4174 22.1524 88.2885 22.1524C89.1181 22.1524 89.8025 22.8161 89.8025 23.6664C89.8025 24.5168 89.1181 25.2012 88.2885 25.2012ZM87.0234 37.5V27.2544H89.5537V37.5H87.0234ZM91.5871 32.1491C91.5871 29.1625 93.5367 26.9226 96.4611 26.9226C97.9958 26.9226 99.1987 27.5655 99.8002 28.6648L99.9454 27.2544H102.289V36.9815C102.289 40.4036 100.236 42.5398 96.9173 42.5398C93.9723 42.5398 91.9605 40.8599 91.6494 38.1222H94.1797C94.3456 39.4496 95.3618 40.2377 96.9173 40.2377C98.6595 40.2377 99.7794 39.1385 99.7794 37.4378V35.7371C99.1365 36.6911 97.8714 37.2926 96.3988 37.2926C93.4952 37.2926 91.5871 35.1149 91.5871 32.1491ZM94.1382 32.0869C94.1382 33.8083 95.2374 35.0942 96.8966 35.0942C98.6388 35.0942 99.7172 33.8705 99.7172 32.0869C99.7172 30.3447 98.6595 29.1418 96.8966 29.1418C95.2167 29.1418 94.1382 30.4069 94.1382 32.0869ZM104.327 32.1491C104.327 29.1625 106.276 26.9226 109.201 26.9226C110.736 26.9226 111.938 27.5655 112.54 28.6648L112.685 27.2544H115.029V36.9815C115.029 40.4036 112.975 42.5398 109.657 42.5398C106.712 42.5398 104.7 40.8599 104.389 38.1222H106.919C107.085 39.4496 108.102 40.2377 109.657 40.2377C111.399 40.2377 112.519 39.1385 112.519 37.4378V35.7371C111.876 36.6911 110.611 37.2926 109.139 37.2926C106.235 37.2926 104.327 35.1149 104.327 32.1491ZM106.878 32.0869C106.878 33.8083 107.977 35.0942 109.636 35.0942C111.378 35.0942 112.457 33.8705 112.457 32.0869C112.457 30.3447 111.399 29.1418 109.636 29.1418C107.956 29.1418 106.878 30.4069 106.878 32.0869ZM116.755 42.2495V40.134H118.269C119.265 40.134 119.887 39.9058 120.323 38.7029L120.613 37.9355L116.486 27.2544H119.161L121.795 34.7208L124.574 27.2544H127.188L122.169 39.7814C121.401 41.6895 120.323 42.4776 118.643 42.4776C117.938 42.4776 117.315 42.3946 116.755 42.2495ZM130.969 37.5H128.625V22.0694H131.155V28.7477C131.819 27.607 133.188 26.9226 134.743 26.9226C137.668 26.9226 139.451 29.204 139.451 32.4394C139.451 35.5919 137.522 37.7696 134.577 37.7696C133.043 37.7696 131.736 37.0852 131.134 35.903L130.969 37.5ZM131.176 32.3357C131.176 34.1816 132.317 35.4467 134.059 35.4467C135.842 35.4467 136.9 34.1609 136.9 32.3357C136.9 30.5106 135.842 29.204 134.059 29.204C132.317 29.204 131.176 30.4899 131.176 32.3357ZM144.515 37.7696C142.337 37.7696 141.01 36.5045 141.01 34.5757C141.01 32.6883 142.378 31.5061 144.805 31.3195L147.875 31.0913V30.8632C147.875 29.4736 147.045 28.9136 145.759 28.9136C144.266 28.9136 143.436 29.5358 143.436 30.6143H141.279C141.279 28.3951 143.104 26.9433 145.883 26.9433C148.642 26.9433 150.343 28.4366 150.343 31.278V37.5H148.123L147.937 35.986C147.501 37.0437 146.112 37.7696 144.515 37.7696ZM145.344 35.8615C146.9 35.8615 147.895 34.9282 147.895 33.352V32.8128L145.759 32.9787C144.183 33.1239 143.581 33.6424 143.581 34.472C143.581 35.4053 144.204 35.8615 145.344 35.8615ZM155.359 37.5H152.828V27.2544H155.172L155.379 28.5818C156.022 27.5448 157.267 26.9433 158.656 26.9433C161.228 26.9433 162.555 28.5403 162.555 31.195V37.5H160.025V31.7965C160.025 30.0751 159.175 29.2455 157.868 29.2455C156.313 29.2455 155.359 30.324 155.359 31.9832V37.5ZM167.592 37.5H165.083V22.0694H167.592V31.5476L171.575 27.2544H174.748L170.849 31.3195L174.665 37.5H171.761L169.086 33.1861L167.592 34.7416V37.5Z" fill="#E26776"/>
<path d="M73.4787 59.5V50.824H76.7907C78.4827 50.824 79.5147 51.688 79.5147 53.116C79.5147 54.112 79.0827 54.784 78.2187 55.144C79.1787 55.456 79.6707 56.152 79.6707 57.184C79.6707 58.624 78.6267 59.5 76.9107 59.5H73.4787ZM76.7187 51.868H74.6547V54.652H76.7907C77.7627 54.652 78.3147 54.124 78.3147 53.224C78.3147 52.36 77.7387 51.868 76.7187 51.868ZM76.8867 55.672H74.6547V58.456H76.8867C77.8947 58.456 78.4587 57.94 78.4587 57.04C78.4587 56.176 77.8827 55.672 76.8867 55.672ZM85.0068 53.632H86.1228V59.5H85.1148L84.9948 58.612C84.6588 59.224 83.8788 59.644 83.0148 59.644C81.6468 59.644 80.8788 58.72 80.8788 57.28V53.632H82.0068V56.908C82.0068 58.168 82.5468 58.648 83.4108 58.648C84.4428 58.648 85.0068 57.988 85.0068 56.728V53.632ZM88.3114 52.24C87.9034 52.24 87.5674 51.904 87.5674 51.496C87.5674 51.076 87.9034 50.752 88.3114 50.752C88.7194 50.752 89.0554 51.076 89.0554 51.496C89.0554 51.904 88.7194 52.24 88.3114 52.24ZM87.7594 59.5V53.632H88.8874V59.5H87.7594ZM91.677 59.5H90.549V50.668H91.677V59.5ZM95.6895 59.644C93.9855 59.644 92.9535 58.372 92.9535 56.584C92.9535 54.784 93.9975 53.464 95.7375 53.464C96.6375 53.464 97.3935 53.86 97.7895 54.58V50.668H98.9055V59.5H97.8975L97.8015 58.432C97.4175 59.236 96.6255 59.644 95.6895 59.644ZM95.9175 58.624C97.0695 58.624 97.7775 57.772 97.7775 56.548C97.7775 55.348 97.0695 54.484 95.9175 54.484C94.7655 54.484 94.0935 55.348 94.0935 56.548C94.0935 57.76 94.7655 58.624 95.9175 58.624ZM103.19 53.632H104.054V52.696C104.054 51.256 104.846 50.668 105.914 50.668C106.13 50.668 106.382 50.68 106.61 50.716V51.688H106.106C105.374 51.688 105.182 52.06 105.182 52.696V53.632H106.574V54.58H105.182V59.5H104.054V54.58H103.19V53.632ZM107.063 56.56C107.063 54.748 108.359 53.476 110.123 53.476C111.875 53.476 113.171 54.748 113.171 56.56C113.171 58.372 111.875 59.644 110.123 59.644C108.359 59.644 107.063 58.372 107.063 56.56ZM108.203 56.56C108.203 57.784 108.983 58.636 110.123 58.636C111.251 58.636 112.043 57.784 112.043 56.56C112.043 55.336 111.251 54.484 110.123 54.484C108.983 54.484 108.203 55.336 108.203 56.56ZM117.78 53.584V54.616H117.276C116.208 54.616 115.548 55.264 115.548 56.392V59.5H114.42V53.644H115.476L115.548 54.532C115.788 53.92 116.376 53.512 117.18 53.512C117.384 53.512 117.552 53.536 117.78 53.584ZM121.735 56.572C121.735 54.736 122.899 53.464 124.615 53.464C126.091 53.464 127.123 54.304 127.327 55.612H126.199C126.007 54.868 125.407 54.472 124.651 54.472C123.583 54.472 122.851 55.288 122.851 56.56C122.851 57.82 123.535 58.636 124.603 58.636C125.407 58.636 126.007 58.216 126.211 57.52H127.339C127.111 58.792 126.019 59.644 124.603 59.644C122.875 59.644 121.735 58.42 121.735 56.572ZM129.657 59.488H128.529V50.668H129.657V54.532C130.029 53.896 130.737 53.464 131.649 53.464C133.149 53.464 133.869 54.412 133.869 55.912V59.5H132.741V56.164C132.741 54.976 132.177 54.496 131.337 54.496C130.245 54.496 129.657 55.288 129.657 56.296V59.488ZM135.983 52.24C135.575 52.24 135.239 51.904 135.239 51.496C135.239 51.076 135.575 50.752 135.983 50.752C136.391 50.752 136.727 51.076 136.727 51.496C136.727 51.904 136.391 52.24 135.983 52.24ZM135.431 59.5V53.632H136.559V59.5H135.431ZM139.349 59.5H138.221V50.668H139.349V59.5ZM143.361 59.644C141.657 59.644 140.625 58.372 140.625 56.584C140.625 54.784 141.669 53.464 143.409 53.464C144.309 53.464 145.065 53.86 145.461 54.58V50.668H146.577V59.5H145.569L145.473 58.432C145.089 59.236 144.297 59.644 143.361 59.644ZM143.589 58.624C144.741 58.624 145.449 57.772 145.449 56.548C145.449 55.348 144.741 54.484 143.589 54.484C142.437 54.484 141.765 55.348 141.765 56.548C141.765 57.76 142.437 58.624 143.589 58.624ZM151.565 53.584V54.616H151.061C149.993 54.616 149.333 55.264 149.333 56.392V59.5H148.205V53.644H149.261L149.333 54.532C149.573 53.92 150.161 53.512 150.965 53.512C151.169 53.512 151.337 53.536 151.565 53.584ZM154.944 59.644C153.216 59.644 152.028 58.396 152.028 56.572C152.028 54.736 153.192 53.464 154.896 53.464C156.564 53.464 157.656 54.616 157.656 56.356V56.776L153.12 56.788C153.204 58.024 153.852 58.708 154.968 58.708C155.844 58.708 156.42 58.348 156.612 57.676H157.668C157.38 58.936 156.396 59.644 154.944 59.644ZM154.896 54.412C153.912 54.412 153.288 55 153.144 56.032H156.528C156.528 55.06 155.892 54.412 154.896 54.412ZM160.044 59.5H158.916V53.632H159.936L160.056 54.532C160.428 53.86 161.172 53.464 162 53.464C163.548 53.464 164.256 54.412 164.256 55.912V59.5H163.128V56.164C163.128 54.976 162.576 54.496 161.712 54.496C160.656 54.496 160.044 55.252 160.044 56.392V59.5ZM170.815 59.644C169.555 59.644 168.811 58.936 168.811 57.868C168.811 56.788 169.615 56.116 170.995 56.008L172.843 55.864V55.696C172.843 54.712 172.255 54.364 171.463 54.364C170.515 54.364 169.975 54.784 169.975 55.492H168.991C168.991 54.268 169.999 53.464 171.511 53.464C172.963 53.464 173.947 54.232 173.947 55.816V59.5H172.987L172.867 58.552C172.567 59.224 171.763 59.644 170.815 59.644ZM171.139 58.768C172.207 58.768 172.855 58.072 172.855 56.968V56.656L171.355 56.776C170.359 56.872 169.951 57.256 169.951 57.832C169.951 58.456 170.407 58.768 171.139 58.768ZM176.637 59.5H175.509V53.632H176.529L176.649 54.532C177.021 53.86 177.765 53.464 178.593 53.464C180.141 53.464 180.849 54.412 180.849 55.912V59.5H179.721V56.164C179.721 54.976 179.169 54.496 178.305 54.496C177.249 54.496 176.637 55.252 176.637 56.392V59.5ZM184.764 59.644C183.06 59.644 182.028 58.372 182.028 56.584C182.028 54.784 183.072 53.464 184.812 53.464C185.712 53.464 186.468 53.86 186.864 54.58V50.668H187.98V59.5H186.972L186.876 58.432C186.492 59.236 185.7 59.644 184.764 59.644ZM184.992 58.624C186.144 58.624 186.852 57.772 186.852 56.548C186.852 55.348 186.144 54.484 184.992 54.484C183.84 54.484 183.168 55.348 183.168 56.548C183.168 57.76 183.84 58.624 184.992 58.624ZM192.888 62.128V53.632H193.908L193.992 54.688C194.388 53.884 195.18 53.464 196.116 53.464C197.796 53.464 198.84 54.724 198.84 56.524C198.84 58.312 197.856 59.656 196.116 59.656C195.18 59.656 194.4 59.26 194.016 58.54V62.128H192.888ZM194.028 56.572C194.028 57.772 194.724 58.636 195.876 58.636C197.028 58.636 197.712 57.772 197.712 56.572C197.712 55.36 197.028 54.496 195.876 54.496C194.724 54.496 194.028 55.348 194.028 56.572ZM201.8 59.644C200.54 59.644 199.796 58.936 199.796 57.868C199.796 56.788 200.6 56.116 201.98 56.008L203.828 55.864V55.696C203.828 54.712 203.24 54.364 202.448 54.364C201.5 54.364 200.96 54.784 200.96 55.492H199.976C199.976 54.268 200.984 53.464 202.496 53.464C203.948 53.464 204.932 54.232 204.932 55.816V59.5H203.972L203.852 58.552C203.552 59.224 202.748 59.644 201.8 59.644ZM202.124 58.768C203.192 58.768 203.84 58.072 203.84 56.968V56.656L202.34 56.776C201.344 56.872 200.936 57.256 200.936 57.832C200.936 58.456 201.392 58.768 202.124 58.768ZM209.854 53.584V54.616H209.35C208.282 54.616 207.622 55.264 207.622 56.392V59.5H206.494V53.644H207.55L207.622 54.532C207.862 53.92 208.45 53.512 209.254 53.512C209.458 53.512 209.626 53.536 209.854 53.584ZM213.233 59.644C211.505 59.644 210.317 58.396 210.317 56.572C210.317 54.736 211.481 53.464 213.185 53.464C214.853 53.464 215.945 54.616 215.945 56.356V56.776L211.409 56.788C211.493 58.024 212.141 58.708 213.257 58.708C214.133 58.708 214.709 58.348 214.901 57.676H215.957C215.669 58.936 214.685 59.644 213.233 59.644ZM213.185 54.412C212.201 54.412 211.577 55 211.433 56.032H214.817C214.817 55.06 214.181 54.412 213.185 54.412ZM218.333 59.5H217.205V53.632H218.225L218.345 54.532C218.717 53.86 219.461 53.464 220.289 53.464C221.837 53.464 222.545 54.412 222.545 55.912V59.5H221.417V56.164C221.417 54.976 220.865 54.496 220.001 54.496C218.945 54.496 218.333 55.252 218.333 56.392V59.5ZM225.763 59.5H224.635V54.58H223.483V53.632H224.635V51.796H225.763V53.632H226.915V54.58H225.763V59.5Z" fill="#667085"/>
</g>
<defs>
<filter id="filter0_d_79_31313" x="-11.8588" y="0.458823" width="267" height="82.3529" filterUnits="userSpaceOnUse" color-interpolation-filters="sRGB">
<feFlood flood-opacity="0" result="BackgroundImageFix"/>
<feColorMatrix in="SourceAlpha" type="matrix" values="0 0 0 0 0 0 0 0 0 0 0 0 0 0 0 0 0 0 127 0" result="hardAlpha"/>
<feOffset dx="1.31765" dy="2.63529"/>
<feGaussianBlur stdDeviation="6.58824"/>
<feComposite in2="hardAlpha" operator="out"/>
<feColorMatrix type="matrix" values="0 0 0 0 0 0 0 0 0 0 0 0 0 0 0 0 0 0 0.1 0"/>
<feBlend mode="normal" in2="BackgroundImageFix" result="effect1_dropShadow_79_31313"/>
<feBlend mode="normal" in="SourceGraphic" in2="effect1_dropShadow_79_31313" result="shape"/>
</filter>
<filter id="filter1_d_79_31313" x="13.1765" y="11" width="61.9294" height="61.9294" filterUnits="userSpaceOnUse" color-interpolation-filters="sRGB">
<feFlood flood-opacity="0" result="BackgroundImageFix"/>
<feColorMatrix in="SourceAlpha" type="matrix" values="0 0 0 0 0 0 0 0 0 0 0 0 0 0 0 0 0 0 127 0" result="hardAlpha"/>
<feOffset dx="3.29412" dy="3.29412"/>
<feGaussianBlur stdDeviation="1.31765"/>
<feComposite in2="hardAlpha" operator="out"/>
<feColorMatrix type="matrix" values="0 0 0 0 0 0 0 0 0 0 0 0 0 0 0 0 0 0 0.25 0"/>
<feBlend mode="normal" in2="BackgroundImageFix" result="effect1_dropShadow_79_31313"/>
<feBlend mode="normal" in="SourceGraphic" in2="effect1_dropShadow_79_31313" result="shape"/>
</filter>
</defs>
</svg>
