<svg width="22" height="20" viewBox="0 0 22 20" fill="none" xmlns="http://www.w3.org/2000/svg">
<path d="M9.47475 0C8.4924 0.00346435 7.55127 0.39412 6.85664 1.08676C6.16201 1.7794 5.77023 2.71783 5.76675 3.69737C5.76675 4.35468 5.9538 4.96516 6.25621 5.49511C4.77219 6.36112 3.61035 7.59029 2.98575 9.03801H2.88275C2.82831 9.03925 2.77418 9.02947 2.72363 9.00926C2.67309 8.98905 2.62717 8.95883 2.58867 8.92044C2.55016 8.88204 2.51986 8.83626 2.49959 8.78586C2.47932 8.73546 2.46951 8.68148 2.47075 8.62719C2.47075 8.48258 2.54491 8.36756 2.65121 8.29361L1.69784 6.95845C1.42786 7.14565 1.20728 7.39516 1.05491 7.68573C0.902537 7.9763 0.822888 8.2993 0.822754 8.62719C0.822754 9.63781 1.57919 10.466 2.54821 10.6303C2.50619 10.9179 2.47075 11.2047 2.47075 11.5029C2.47075 13.5504 3.56173 15.3252 5.14875 16.6382C4.94935 17.4598 5.04905 18.3357 5.6893 18.9749C6.16198 19.4422 6.80064 19.7043 7.46625 19.7043C8.13186 19.7043 8.77053 19.4422 9.24321 18.9749L9.55221 18.6668C10.1958 18.7851 10.8426 18.8977 11.5348 18.8977C12.2269 18.8977 12.8738 18.7851 13.5173 18.6668L13.8263 18.9749C14.299 19.4422 14.9376 19.7043 15.6033 19.7043C16.2689 19.7043 16.9075 19.4422 17.3802 18.9749C18.0073 18.3488 18.1012 17.4984 17.9208 16.6891C18.5815 16.154 19.1473 15.5118 19.5943 14.7895H21.4228V8.21637H19.5432C19.244 7.73211 18.8895 7.28406 18.4868 6.88121L18.9508 4.33907V3.28655H18.1268C18.1268 3.28655 16.1475 3.31942 14.4698 4.57077C14.0294 4.44407 13.5824 4.34094 13.1308 4.26183C13.1638 4.07943 13.1828 3.88963 13.1828 3.69737C13.1828 1.66546 11.5125 0 9.47475 0ZM9.47475 1.64327C10.6201 1.64327 11.5348 2.55529 11.5348 3.69737C11.5348 3.83869 11.5092 3.97344 11.4828 4.10819C10.1537 4.11476 8.89878 4.37111 7.75012 4.80165C7.53133 4.4747 7.41463 4.09042 7.41475 3.69737C7.41475 2.55529 8.32939 1.64327 9.47475 1.64327ZM17.0968 5.08429C17.1099 5.08101 17.1099 5.08676 17.1223 5.08429L16.8133 6.95763L16.7367 7.39474L17.0968 7.70285C17.647 8.17798 18.1014 8.75324 18.4358 9.39789L18.6673 9.85965H19.7748V13.1462H18.6673L18.4358 13.6088C18.0336 14.4008 17.3992 15.0976 16.5818 15.6875L15.9893 16.1246L16.3502 16.7926C16.5463 17.1229 16.5109 17.5305 16.2208 17.8197C16.1426 17.901 16.0487 17.9657 15.9448 18.0099C15.8409 18.0541 15.729 18.0769 15.616 18.0769C15.503 18.0769 15.3912 18.0541 15.2873 18.0099C15.1833 17.9657 15.0894 17.901 15.0112 17.8197L14.4188 17.2281L14.0842 16.9208L13.6458 17.0235C12.9768 17.1772 12.2656 17.2544 11.5348 17.2544C10.8243 17.257 10.1158 17.1795 9.42284 17.0235L8.98612 16.9208L8.65075 17.2289L8.0583 17.8189C7.98007 17.9003 7.88612 17.9651 7.78211 18.0094C7.67809 18.0537 7.56617 18.0765 7.45307 18.0765C7.33997 18.0765 7.22805 18.0537 7.12403 18.0094C7.02002 17.9651 6.92607 17.9003 6.84784 17.8189C6.71223 17.6879 6.62555 17.5147 6.60217 17.3279C6.57879 17.1411 6.62012 16.952 6.7193 16.7918L7.08021 16.1246L6.48775 15.6883C4.99714 14.6087 4.11875 13.1363 4.11875 11.5029C4.11875 8.42836 7.34059 5.75146 11.5348 5.75146C12.5483 5.75146 13.514 5.90264 14.3932 6.18775L14.8308 6.34222L15.1917 6.03411C15.78 5.51072 16.5076 5.2289 17.0968 5.08429ZM16.4788 9.85965C16.0256 9.85965 15.6548 10.2294 15.6548 10.6813C15.6548 11.1332 16.0256 11.5029 16.4788 11.5029C16.932 11.5029 17.3028 11.1332 17.3028 10.6813C17.3028 10.2294 16.932 9.85965 16.4788 9.85965Z" fill="#141414"/>
</svg>
