<svg width="21" height="20" viewBox="0 0 21 20" fill="none" xmlns="http://www.w3.org/2000/svg">
<path fill-rule="evenodd" clip-rule="evenodd" d="M5.45508 0C4.129 0 2.85723 0.526784 1.91954 1.46447C0.981862 2.40215 0.455078 3.67392 0.455078 5V15C0.455078 16.3261 0.981862 17.5979 1.91954 18.5355C2.85723 19.4732 4.129 20 5.45508 20H15.4551C16.7812 20 18.0529 19.4732 18.9906 18.5355C19.9283 17.5979 20.4551 16.3261 20.4551 15V5C20.4551 3.67392 19.9283 2.40215 18.9906 1.46447C18.0529 0.526784 16.7812 0 15.4551 0H5.45508ZM14.1851 8.684C14.2749 8.58813 14.345 8.47552 14.3913 8.35257C14.4376 8.22963 14.4592 8.09877 14.4549 7.96747C14.4507 7.83617 14.4206 7.707 14.3664 7.58732C14.3122 7.46765 14.2349 7.35982 14.1391 7.27C14.0432 7.18018 13.9306 7.11011 13.8077 7.06381C13.6847 7.01751 13.5539 6.99588 13.4226 7.00015C13.2912 7.00442 13.1621 7.03451 13.0424 7.08871C12.9227 7.1429 12.8149 7.22014 12.7251 7.316L9.64208 10.606L8.11908 9.253C7.91954 9.08712 7.66333 9.0053 7.40458 9.02482C7.14583 9.04434 6.90479 9.16368 6.7324 9.35762C6.56001 9.55156 6.46975 9.80492 6.4807 10.0642C6.49165 10.3234 6.60295 10.5683 6.79108 10.747L9.04108 12.747C9.23577 12.9199 9.49023 13.0101 9.75037 12.9983C10.0105 12.9866 10.2558 12.8738 10.4341 12.684L14.1851 8.684Z" fill="#F5F5F5"/>
</svg>
