<svg width="40" height="41" viewBox="0 0 40 41" fill="none" xmlns="http://www.w3.org/2000/svg">
<rect y="0.204102" width="40" height="40" rx="5" fill="#4F772D"/>
<path d="M26.667 19.2041C28.55 18.9251 30 17.2501 30 15.2241C30 13.0041 28.259 11.2041 26.111 11.2041H13.89C11.74 11.2041 10 13.0041 10 15.2241C10 17.2501 11.449 18.9251 13.333 19.2041" stroke="#F5F5F5" stroke-width="1.5"/>
<path d="M20 28.2041V21.2041M20 21.2041L18 23.5371M20 21.2041L22 23.5371" stroke="#F5F5F5" stroke-width="1.5" stroke-linecap="round" stroke-linejoin="round"/>
<path d="M13 24.2041C13 26.0901 13 27.0321 13.586 27.6181C14.172 28.2041 15.114 28.2041 17 28.2041H23C24.886 28.2041 25.828 28.2041 26.414 27.6181C27 27.0321 27 26.0901 27 24.2041V18.2041C27 16.3181 27 15.3761 26.414 14.7901C25.828 14.2041 24.886 14.2041 23 14.2041H17C15.114 14.2041 14.172 14.2041 13.586 14.7901C13 15.3761 13 16.3181 13 18.2041V24.2041Z" stroke="#F5F5F5" stroke-width="1.5"/>
<path d="M13 17.2041H27" stroke="#F5F5F5" stroke-width="1.5" stroke-linecap="round" stroke-linejoin="round"/>
</svg>
