<svg width="48" height="49" viewBox="0 0 48 49" fill="none" xmlns="http://www.w3.org/2000/svg">
<path d="M42 8.5H6C4.89543 8.5 4 9.39543 4 10.5V38.5C4 39.6046 4.89543 40.5 6 40.5H42C43.1046 40.5 44 39.6046 44 38.5V10.5C44 9.39543 43.1046 8.5 42 8.5Z" stroke="#CE3762" stroke-width="3" stroke-linejoin="round"/>
<path d="M17 25.5C18.0609 25.5 19.0783 25.0786 19.8284 24.3284C20.5786 23.5783 21 22.5609 21 21.5C21 20.4391 20.5786 19.4217 19.8284 18.6716C19.0783 17.9214 18.0609 17.5 17 17.5C15.9391 17.5 14.9217 17.9214 14.1716 18.6716C13.4214 19.4217 13 20.4391 13 21.5C13 22.5609 13.4214 23.5783 14.1716 24.3284C14.9217 25.0786 15.9391 25.5 17 25.5Z" stroke="#CE3762" stroke-width="3" stroke-linejoin="round"/>
<path d="M23 31.5C23 29.9087 22.3679 28.3826 21.2426 27.2574C20.1174 26.1321 18.5913 25.5 17 25.5C15.4087 25.5 13.8826 26.1321 12.7574 27.2574C11.6321 28.3826 11 29.9087 11 31.5M28 20.5H36M30 28.5H36" stroke="#CE3762" stroke-width="3" stroke-linecap="round" stroke-linejoin="round"/>
</svg>
