<svg width="21" height="20" viewBox="0 0 21 20" fill="none" xmlns="http://www.w3.org/2000/svg">
<path d="M4.70117 0H16.7012V2H4.70117V0ZM2.70117 4V2H4.70117V4H2.70117ZM2.70117 16V4H0.701172V16H2.70117ZM4.70117 18V16H2.70117V18H4.70117ZM16.7012 18V20H4.70117V18H16.7012ZM18.7012 16V18H16.7012V16H18.7012ZM18.7012 4H20.7012V16H18.7012V4ZM18.7012 4V2H16.7012V4H18.7012ZM9.70117 3H11.7012V5H14.7012V7H8.70117V9H14.7012V15H11.7012V17H9.70117V15H6.70117V13H12.7012V11H6.70117V5H9.70117V3Z" fill="#F5F5F5"/>
</svg>
