<svg width="27" height="28" viewBox="0 0 27 28" fill="none" xmlns="http://www.w3.org/2000/svg">
<g filter="url(#filter0_d_79_31143)">
<rect width="20" height="20" rx="3.125" transform="matrix(-1 0 0 1 23.5 2.70435)" fill="#F5F5F5"/>
<g clip-path="url(#clip0_79_31143)">
<path d="M12.7539 16.7043C12.7539 16.837 12.8066 16.9641 12.9004 17.0579C12.9941 17.1517 13.1213 17.2043 13.2539 17.2043C13.3865 17.2043 13.5137 17.1517 13.6075 17.0579C13.7012 16.9641 13.7539 16.837 13.7539 16.7043V13.2043H17.2539C17.3865 13.2043 17.5137 13.1517 17.6075 13.0579C17.7012 12.9641 17.7539 12.837 17.7539 12.7043C17.7539 12.5717 17.7012 12.4446 17.6075 12.3508C17.5137 12.257 17.3865 12.2043 17.2539 12.2043H13.7539V8.70435C13.7539 8.57174 13.7012 8.44456 13.6075 8.35079C13.5137 8.25702 13.3865 8.20435 13.2539 8.20435C13.1213 8.20435 12.9941 8.25702 12.9004 8.35079C12.8066 8.44456 12.7539 8.57174 12.7539 8.70435V12.2043H9.25391C9.1213 12.2043 8.99412 12.257 8.90035 12.3508C8.80658 12.4446 8.75391 12.5717 8.75391 12.7043C8.75391 12.837 8.80658 12.9641 8.90035 13.0579C8.99412 13.1517 9.1213 13.2043 9.25391 13.2043H12.7539V16.7043Z" fill="#141414"/>
</g>
</g>
<defs>
<filter id="filter0_d_79_31143" x="0.375" y="0.829346" width="26.25" height="26.25" filterUnits="userSpaceOnUse" color-interpolation-filters="sRGB">
<feFlood flood-opacity="0" result="BackgroundImageFix"/>
<feColorMatrix in="SourceAlpha" type="matrix" values="0 0 0 0 0 0 0 0 0 0 0 0 0 0 0 0 0 0 127 0" result="hardAlpha"/>
<feOffset dy="1.25"/>
<feGaussianBlur stdDeviation="1.5625"/>
<feComposite in2="hardAlpha" operator="out"/>
<feColorMatrix type="matrix" values="0 0 0 0 0 0 0 0 0 0 0 0 0 0 0 0 0 0 0.1 0"/>
<feBlend mode="normal" in2="BackgroundImageFix" result="effect1_dropShadow_79_31143"/>
<feBlend mode="normal" in="SourceGraphic" in2="effect1_dropShadow_79_31143" result="shape"/>
</filter>
<clipPath id="clip0_79_31143">
<rect width="12" height="12" fill="white" transform="translate(7.25391 6.70435)"/>
</clipPath>
</defs>
</svg>
