<svg width="40" height="40" viewBox="0 0 40 40" fill="none" xmlns="http://www.w3.org/2000/svg">
<rect width="40" height="40" rx="5" fill="#CE3762"/>
<path d="M28.6306 15.875C29.655 18.0154 29.8475 20.46 29.1708 22.7344C28.4941 25.0087 26.9964 26.9504 24.9685 28.1826C22.9407 29.4148 20.5273 29.8495 18.1969 29.4023C15.8666 28.9552 13.7855 27.658 12.3578 25.7628C10.93 23.8675 10.2574 21.5093 10.4706 19.1461C10.6838 16.7828 11.7675 14.583 13.5113 12.9739C15.2552 11.3647 17.5348 10.4609 19.9075 10.4379C22.2803 10.415 24.5769 11.2746 26.3516 12.8497L28.6016 10.5997C28.7074 10.4957 28.8501 10.4377 28.9984 10.4384C29.1468 10.4391 29.2889 10.4984 29.3938 10.6034C29.4987 10.7084 29.5578 10.8506 29.5583 10.999C29.5588 11.1474 29.5007 11.2899 29.3966 11.3957L20.3966 20.3957C20.3445 20.4486 20.2824 20.4906 20.2139 20.5194C20.1455 20.5482 20.072 20.5632 19.9978 20.5634C19.9235 20.5637 19.85 20.5492 19.7813 20.5209C19.7127 20.4926 19.6503 20.451 19.5978 20.3984C19.5454 20.3459 19.5038 20.2835 19.4756 20.2148C19.4473 20.1461 19.433 20.0726 19.4333 19.9983C19.4337 19.924 19.4487 19.8506 19.4776 19.7822C19.5065 19.7138 19.5486 19.6518 19.6016 19.5997L22.3569 16.8435C21.639 16.3067 20.7594 16.0309 19.8636 16.0617C18.9677 16.0925 18.1092 16.4281 17.4299 17.0129C16.7506 17.5978 16.2911 18.3969 16.1275 19.2783C15.9639 20.1596 16.106 21.0704 16.5301 21.8601C16.9543 22.6497 17.6352 23.2711 18.4603 23.6213C19.2855 23.9716 20.2054 24.0298 21.0681 23.7864C21.9308 23.543 22.6847 23.0125 23.205 22.2826C23.7254 21.5527 23.9811 20.6671 23.93 19.7722C23.9215 19.623 23.9727 19.4766 24.0722 19.3651C24.1717 19.2537 24.3114 19.1863 24.4606 19.1778C24.6098 19.1694 24.7562 19.2205 24.8677 19.3201C24.9792 19.4196 25.0465 19.5593 25.055 19.7085C25.1225 20.8661 24.7905 22.0118 24.1146 22.9541C23.4386 23.8963 22.4597 24.5779 21.3414 24.885C20.2232 25.192 19.0335 25.1058 17.9712 24.6408C16.9088 24.1758 16.0384 23.3603 15.5053 22.3304C14.9722 21.3006 14.8088 20.119 15.0424 18.9832C15.276 17.8473 15.8925 16.8261 16.7888 16.0903C17.685 15.3545 18.8067 14.9487 19.9663 14.9407C21.1259 14.9328 22.2531 15.3232 23.1594 16.0466L25.5538 13.6513C23.9806 12.2795 21.9543 11.5402 19.8674 11.5765C17.7804 11.6128 15.7812 12.4222 14.2566 13.8479C12.7321 15.2736 11.7908 17.2142 11.615 19.2941C11.4391 21.3739 12.0412 23.4451 13.3046 25.1065C14.5681 26.768 16.4031 27.9015 18.4543 28.2878C20.5055 28.674 22.6271 28.2855 24.4083 27.1973C26.1895 26.1092 27.5036 24.3988 28.0962 22.3975C28.6889 20.3961 28.5178 18.246 27.6162 16.3635C27.5842 16.2969 27.5655 16.2246 27.5614 16.1508C27.5573 16.077 27.5677 16.0031 27.5921 15.9333C27.6165 15.8635 27.6545 15.7992 27.7037 15.7441C27.753 15.689 27.8126 15.6441 27.8792 15.6121C27.9458 15.58 28.0181 15.5614 28.0919 15.5572C28.1657 15.5531 28.2396 15.5635 28.3094 15.5879C28.3792 15.6123 28.4434 15.6503 28.4986 15.6995C28.5537 15.7488 28.5986 15.8084 28.6306 15.875Z" fill="#F5F5F5"/>
</svg>
