<svg width="57" height="56" viewBox="0 0 57 56" fill="none" xmlns="http://www.w3.org/2000/svg">
<g clip-path="url(#clip0_79_31117)">
<mask id="mask0_79_31117" style="mask-type:luminance" maskUnits="userSpaceOnUse" x="0" y="0" width="57" height="56">
<path d="M56.5 0H0.5V56H56.5V0Z" fill="white"/>
</mask>
<g mask="url(#mask0_79_31117)">
<path d="M56.5 0H0.5V56H56.5V0Z" fill="#FF005B"/>
<path d="M51.1525 23.9866C42.063 11.476 24.5526 8.70264 12.042 17.7921C-0.468614 26.8816 -3.24198 44.392 5.84751 56.9026C14.937 69.4132 32.4474 72.1866 44.958 63.0971C57.4686 54.0076 60.242 36.4972 51.1525 23.9866Z" fill="#FFB238"/>
<path d="M14.4102 35.2318C14.3022 36.7751 15.0162 38.3124 16.3949 39.5055C17.7737 40.6985 19.7043 41.4496 21.7621 41.5935C23.8198 41.7374 25.8362 41.2623 27.3676 40.2727C28.899 39.2832 29.8199 37.8602 29.9278 36.3169" fill="black"/>
<path d="M12.5167 28.8617C12.5767 28.0047 12.1042 27.2735 11.4614 27.2286C10.8187 27.1837 10.249 27.842 10.1891 28.699C10.1292 29.556 10.6016 30.2872 11.2444 30.3321C11.8872 30.3771 12.4568 29.7188 12.5167 28.8617Z" fill="black"/>
<path d="M34.2411 30.3809C34.301 29.5239 33.8286 28.7927 33.1858 28.7478C32.543 28.7028 31.9734 29.3611 31.9135 30.2181C31.8535 31.0752 32.326 31.8064 32.9688 31.8513C33.6115 31.8962 34.1812 31.2379 34.2411 30.3809Z" fill="black"/>
</g>
</g>
<defs>
<clipPath id="clip0_79_31117">
<rect x="0.5" width="56" height="56" rx="12.1739" fill="white"/>
</clipPath>
</defs>
</svg>
