<svg width="27" height="28" viewBox="0 0 27 28" fill="none" xmlns="http://www.w3.org/2000/svg">
<path d="M1.25 24.8009V24.8V10.4C1.25 10.0121 1.33719 9.6486 1.51452 9.30022C1.69229 8.95097 1.93264 8.6699 2.23982 8.4475L2.23984 8.44753L2.24553 8.44332L11.9909 1.24677C12.2299 1.07622 12.4721 0.953389 12.7183 0.872601C12.9656 0.791434 13.225 0.75 13.5 0.75C13.775 0.75 14.0344 0.791434 14.2817 0.872601C14.5279 0.953388 14.7701 1.07622 15.0091 1.24677L24.7545 8.44332L24.7544 8.44336L24.7609 8.44806C25.069 8.67051 25.3096 8.95145 25.4871 9.30022C25.6642 9.64812 25.7508 10.011 25.75 10.3984V10.4V24.8C25.75 25.4755 25.5147 26.0376 25.0183 26.5264C24.5216 27.0154 23.946 27.2508 23.2509 27.25H23.25H17.5V16.8V16.05H16.75H10.25H9.5V16.8V27.25H3.75C3.0532 27.25 2.47681 27.0139 1.98008 26.5248L1.45388 27.0592L1.98008 26.5248C1.48373 26.0361 1.24917 25.4748 1.25 24.8009Z" stroke="#667085" stroke-width="1.5"/>
</svg>
