<svg width="33" height="32" viewBox="0 0 33 32" fill="none" xmlns="http://www.w3.org/2000/svg">
<path d="M29.8333 22.32V6.22665C29.8333 4.62665 28.5266 3.43999 26.94 3.57332H26.86C24.06 3.81332 19.8066 5.23999 17.4333 6.73332L17.2066 6.87999C16.82 7.11999 16.18 7.11999 15.7933 6.87999L15.46 6.67999C13.0866 5.19999 8.84663 3.78665 6.04663 3.55999C4.45996 3.42665 3.16663 4.62665 3.16663 6.21332V22.32C3.16663 23.6 4.20663 24.8 5.48663 24.96L5.87329 25.0133C8.76663 25.4 13.2333 26.8667 15.7933 28.2667L15.8466 28.2933C16.2066 28.4933 16.78 28.4933 17.1266 28.2933C19.6866 26.88 24.1666 25.4 27.0733 25.0133L27.5133 24.96C28.7933 24.8 29.8333 23.6 29.8333 22.32Z" stroke="#667085" stroke-width="1.5" stroke-linecap="round" stroke-linejoin="round"/>
<path opacity="0.4" d="M16.5 7.32001V27.32" stroke="#667085" stroke-width="1.5" stroke-linecap="round" stroke-linejoin="round"/>
<path opacity="0.4" d="M10.8334 11.32H7.83337" stroke="#667085" stroke-width="1.5" stroke-linecap="round" stroke-linejoin="round"/>
<path opacity="0.4" d="M11.8334 15.32H7.83337" stroke="#667085" stroke-width="1.5" stroke-linecap="round" stroke-linejoin="round"/>
</svg>
