<svg width="28" height="28" viewBox="0 0 28 28" fill="none" xmlns="http://www.w3.org/2000/svg">
<path d="M14.123 27C21.3027 27 27.123 21.1797 27.123 14C27.123 6.8203 21.3027 1 14.123 1C6.94334 1 1.12305 6.8203 1.12305 14C1.12305 21.1797 6.94334 27 14.123 27Z" stroke="#667085" stroke-width="1.5"/>
<path d="M14.1231 6.19989V21.7999M18.0231 10.7499C18.0231 8.95589 16.2772 7.49989 14.1231 7.49989C11.969 7.49989 10.2231 8.95589 10.2231 10.7499C10.2231 12.5439 11.969 13.9999 14.1231 13.9999C16.2772 13.9999 18.0231 15.4559 18.0231 17.2499C18.0231 19.0439 16.2772 20.4999 14.1231 20.4999C11.969 20.4999 10.2231 19.0439 10.2231 17.2499" stroke="#667085" stroke-width="1.5" stroke-linecap="round"/>
</svg>
